<svg width="57" height="72" viewBox="0 0 57 72" fill="none" xmlns="http://www.w3.org/2000/svg">
<path d="M35.6833 1.00005C35.7254 1.00005 35.7695 1.01615 35.8059 1.05371C36.6468 1.89616 37.3748 3.21349 37.984 5.00302C38.438 6.41908 38.6544 7.93039 38.6334 9.54499C38.6161 10.268 38.551 11.0042 38.4341 11.763C38.3901 12.0764 38.3345 12.4061 38.2674 12.7522C37.9552 14.1583 37.777 15.0437 37.7311 15.4182L37.7273 15.4443C37.6353 15.9328 37.461 17.2464 37.2062 19.385C37.1545 19.759 37.0989 20.1249 37.0357 20.496C36.9744 21.0154 36.5568 22.9302 35.7791 26.2405C35.6775 26.7186 35.599 27.1476 35.5415 27.5275C35.3423 28.9545 35.2867 29.9958 35.3729 30.6526C35.394 30.8122 35.3174 30.9654 35.2044 30.9946C35.191 30.9981 35.1776 30.9998 35.1661 30.9998C35.0664 30.9998 34.9783 30.9005 34.9592 30.7583C34.8634 30.0293 34.9208 28.9143 35.1297 27.4143C35.191 27.0081 35.2733 26.5608 35.3787 26.0645C36.1641 22.7188 36.5779 20.8284 36.6239 20.3855L36.6277 20.3586C36.689 19.9937 36.7445 19.6356 36.7924 19.2849C37.0453 17.1627 37.2196 15.8427 37.3173 15.3184C37.3671 14.919 37.5491 14.0121 37.8633 12.5982C37.9284 12.2636 37.9801 11.946 38.0223 11.6449C38.1353 10.9162 38.1985 10.2163 38.2138 9.53881C38.233 8.01274 38.0299 6.5857 37.6066 5.2579C37.0261 3.55691 36.3442 2.31469 35.5626 1.53127C35.4668 1.43737 35.4457 1.25493 35.5128 1.12078C35.5549 1.04298 35.6181 1.00005 35.6833 1.00005Z" fill="#A6A6A6" stroke="#A6A6A6" stroke-width="2"/>
<path d="M35.1497 1.00015C35.4156 1.00015 35.7019 1.07595 36.0085 1.22484C36.1242 1.28169 36.1831 1.45223 36.1404 1.60654C36.1079 1.72565 36.0227 1.80146 35.9313 1.80146C35.9069 1.80146 35.8806 1.79604 35.8562 1.78251C35.6146 1.66339 35.3893 1.60654 35.1822 1.60654C34.6828 1.60654 34.2767 1.94493 33.9682 2.62172C32.9429 8.76454 32.2832 12.1959 31.9949 12.9168C30.4662 18.8127 29.4085 22.168 28.8197 22.9828C28.4198 23.884 27.8493 24.9312 27.1144 26.1237C23.0379 32.2262 18.7888 38.0587 18.4051 39.0644L18.3685 39.1348C16.649 41.5361 4.98583 40.9321 1.63406 40.9321C0.895084 40.9321 2.45424 40.8736 1.63406 40.7567C1.51225 40.7393 1.62188 40.5932 1.63406 40.4302C1.64624 40.2781 1.5224 40.1652 1.63406 40.1652C2.43799 40.281 0.911324 40.3384 1.63406 40.3384C4.8356 40.3384 16.379 41.0206 18.0092 38.7745C18.4376 37.6973 22.7049 31.8325 26.7693 25.7468C27.5062 24.5541 28.0726 23.514 28.4665 22.6268L28.4969 22.5724C29.041 21.8214 30.0723 18.5238 31.5889 12.6799L31.603 12.6371C31.8731 11.9612 32.5227 8.55663 33.552 2.42411C33.556 2.39162 33.5662 2.36454 33.5784 2.33747C33.9783 1.44682 34.5021 1.00015 35.1497 1.00015Z" fill="#A6A6A6" stroke="#A6A6A6" stroke-width="2"/>
<path d="M33.0392 30.1668C33.077 30.1668 33.1128 30.179 33.1466 30.2051C33.9466 30.811 34.8063 31.1642 35.7276 31.2646C39.8489 31.045 43.0567 30.935 45.3511 30.935C47.9022 30.935 49.3211 31.071 49.6096 31.3432C49.6295 31.362 49.6474 31.3825 49.6633 31.404C52.4373 32.1108 54.1985 33.3559 54.9507 35.139L54.9646 35.177C55.7526 37.9033 55.3785 39.9965 53.8402 41.4565C55.6073 42.4602 56.2879 44.3633 55.8899 47.1663L55.8879 47.1879C55.3845 49.686 54.3099 51.3186 52.6682 52.086C53.5995 54.1035 53.8721 55.898 53.49 57.4698C53.1119 59.2922 51.9955 60.781 50.1409 61.9369C50.7478 63.8947 50.326 65.993 48.8813 68.232L48.8594 68.2613C47.2953 70.0868 45.0327 70.9998 42.0676 70.9998C41.5324 70.9998 40.9752 70.97 40.3941 70.9105C32.4581 70.9998 24.164 69.0473 22.0526 67.9819C20.7014 67.3003 16.8728 64.5721 16.8728 64.5721C16.831 64.5719 16.7991 64.5761 16.7733 64.5844C16.7514 64.5971 16.7255 64.6045 16.6996 64.6053L2.10529 64.9728C1.98788 64.9728 2.10927 64.8472 2.10529 64.689C2.1033 64.5283 1.98589 64.395 2.10529 64.391L16.6479 64.0246C16.6578 64.0233 16.6618 64.0222 16.6638 64.0209C16.6996 64.0089 16.7474 63.985 16.8051 64.0031C17.7623 64.3047 19.991 66.6694 22.5561 67.5448C27.0037 69.0635 33.3835 70.1816 40.406 70.3285L40.4199 70.3293C40.9931 70.3882 41.5443 70.4177 42.0716 70.4177C44.9073 70.4177 47.0664 69.5627 48.547 67.8523C49.9399 65.7007 50.3081 63.7211 49.6613 61.9141C49.6355 61.8432 49.6335 61.7619 49.6534 61.6879C49.6733 61.6143 49.7151 61.5546 49.7688 61.5227C51.6195 60.4231 52.7199 59.0165 53.0721 57.3033L53.0741 57.2903C53.4343 55.8112 53.1278 54.0746 52.1567 52.0809C52.1189 52.0042 52.111 51.9078 52.1349 51.8218C52.1568 51.7357 52.2105 51.6693 52.2761 51.6433C53.9099 50.9959 54.9725 49.4675 55.4621 47.058C55.8421 44.3779 55.1198 42.6246 53.293 41.7985C53.2134 41.7618 53.1557 41.6665 53.1478 41.5534C53.1378 41.4405 53.1796 41.3311 53.2512 41.2727C54.873 39.9795 55.3128 38.0302 54.5686 35.4248C53.8761 33.7781 52.1826 32.6201 49.4902 31.9513C49.4245 31.9351 49.3708 31.8814 49.339 31.8081C49.0902 31.5991 47.8923 31.4948 45.7471 31.4948C43.4706 31.4948 40.1334 31.6121 35.7316 31.8469L35.7058 31.8464C34.7168 31.7412 33.7914 31.3626 32.9317 30.7109C32.8283 30.6315 32.7905 30.4539 32.8502 30.3142C32.89 30.2197 32.9636 30.1668 33.0392 30.1668Z" fill="#A6A6A6" stroke="#A6A6A6" stroke-width="2"/>
<path d="M46.6235 32.6691C47.0651 32.6691 47.9023 32.7728 49.1373 32.9805C49.2552 33.0008 49.3391 33.1318 49.3211 33.2732C49.3071 33.4023 49.2132 33.4955 49.1053 33.4955C49.0953 33.4955 49.0853 33.4946 49.0753 33.4927C47.8424 33.2857 47.0331 33.182 46.6434 33.182C46.5535 33.182 46.4876 33.1872 46.4416 33.1981L46.4037 33.2031C45.2687 33.2319 44.1417 33.4054 43.0267 33.724L42.9667 33.7313C42.1974 33.6926 41.5719 33.6733 41.0864 33.6733C40.6588 33.6733 40.341 33.6881 40.1312 33.7179C39.5577 33.7877 39.1261 33.8935 38.8364 34.0358C36.8421 35.1759 36.1887 36.5877 36.8761 38.2716C36.914 38.367 36.958 38.4638 37.004 38.5615C37.6114 39.6355 39.0222 40.3935 41.2362 40.8353C42.0335 40.938 43.0326 40.9895 44.2376 40.9895C44.2855 40.9895 44.3355 40.9895 44.3854 40.9892L44.4034 40.9902L47.4427 41.2649C48.264 41.297 48.8955 41.3136 49.3411 41.3136C49.419 41.3136 49.4909 41.3129 49.5569 41.3119L49.5709 41.3124C49.6368 41.3164 49.7047 41.3183 49.7787 41.3183C50.552 41.3183 51.709 41.0917 53.2476 40.6389C53.2656 40.6337 53.2836 40.6311 53.3015 40.6311C53.3995 40.6311 53.4874 40.7098 53.5134 40.8275C53.5414 40.9661 53.4714 41.1066 53.3535 41.141C51.7809 41.6041 50.5879 41.8357 49.7727 41.8357C49.6967 41.8357 49.6248 41.8336 49.5569 41.8296C49.4849 41.8305 49.417 41.831 49.3431 41.8307C48.8875 41.831 48.246 41.8145 47.4188 41.7814C47.4088 41.7807 44.3774 41.5069 44.3774 41.5069C44.3275 41.5069 44.2815 41.5069 44.2376 41.5069C43.0087 41.5069 41.9876 41.454 41.1763 41.3476L41.1623 41.3457C38.8144 40.8771 37.3037 40.0391 36.6323 38.8322L36.6243 38.8188C36.5724 38.7107 36.5244 38.6031 36.4805 38.4964C35.6652 36.4987 36.3905 34.8547 38.6565 33.5637L38.6685 33.5578C38.9982 33.3966 39.4678 33.2786 40.0793 33.204C40.3031 33.1721 40.6408 33.1561 41.0904 33.1561C41.5779 33.1561 42.1994 33.175 42.9547 33.2125C44.0817 32.8926 45.2207 32.7173 46.3697 32.6863C46.4356 32.6748 46.5176 32.6691 46.6235 32.6691Z" fill="#A6A6A6" stroke="#A6A6A6" stroke-width="2"/>
<path d="M39.7373 41.8358C40.183 41.8358 40.648 41.8585 41.1321 41.9035C41.2622 41.9157 41.3582 42.0473 41.3475 42.1982C41.3368 42.3415 41.2345 42.4504 41.115 42.4504C41.1086 42.4504 41.1022 42.4499 41.0958 42.4494C40.6202 42.4052 40.1681 42.383 39.733 42.383C37.677 42.383 36.0796 42.881 34.9449 43.8777C33.8743 45.1986 33.9148 46.5148 35.0729 47.8257C35.1987 47.9684 35.3352 48.1112 35.4866 48.2538C36.8324 49.2426 38.6069 49.9106 40.8122 50.2575C40.8143 50.2575 46.5237 51.0517 46.5237 51.0517C46.9439 51.1024 47.3769 51.1442 47.8184 51.1771C48.5883 51.2513 49.4414 51.2882 50.3819 51.2882C51.267 51.2882 52.231 51.2555 53.274 51.1901C53.2782 51.1899 53.2825 51.1896 53.2868 51.1896C53.4084 51.1896 53.5128 51.3027 53.5192 51.4486C53.5256 51.5997 53.4276 51.7286 53.2975 51.7368C52.2481 51.8027 51.2756 51.8357 50.3819 51.8357C49.4286 51.8357 48.5648 51.7982 47.7885 51.7236C47.3385 51.6901 46.8991 51.6476 46.4726 51.5962C46.4683 51.5957 40.7546 50.8008 40.7546 50.8008C38.464 50.4404 36.6191 49.7398 35.2158 48.6981L35.1945 48.6801C35.0324 48.5268 34.8831 48.3732 34.7466 48.2191C33.3581 46.6449 33.3198 45.0613 34.6378 43.4682L34.6655 43.4397C35.8833 42.3702 37.5725 41.8358 39.7373 41.8358Z" fill="#A6A6A6" stroke="#A6A6A6" stroke-width="2"/>
<path d="M38.3827 50.1665C39.2257 50.1665 40.1673 50.2921 41.2074 50.5424C41.3311 50.5727 41.4108 50.7153 41.3856 50.861C41.3626 50.9888 41.2682 51.0767 41.1612 51.0767C41.1465 51.0767 41.1298 51.0752 41.1151 51.0712C40.1023 50.8273 39.1901 50.7052 38.3785 50.7052C36.984 50.7052 35.8852 51.0653 35.0842 51.7859C33.8218 53.2684 33.8595 54.8381 35.1995 56.4949C37.242 58.6081 42.2433 59.9299 50.2056 60.4606C50.3314 60.469 50.4279 60.5963 50.4216 60.7452C50.4153 60.8887 50.3125 60.9998 50.1909 60.9998C50.1867 60.9998 50.1825 60.9995 50.1783 60.9993C42.0902 60.4604 36.9903 59.0879 34.8786 56.8821L34.864 56.8664C33.3122 54.9452 33.2849 53.1165 34.7822 51.3797L34.8052 51.3576C35.6881 50.5636 36.8792 50.1665 38.3827 50.1665Z" fill="#A6A6A6" stroke="#A6A6A6" stroke-width="2"/>
<path d="M38.0477 58.5077C38.4279 58.5077 38.8219 58.5896 39.2296 58.7543C39.3439 58.8006 39.4109 58.9662 39.3774 59.1244C39.3498 59.2548 39.2631 59.3392 39.1686 59.3392C39.1489 59.3392 39.1292 59.3356 39.1095 59.3272C38.747 59.1807 38.3964 59.1077 38.0576 59.1077C37.2992 59.1077 36.6038 59.4764 35.9715 60.2145C35.2368 61.4059 35.1659 62.5856 35.7568 63.7536C36.3182 64.6981 37.2125 65.4661 38.4397 66.0586L38.4654 66.0738C38.7037 66.2399 39.596 66.5075 41.1404 66.8773L41.1837 66.8942C42.1489 67.4291 42.6985 67.7009 42.8325 67.7098L42.862 67.7148C43.3663 67.8454 43.8745 67.9108 44.3847 67.9108C44.4635 67.9108 44.5403 67.9094 44.6191 67.9061C44.7412 67.9061 44.8378 68.0344 44.8397 68.1964C44.8437 68.3608 44.7491 68.4983 44.6309 68.5029C44.5482 68.5059 44.4674 68.5076 44.3847 68.5076C43.8528 68.5076 43.3229 68.4403 42.797 68.3056C42.6138 68.2868 42.0288 68.0058 41.0498 67.4626C39.5172 67.0943 38.5953 66.8138 38.294 66.6219C36.986 65.9889 36.0247 65.1528 35.4121 64.1133L35.4042 64.0961C34.6774 62.6627 34.766 61.2276 35.6702 59.7906L35.6938 59.7582C36.4088 58.9245 37.1928 58.5077 38.0477 58.5077Z" fill="#A6A6A6" stroke="#A6A6A6" stroke-width="2"/>
<path d="M38.2202 51.8331C38.3186 51.8331 38.417 51.8622 38.4964 51.9213C38.6667 52.0495 38.6818 52.2709 38.5305 52.4156C38.0992 52.8284 37.8041 53.3259 37.6452 53.9086C37.5998 54.0946 37.5922 54.3738 37.6263 54.7464C37.6603 55.0435 37.7246 55.3045 37.823 55.5285C37.9024 55.71 37.7889 55.9116 37.5771 55.9784C37.5279 55.9927 37.4788 55.9998 37.4334 55.9998C37.2631 55.9998 37.1042 55.9122 37.0437 55.7707C36.9188 55.4876 36.8394 55.1659 36.7978 54.8058C36.7561 54.3569 36.7713 54.0083 36.8356 53.7549C37.0285 53.0536 37.3842 52.4533 37.91 51.9514C37.9933 51.8734 38.1067 51.8331 38.2202 51.8331Z" fill="#A6A6A6" stroke="#A6A6A6" stroke-width="2"/>
<path d="M37.6286 61.0024C37.689 61.0024 37.7495 61.0187 37.8099 61.0538C37.9983 61.1684 38.0729 61.4392 37.9734 61.6558C37.8454 61.9365 37.7637 62.1278 37.7246 62.2371C37.6464 62.4684 37.6002 62.6332 37.5895 62.7347L37.586 62.7551C37.5646 62.8971 37.554 63.0455 37.5575 63.2005C37.5575 63.3298 37.5824 63.5305 37.6286 63.8066C37.6677 64.0498 37.5256 64.2831 37.3159 64.3283C37.291 64.3332 37.2661 64.3357 37.2448 64.3357C37.06 64.3357 36.8964 64.1856 36.8609 63.9702C36.8076 63.648 36.7827 63.3992 36.7792 63.2246C36.7721 63.0137 36.7863 62.8089 36.8183 62.6111C36.8396 62.4414 36.8965 62.2114 36.996 61.9214C37.0457 61.7725 37.1417 61.5514 37.2803 61.2484C37.3514 61.0893 37.4864 61.0024 37.6286 61.0024Z" fill="#A6A6A6" stroke="#A6A6A6" stroke-width="2"/>
<path d="M38.6348 45.1717C38.6348 45.1717 38.6348 45.1858 38.6348 45.216C38.6348 45.2954 38.6348 45.4536 38.6348 45.5697C38.6348 45.81 38.6348 46.0859 38.6348 46.3982C38.6348 46.538 38.6348 46.7001 38.6348 46.8856C38.6348 47.0066 38.6348 47.1517 38.6348 47.321C38.6348 47.4513 38.6348 47.5999 38.6348 47.6528C38.6348 47.6656 38.6348 47.6716 38.6348 47.6716C38.6348 47.6716 38.6348 47.6117 38.6348 47.513C38.6348 47.3194 38.6348 47.1473 38.6348 46.9971V46.9687C38.6348 46.7451 38.6348 46.5443 38.6348 46.3664C38.6348 45.9612 38.6348 45.5999 38.6348 45.2824C38.6348 45.2104 38.6348 45.1717 38.6348 45.1717Z" fill="#A6A6A6" stroke="#A6A6A6" stroke-width="2"/>
<path d="M40.6047 35.1691C40.6659 35.1691 40.727 35.1867 40.7795 35.2242C40.928 35.3259 40.9659 35.5332 40.8697 35.6869C40.6076 36.1019 40.4882 36.5841 40.5144 37.1334C40.5377 37.5745 40.727 38.1456 41.0765 38.8474C41.1581 39.0105 41.0998 39.2121 40.9426 39.2976C40.896 39.3235 40.8435 39.3357 40.794 39.3357C40.6804 39.3357 40.5697 39.2705 40.5115 39.1567C40.1183 38.3691 39.9057 37.7066 39.8766 37.1683V37.1501C39.8475 36.462 39.9989 35.8513 40.3367 35.3186C40.3979 35.2217 40.4999 35.1691 40.6047 35.1691Z" fill="#A6A6A6" stroke="#A6A6A6" stroke-width="2"/>
<path d="M16.5775 47.664C16.7016 47.664 16.8149 47.7487 16.8581 47.8829C16.9876 48.3014 17.028 48.7913 16.9849 49.3522C16.9633 49.6924 16.9228 50.063 16.8689 50.4635C16.8662 50.4684 16.4534 53.1765 16.4534 53.1765C16.4264 53.358 16.3941 53.6211 16.3617 53.9668C16.2835 54.834 16.2646 55.8652 16.305 57.0607C16.3779 58.153 16.5128 59.1006 16.7124 59.904C16.8473 60.479 17.117 61.2459 17.5244 62.2096C17.5945 62.3704 17.5298 62.5603 17.3815 62.6346C17.341 62.6545 17.2978 62.6638 17.2574 62.6638C17.1441 62.6638 17.0388 62.5948 16.9876 62.4771C16.564 61.4804 16.2835 60.678 16.1405 60.0695C15.9328 59.2242 15.7898 58.233 15.7142 57.0955C15.6711 55.8591 15.6927 54.7984 15.7736 53.9019C15.8087 53.5436 15.841 53.2674 15.8707 53.0718L16.2834 50.3641C16.3374 49.9792 16.3725 49.6252 16.3968 49.3013C16.4318 48.8252 16.3994 48.4207 16.2969 48.0857C16.2457 47.918 16.3293 47.7364 16.4831 47.68C16.5155 47.6689 16.5451 47.664 16.5775 47.664Z" fill="#A6A6A6" stroke="#A6A6A6" stroke-width="2"/>
<path d="M14.6783 58.505C14.7712 58.505 14.8601 58.5999 14.8883 58.7484C14.9025 58.8112 14.9207 58.9238 14.9449 59.0857C15.0318 59.7558 15.0923 60.1876 15.1307 60.3935C15.1973 60.774 15.2761 61.1547 15.369 61.5415C15.5548 62.3474 15.8598 63.3856 16.29 64.6611C16.3485 64.8309 16.3061 65.0412 16.1991 65.131C16.1647 65.1586 16.1304 65.1716 16.0961 65.1716C16.0153 65.1716 15.9385 65.1044 15.9002 64.9866C15.4599 63.6851 15.1469 62.6184 14.955 61.7861C14.8581 61.3832 14.7752 60.9843 14.7066 60.5903C14.6642 60.3659 14.5995 59.9186 14.5147 59.2475C14.4925 59.1015 14.4763 59.0048 14.4662 58.9575C14.4299 58.7744 14.4945 58.579 14.6117 58.5212C14.6339 58.5104 14.6561 58.505 14.6783 58.505Z" fill="#A6A6A6" stroke="#A6A6A6" stroke-width="2"/>
</svg>
