<svg width="272" height="63" viewBox="0 0 272 63" fill="none" xmlns="http://www.w3.org/2000/svg">
<path d="M1 45L9 53L0.999999 61" stroke="white" stroke-width="1.6" stroke-linecap="round" stroke-linejoin="round"/>
<path d="M260.234 24.2202C260.324 39.1902 248.244 49.4902 235.484 49.2302C222.014 48.9602 211.234 37.9502 211.254 24.6402C211.264 11.8002 221.384 -0.0597733 235.884 0.000226685C251.004 0.0602267 260.434 12.7702 260.234 24.2202ZM231.094 20.6902C230.624 21.3202 230.184 21.8602 229.804 22.4302C228.184 24.9002 227.324 25.2502 224.664 24.4802C223.014 24.0002 222.534 24.4202 222.764 26.1202C223.084 28.5002 223.364 30.8802 223.764 33.2502C223.854 33.7802 224.314 34.5702 224.724 34.6602C226.664 35.0702 228.664 35.8502 230.584 34.5002C231.054 34.1702 233.544 34.5902 233.864 35.0402C233.934 35.1402 233.954 35.2702 233.984 35.3902C234.404 37.2602 232.634 39.2602 230.744 38.9002C229.044 38.5702 227.444 38.7802 225.854 39.3002C224.254 39.8202 222.694 39.9002 221.134 39.1702C220.894 39.0602 220.384 39.1302 220.204 39.3102C219.524 40.0102 219.584 41.1602 220.254 41.8802C221.954 43.7302 223.974 44.1902 226.354 43.3802C228.544 42.6302 230.774 41.9702 232.994 41.3102C233.944 41.0302 234.944 40.9002 235.894 40.6302C236.804 40.3702 237.234 39.8202 237.054 38.7702C236.784 37.2602 236.754 35.7102 236.424 34.2202C236.254 33.4402 235.754 32.6602 235.214 32.0602C234.434 31.2102 233.454 30.5602 232.604 29.7802C231.934 29.1602 231.904 28.4202 232.364 27.6402C233.204 26.2202 234.054 24.8002 234.854 23.3502C235.014 23.0502 235.094 22.5602 234.954 22.2702C234.404 21.1202 235.004 20.8802 235.964 20.8302C238.024 20.7202 239.874 20.1802 241.184 18.4102C241.504 17.9902 241.944 17.6502 242.364 17.3102C243.914 16.0902 245.674 15.3202 247.654 15.5702C253.304 16.2802 257.714 21.2802 257.844 26.9802C257.964 32.4302 253.224 37.3802 247.724 37.4302C246.714 37.4402 246.534 37.8602 246.584 38.6902C246.664 40.1402 247.494 41.1402 248.534 42.0202C249.874 43.1602 249.914 43.1702 251.184 42.0102C255.664 37.9002 258.404 32.8902 258.924 26.7802C259.344 21.8202 258.244 17.1702 255.834 12.8202C255.394 12.0302 254.974 11.8202 254.184 12.4002C253.464 12.9402 252.644 13.3502 251.854 13.8302C251.934 14.4502 252.014 15.0802 252.094 15.7102C251.984 15.8002 251.884 15.8902 251.774 15.9802C250.984 14.1202 249.324 14.8902 248.004 14.5102C248.324 14.2102 248.634 13.9502 248.974 13.9002C250.084 13.7202 250.144 13.1602 249.614 12.3502C249.024 11.4502 248.494 10.5002 247.814 9.67023C247.574 9.37023 246.924 9.11023 246.604 9.23023C245.414 9.68023 244.294 10.2902 243.144 10.8402C243.044 12.3602 244.814 13.6702 243.674 15.3602C243.074 14.3102 242.654 13.2102 242.294 12.1002C242.084 11.4402 241.754 11.1802 241.024 11.3302C239.804 11.5802 238.564 11.7002 237.344 11.9402C236.994 12.0102 236.424 12.2902 236.404 12.5102C236.314 13.8002 236.364 15.1002 236.364 16.4602C238.394 16.3202 240.164 16.2102 241.944 16.0902C240.954 17.4102 239.644 17.5302 238.324 17.5502C237.334 17.5602 236.404 17.5302 236.174 18.8202C236.134 19.0102 235.784 19.1502 235.404 19.4502C235.314 18.8102 235.204 18.3802 235.204 17.9502C235.184 16.5402 235.094 15.1202 235.224 13.7302C235.344 12.4202 235.004 11.7902 233.604 11.8702C232.824 11.9102 232.294 11.5502 232.254 10.6202C232.604 10.6202 232.894 10.6102 233.174 10.6202C235.194 10.7202 235.204 10.7202 235.184 8.68023C235.184 8.12023 235.264 7.39023 234.954 7.05023C234.004 5.98023 232.074 6.38023 231.324 7.65023C231.004 8.19023 230.524 8.64023 230.114 9.13023C229.974 9.04023 229.824 8.94023 229.684 8.85023C229.844 8.42023 229.974 7.97023 230.184 7.56023C231.044 5.86023 230.994 5.81023 229.394 4.93023C228.584 4.48023 228.264 5.08023 227.814 5.43023C227.004 6.04023 226.364 7.01023 224.824 6.67023C225.504 6.06023 226.014 5.61023 226.524 5.14023C227.074 4.64023 228.134 4.29023 227.624 3.38023C227.484 3.13023 226.094 3.32023 225.454 3.65023C218.414 7.28023 214.344 13.1202 212.844 20.8102C212.684 21.6302 212.734 22.4902 212.674 23.4502C214.064 22.5702 215.274 21.8602 216.424 21.0702C217.464 20.3502 218.154 19.5102 217.614 18.0402C217.254 17.0502 217.174 15.9402 217.074 14.8702C216.684 10.7902 220.654 6.96023 224.504 7.68023C226.744 8.10023 228.754 9.04023 230.534 10.4502C233.124 12.5102 233.494 15.6902 231.384 18.2202C230.654 19.1002 230.324 19.8702 231.094 20.6902ZM254.714 10.8602C253.574 9.63023 252.634 8.60023 251.664 7.59023C250.684 6.56023 248.934 6.95023 248.484 8.31023C248.414 8.53023 248.524 8.87023 248.664 9.08023C249.324 10.1202 249.984 11.1602 250.734 12.1302C250.934 12.4002 251.544 12.6502 251.794 12.5402C252.744 12.1002 253.634 11.5002 254.714 10.8602ZM241.514 10.0902C240.804 8.83023 240.274 7.81023 239.664 6.84023C239.524 6.61023 239.134 6.43023 238.844 6.42023C236.934 6.35023 236.414 6.87023 236.374 8.79023C236.374 9.12023 236.374 9.45023 236.354 9.78023C236.304 10.4902 236.664 10.7702 237.334 10.6802C238.634 10.5102 239.944 10.3202 241.514 10.1002V10.0902ZM246.584 8.15023C245.224 6.89023 244.234 5.77023 243.024 4.98023C242.644 4.73023 241.634 5.31023 240.994 5.66023C240.844 5.74023 240.904 6.46023 241.054 6.80023C241.394 7.59023 241.814 8.36023 242.274 9.09023C242.434 9.34023 242.904 9.64023 243.114 9.57023C244.154 9.22023 245.164 8.75023 246.594 8.15023H246.584ZM249.554 5.93023C247.404 3.78023 244.684 2.79023 243.644 3.82023C244.964 5.05023 246.274 6.27023 247.644 7.56023C248.304 6.99023 248.894 6.50023 249.544 5.94023L249.554 5.93023ZM236.734 2.51023C236.604 2.60023 236.464 2.69023 236.334 2.78023C236.004 5.63023 236.404 6.13023 238.684 5.20023C238.004 4.26023 237.374 3.39023 236.734 2.51023ZM233.554 2.58023C233.424 2.40023 233.294 2.22023 233.174 2.04023C232.404 2.48023 231.594 2.87023 230.884 3.39023C230.604 3.60023 230.544 4.11023 230.394 4.49023C230.914 4.51023 231.604 4.74023 231.924 4.49023C232.574 3.99023 233.024 3.23023 233.564 2.58023H233.554ZM233.304 5.44023C235.294 5.88023 235.654 5.32023 235.084 2.74023C233.924 3.14023 233.304 4.07023 233.304 5.44023ZM238.464 2.07023C238.334 2.20023 238.214 2.34023 238.084 2.47023C238.644 3.20023 239.134 3.99023 239.794 4.61023C240.004 4.80023 240.664 4.51023 241.114 4.43023C240.984 4.10023 240.944 3.64023 240.694 3.46023C239.994 2.94023 239.204 2.52023 238.454 2.07023H238.464ZM241.274 1.75023C241.194 1.94023 241.124 2.14023 241.044 2.33023C241.634 2.71023 242.074 3.49023 243.144 2.59023C242.524 2.31023 241.894 2.03023 241.274 1.75023ZM230.564 2.42023C230.444 2.20023 230.324 1.98023 230.214 1.77023C229.694 2.05023 229.164 2.33023 228.644 2.61023C228.764 2.81023 228.954 3.19023 228.984 3.18023C229.524 2.96023 230.044 2.69023 230.564 2.43023V2.42023Z" fill="#7C7C7C"/>
<path d="M160.474 43.4703H167.934C167.684 46.4403 166.484 48.9103 164.604 51.0903C162.524 53.5003 159.894 54.9703 156.794 55.6303C153.044 56.4303 149.314 56.5203 145.594 55.4403C140.594 54.0003 137.404 50.6803 135.814 45.8603C133.964 40.2503 133.854 34.5403 135.474 28.8603C138.034 19.9103 145.474 15.2303 154.704 16.6603C163.174 17.9703 168.124 23.6903 168.384 32.4903C168.424 33.8103 168.354 35.1403 168.444 36.4603C168.514 37.4803 168.134 37.7203 167.164 37.7103C161.314 37.6303 155.454 37.5903 149.604 37.5703C147.364 37.5703 145.124 37.6303 142.884 37.7303C142.564 37.7403 141.994 38.1403 141.994 38.3803C141.874 41.9303 142.344 45.3303 144.774 48.1603C147.644 51.5003 154.354 52.0503 157.734 49.2003C159.094 48.0503 159.734 46.4903 160.184 44.8303C160.304 44.3903 160.374 43.9503 160.474 43.4603V43.4703ZM142.084 32.7503C142.514 32.7503 142.954 32.7503 143.404 32.7503C146.054 32.7503 148.714 32.7603 151.364 32.7603C154.184 32.7603 157.004 32.7403 159.824 32.7303C160.424 32.7303 161.024 32.7803 160.954 31.8703C160.744 29.1003 160.224 26.4503 158.234 24.3303C155.784 21.7303 151.104 20.9203 147.744 22.3903C144.054 24.0103 141.794 28.5703 142.074 32.7403L142.084 32.7503Z" fill="#7C7C7C"/>
<path d="M49.9738 17.5706C52.1338 17.5706 54.2438 17.5406 56.3438 17.6106C56.5738 17.6106 56.9438 18.2006 56.9638 18.5206C57.0338 19.8606 56.9938 21.2206 56.9938 22.6606C57.2338 22.5606 57.3738 22.5406 57.4238 22.4706C61.7838 16.1106 68.7838 15.2406 75.2238 17.7106C80.1038 19.5806 82.5638 23.2906 82.6338 28.4206C82.7538 36.9106 82.6838 45.4006 82.7138 53.8906C82.7138 54.7006 82.4938 55.1106 81.5838 55.0906C79.9238 55.0406 78.2638 55.0506 76.6038 55.1106C75.7238 55.1406 75.4838 54.8406 75.4838 53.9706C75.5238 46.6806 75.5638 39.3906 75.4838 32.1006C75.4638 30.3106 75.2038 28.4606 74.7138 26.7406C74.0138 24.2806 72.1538 22.8506 69.6738 22.2606C63.2538 20.7506 57.5938 24.7206 57.3338 31.3206C57.0338 38.8006 57.1438 46.3106 57.1538 53.8006C57.1538 54.8006 56.9338 55.1306 55.9438 55.0906C54.3638 55.0306 52.7838 54.9906 51.2138 55.0906C50.0638 55.1706 49.8238 54.7206 49.8338 53.6706C49.8738 45.4306 49.8538 37.1806 49.8638 28.9406C49.8638 25.4206 49.8838 21.9006 49.8938 18.3806C49.8938 18.1406 49.9338 17.9006 49.9738 17.5506V17.5706Z" fill="#7C7C7C"/>
<path d="M36.2838 17.6016H43.3838C43.3838 18.3616 43.3838 19.0916 43.3838 19.8216C43.4038 31.1716 43.4138 42.5216 43.4438 53.8716C43.4438 54.7716 43.1838 55.1316 42.2338 55.1016C40.3338 55.0416 38.4338 55.0816 36.3738 55.0816V49.6616C35.9038 50.2716 35.6538 50.5816 35.4138 50.8916C30.7738 57.0116 20.3238 58.1316 14.9738 53.0616C12.2338 50.4616 11.0938 47.1016 11.0538 43.4416C10.9538 34.9516 11.0238 26.4616 11.0238 17.9716C11.0238 17.8916 11.0738 17.8216 11.1438 17.6616H18.1938C18.1938 18.7716 18.1938 19.7916 18.1938 20.8216C18.1938 27.3216 18.1738 33.8316 18.2138 40.3316C18.2138 41.6916 18.3938 43.0616 18.6138 44.4016C19.5538 50.1616 23.9638 51.7516 28.6038 50.7716C32.7738 49.8816 34.9338 47.0216 35.5938 43.0016C35.9738 40.6816 36.2138 38.3216 36.2538 35.9716C36.3538 30.3416 36.3038 24.7116 36.3038 19.0816C36.3038 18.6316 36.3038 18.1916 36.3038 17.6316L36.2838 17.6016Z" fill="#7C7C7C"/>
<path d="M131.874 29.7002C129.574 29.7002 127.464 29.7302 125.364 29.6602C125.094 29.6602 124.774 29.2002 124.614 28.8802C124.474 28.6102 124.534 28.2302 124.474 27.9102C123.724 24.3802 121.684 22.2502 118.624 21.8002C114.764 21.2202 111.534 22.5602 109.864 25.8002C108.984 27.4902 108.374 29.4102 108.064 31.2902C107.274 36.1202 107.334 40.9702 109.164 45.6102C110.884 49.9602 115.114 51.9802 119.474 50.6902C122.804 49.7102 124.334 47.2402 124.784 44.0302C124.954 42.7802 125.414 42.4702 126.584 42.5302C128.354 42.6202 130.144 42.5502 132.164 42.5502C132.044 43.4502 131.994 44.3402 131.804 45.2002C130.434 51.3202 125.454 55.6802 119.174 56.0602C116.874 56.2002 114.494 56.1602 112.254 55.7002C106.784 54.5802 103.214 51.0502 101.514 45.8602C99.4339 39.5002 99.4339 33.0402 101.904 26.7502C105.514 17.5402 116.654 13.5602 125.324 18.3702C129.584 20.7402 131.544 24.5902 131.884 29.7002H131.874Z" fill="#7C7C7C"/>
<path d="M182.864 17.5495H191.414V22.5195H182.874C182.874 23.1195 182.874 23.5995 182.874 24.0895C182.874 33.8995 182.854 43.7195 182.904 53.5295C182.904 54.7895 182.564 55.2195 181.294 55.1195C179.804 55.0095 178.304 55.0295 176.814 55.0895C175.874 55.1295 175.614 54.7995 175.624 53.8795C175.654 44.0695 175.644 34.2495 175.644 24.4395C175.644 23.8695 175.644 23.2995 175.644 22.5995H168.384V17.6095H175.664C175.664 16.9395 175.654 16.3795 175.664 15.8195C175.724 13.3395 175.554 10.8295 175.904 8.38951C176.564 3.78951 179.664 0.869507 184.314 0.459507C186.634 0.259507 189.004 0.579507 191.354 0.639507C192.234 0.659507 192.494 1.16951 192.514 1.91951C192.534 3.19951 192.534 4.48951 192.574 5.76951C192.594 6.53951 192.264 6.70951 191.504 6.69951C189.654 6.67951 187.764 6.61951 185.944 6.90951C183.844 7.23951 182.874 8.64951 182.874 10.7795C182.874 12.9695 182.874 15.1695 182.874 17.5595L182.864 17.5495Z" fill="#7C7C7C"/>
<path d="M88.5841 17.6289H95.6441C95.6441 18.2189 95.6441 18.7389 95.6441 19.2689C95.6441 30.6889 95.6441 42.1189 95.6741 53.5389C95.6741 54.6889 95.4141 55.1889 94.1441 55.1089C92.5741 54.9989 90.9941 55.0889 89.4141 55.1089C88.7641 55.1189 88.4341 54.9589 88.4341 54.2089C88.4541 42.1689 88.4641 30.1189 88.4741 18.0789C88.4741 17.9589 88.5341 17.8489 88.5941 17.6389L88.5841 17.6289Z" fill="#7C7C7C"/>
<path d="M233.604 54.4685C231.964 53.8585 230.654 53.0285 229.084 54.5685C227.854 55.7885 226.044 56.0285 224.304 56.0185C221.254 55.9985 218.274 55.5285 215.404 54.4885C215.034 54.3585 214.764 53.9585 214.444 53.6785C214.784 53.4185 215.104 52.9885 215.474 52.9285C221.304 51.9385 227.174 51.2785 232.984 52.8985C234.744 53.3885 236.244 53.4685 237.984 52.8585C242.314 51.3385 246.814 51.6385 251.294 52.0185C252.694 52.1385 254.084 52.3885 255.454 52.6585C256.034 52.7685 256.584 53.0985 257.424 53.4385C256.764 53.8485 256.404 54.1785 255.964 54.3285C252.844 55.4385 249.604 56.0685 246.324 55.7285C244.804 55.5685 243.384 54.5885 241.894 54.0285C241.284 53.7985 240.604 53.5685 239.974 53.6185C239.174 53.6885 238.404 54.0385 237.614 54.2585C237.514 54.4085 237.414 54.5685 237.324 54.7185C237.584 54.8185 237.904 54.8485 238.104 55.0185C240.044 56.6185 242.034 58.1785 243.884 59.8785C245.294 61.1785 245.224 61.2785 243.414 62.4685C243.044 62.0185 242.634 61.5785 242.294 61.0785C240.724 58.8085 238.584 57.1885 236.234 55.8385C235.844 55.6085 235.024 55.7785 234.574 56.0485C232.304 57.3885 230.344 59.1085 228.854 61.2985C228.464 61.8685 228.084 62.2885 227.364 61.7485C226.694 61.2585 226.504 60.7685 227.204 60.1485C229.034 58.5385 230.854 56.9085 232.674 55.2885C232.944 55.0485 233.204 54.8085 233.594 54.4585L233.604 54.4685Z" fill="#7C7C7C"/>
<path d="M92.0439 8.93155C90.9639 8.93155 89.8839 8.91155 88.8039 8.93155C88.1539 8.95155 87.8039 8.76155 87.8139 8.02155C87.8539 6.03155 87.8039 4.04155 87.8839 2.06155C87.8939 1.75155 88.4239 1.22155 88.7239 1.21155C90.9639 1.13155 93.2039 1.17155 95.4539 1.16155C96.1539 1.16155 96.3939 1.48155 96.3839 2.16155C96.3539 4.10155 96.3639 6.05155 96.3739 8.00155C96.3739 8.69155 96.0939 8.96155 95.4039 8.94155C94.2839 8.90155 93.1639 8.94155 92.0439 8.94155V8.93155Z" fill="#7C7C7C"/>
<path d="M266.074 43.9688C265.034 47.8888 260.634 51.4587 256.694 51.7887C255.914 51.8587 255.124 51.8687 254.334 51.8387C253.314 51.8087 253.224 51.2688 253.774 50.5588C254.104 50.1388 254.504 49.7687 254.924 49.4487C257.864 47.1787 261.174 45.6087 264.624 44.2787C265.024 44.1287 265.474 44.0987 266.074 43.9688Z" fill="#7C7C7C"/>
<path d="M205.724 44.2812C210.414 45.7912 214.924 47.6113 218.444 51.3913C214.184 53.5413 207.574 49.7913 205.724 44.2812Z" fill="#7C7C7C"/>
<path d="M210.964 33.9883C213.274 36.0983 215.854 44.5283 214.984 46.8983C210.974 45.8883 208.824 39.0883 210.964 33.9883Z" fill="#7C7C7C"/>
<path d="M260.554 33.8789C262.784 38.6689 260.674 45.4989 256.634 46.5889C255.704 44.3089 258.414 35.4689 260.554 33.8789Z" fill="#7C7C7C"/>
<path d="M255.974 41.7995C256.024 41.9495 256.144 42.0995 256.124 42.2395C255.594 46.5995 253.794 50.7095 248.624 51.0495C248.164 51.0795 247.694 50.8795 247.234 50.7795C247.364 50.2895 247.354 49.6595 247.664 49.3395C250.254 46.6995 252.914 44.1195 255.544 41.5195C255.684 41.6095 255.834 41.7095 255.974 41.7995Z" fill="#7C7C7C"/>
<path d="M215.454 42.0898C217.434 42.5698 222.954 47.8098 224.544 50.6798C224.084 50.8298 223.654 51.0698 223.224 51.0998C220.284 51.2898 217.354 49.2798 216.444 46.4898C216.134 45.5498 215.814 44.6098 215.574 43.6598C215.454 43.1698 215.494 42.6498 215.464 42.0898H215.454Z" fill="#7C7C7C"/>
<path d="M200.854 33.4492C201.284 33.5492 201.564 33.5392 201.714 33.6692C204.994 36.4692 208.024 39.4992 210.134 43.3192C210.294 43.6092 210.484 43.8992 210.564 44.2092C210.624 44.4592 210.544 44.7492 210.524 45.0192C210.254 44.9992 209.954 45.0492 209.734 44.9392C205.574 42.8692 202.614 39.7792 201.334 35.2292C201.194 34.7192 201.054 34.2092 200.854 33.4492Z" fill="#7C7C7C"/>
<path d="M270.664 33.0413C270.104 35.9613 269.284 38.4713 267.414 40.3413C265.744 42.0213 263.704 43.3313 261.794 44.7713C261.614 44.9113 261.274 44.8312 261.004 44.8512C261.004 44.5112 260.894 44.0913 261.054 43.8313C261.934 42.3813 262.724 40.8413 263.824 39.5813C265.674 37.4713 267.734 35.5513 269.724 33.5613C269.884 33.4013 270.134 33.3212 270.654 33.0312L270.664 33.0413Z" fill="#7C7C7C"/>
<path d="M205.374 35.1714C202.024 34.0914 199.284 27.7314 199.964 22.4414C200.384 22.7314 200.834 22.8814 201.054 23.2014C203.474 26.7314 204.774 30.7014 205.514 34.8814C205.524 34.9414 205.444 35.0214 205.374 35.1714Z" fill="#7C7C7C"/>
<path d="M271.474 22.3516C272.314 27.1616 270.114 33.0916 266.314 35.0316C265.574 32.8516 269.264 23.6516 271.474 22.3516Z" fill="#7C7C7C"/>
<path d="M209.494 26.6406C210.484 30.8706 209.854 34.9206 208.734 39.1806C207.064 38.1506 206.794 36.6506 206.714 35.1706C206.534 31.9906 207.084 29.0106 209.494 26.6406Z" fill="#7C7C7C"/>
<path d="M262.664 26.1484C263.374 27.9584 264.334 29.7184 264.724 31.5984C265.174 33.7684 265.184 36.0584 263.844 38.0684C263.664 38.3484 263.364 38.5484 263.114 38.7784C262.894 38.5084 262.524 38.2784 262.464 37.9784C261.804 34.4384 261.324 30.8784 261.834 27.2584C261.884 26.8984 262.074 26.5584 262.194 26.2084C262.354 26.1884 262.504 26.1684 262.664 26.1484Z" fill="#7C7C7C"/>
<path d="M202.964 12.3381C204.804 16.5481 204.354 20.9781 204.094 25.3781C203.944 25.4581 203.804 25.5381 203.654 25.6181C203.274 25.1781 202.794 24.7981 202.524 24.2981C201.024 21.5181 201.274 18.5481 201.684 15.5781C201.834 14.4981 202.134 13.4381 202.364 12.3581C202.564 12.3581 202.764 12.3381 202.954 12.3281L202.964 12.3381Z" fill="#7C7C7C"/>
<path d="M269.034 12.1919C269.154 12.4619 269.354 12.7219 269.384 13.0019C269.624 15.6219 269.994 18.2519 269.984 20.8819C269.984 22.0819 269.264 23.3019 268.784 24.4719C268.664 24.7819 268.214 24.9519 267.914 25.1919C267.744 24.8819 267.434 24.5719 267.434 24.2519C267.424 21.8219 267.364 19.3819 267.534 16.9519C267.644 15.3519 268.114 13.7719 268.424 12.1719C268.624 12.1719 268.824 12.1719 269.034 12.1719V12.1919Z" fill="#7C7C7C"/>
<path d="M205.734 30.5802C204.394 26.3302 205.364 22.3002 209.254 18.9102C209.364 19.4802 209.554 19.9302 209.524 20.3602C209.234 23.8002 207.824 26.8602 206.154 29.8202C206.014 30.0702 205.874 30.3302 205.734 30.5802Z" fill="#7C7C7C"/>
<path d="M262.364 18.7188C265.844 21.7587 266.964 25.5388 266.504 30.1488C266.084 29.8888 265.614 29.7587 265.434 29.4587C263.604 26.4288 262.224 23.2288 261.994 19.6388C261.984 19.4788 262.004 19.3088 262.054 19.1488C262.084 19.0388 262.194 18.9488 262.364 18.7188Z" fill="#7C7C7C"/>
<path d="M260.164 11.1484C263.924 12.6884 267.184 18.2584 265.954 20.9484C263.524 19.5984 259.514 12.9184 260.164 11.1484Z" fill="#7C7C7C"/>
<path d="M211.694 11.5391C210.744 15.5291 208.454 18.5691 205.584 21.4191C204.424 18.0691 208.274 11.8991 211.694 11.5391Z" fill="#7C7C7C"/>
<path d="M204.664 15.6297C203.804 12.7397 206.674 7.08969 209.464 6.17969C209.934 8.96969 206.834 15.0797 204.664 15.6297Z" fill="#7C7C7C"/>
<path d="M266.854 15.5109C264.354 14.1409 261.484 8.23094 262.154 5.96094C264.904 7.04094 267.694 12.4209 266.854 15.5109Z" fill="#7C7C7C"/>
</svg>
