<svg width="117" height="63" viewBox="0 0 117 63" fill="none" xmlns="http://www.w3.org/2000/svg">
<path d="M1 45L9 53L0.999999 61" stroke="white" stroke-width="1.6" stroke-linecap="round" stroke-linejoin="round"/>
<path d="M49.9738 17.5706C52.1338 17.5706 54.2438 17.5406 56.3438 17.6106C56.5738 17.6106 56.9438 18.2006 56.9638 18.5206C57.0338 19.8606 56.9938 21.2206 56.9938 22.6606C57.2338 22.5606 57.3738 22.5406 57.4238 22.4706C61.7838 16.1106 68.7838 15.2406 75.2238 17.7106C80.1038 19.5806 82.5638 23.2906 82.6338 28.4206C82.7538 36.9106 82.6838 45.4006 82.7138 53.8906C82.7138 54.7006 82.4938 55.1106 81.5838 55.0906C79.9238 55.0406 78.2638 55.0506 76.6038 55.1106C75.7238 55.1406 75.4838 54.8406 75.4838 53.9706C75.5238 46.6806 75.5638 39.3906 75.4838 32.1006C75.4638 30.3106 75.2038 28.4606 74.7138 26.7406C74.0138 24.2806 72.1538 22.8506 69.6738 22.2606C63.2538 20.7506 57.5938 24.7206 57.3338 31.3206C57.0338 38.8006 57.1438 46.3106 57.1538 53.8006C57.1538 54.8006 56.9338 55.1306 55.9438 55.0906C54.3638 55.0306 52.7838 54.9906 51.2138 55.0906C50.0638 55.1706 49.8238 54.7206 49.8338 53.6706C49.8738 45.4306 49.8538 37.1806 49.8638 28.9406C49.8638 25.4206 49.8838 21.9006 49.8938 18.3806C49.8938 18.1406 49.9338 17.9006 49.9738 17.5506V17.5706Z" fill="#7C7C7C"/>
<path d="M36.2838 17.6016H43.3838C43.3838 18.3616 43.3838 19.0916 43.3838 19.8216C43.4038 31.1716 43.4138 42.5216 43.4438 53.8716C43.4438 54.7716 43.1838 55.1316 42.2338 55.1016C40.3338 55.0416 38.4338 55.0816 36.3738 55.0816V49.6616C35.9038 50.2716 35.6538 50.5816 35.4138 50.8916C30.7738 57.0116 20.3238 58.1316 14.9738 53.0616C12.2338 50.4616 11.0938 47.1016 11.0538 43.4416C10.9538 34.9516 11.0238 26.4616 11.0238 17.9716C11.0238 17.8916 11.0738 17.8216 11.1438 17.6616H18.1938C18.1938 18.7716 18.1938 19.7916 18.1938 20.8216C18.1938 27.3216 18.1738 33.8316 18.2138 40.3316C18.2138 41.6916 18.3938 43.0616 18.6138 44.4016C19.5538 50.1616 23.9638 51.7516 28.6038 50.7716C32.7738 49.8816 34.9338 47.0216 35.5938 43.0016C35.9738 40.6816 36.2138 38.3216 36.2538 35.9716C36.3538 30.3416 36.3038 24.7116 36.3038 19.0816C36.3038 18.6316 36.3038 18.1916 36.3038 17.6316L36.2838 17.6016Z" fill="#7C7C7C"/>
<path d="M131.874 29.7002C129.574 29.7002 127.464 29.7302 125.364 29.6602C125.094 29.6602 124.774 29.2002 124.614 28.8802C124.474 28.6102 124.534 28.2302 124.474 27.9102C123.724 24.3802 121.684 22.2502 118.624 21.8002C114.764 21.2202 111.534 22.5602 109.864 25.8002C108.984 27.4902 108.374 29.4102 108.064 31.2902C107.274 36.1202 107.334 40.9702 109.164 45.6102C110.884 49.9602 115.114 51.9802 119.474 50.6902C122.804 49.7102 124.334 47.2402 124.784 44.0302C124.954 42.7802 125.414 42.4702 126.584 42.5302C128.354 42.6202 130.144 42.5502 132.164 42.5502C132.044 43.4502 131.994 44.3402 131.804 45.2002C130.434 51.3202 125.454 55.6802 119.174 56.0602C116.874 56.2002 114.494 56.1602 112.254 55.7002C106.784 54.5802 103.214 51.0502 101.514 45.8602C99.4339 39.5002 99.4339 33.0402 101.904 26.7502C105.514 17.5402 116.654 13.5602 125.324 18.3702C129.584 20.7402 131.544 24.5902 131.884 29.7002H131.874Z" fill="#7C7C7C"/>
<path d="M88.5841 17.6289H95.6441C95.6441 18.2189 95.6441 18.7389 95.6441 19.2689C95.6441 30.6889 95.6441 42.1189 95.6741 53.5389C95.6741 54.6889 95.4141 55.1889 94.1441 55.1089C92.5741 54.9989 90.9941 55.0889 89.4141 55.1089C88.7641 55.1189 88.4341 54.9589 88.4341 54.2089C88.4541 42.1689 88.4641 30.1189 88.4741 18.0789C88.4741 17.9589 88.5341 17.8489 88.5941 17.6389L88.5841 17.6289Z" fill="#7C7C7C"/>
<path d="M92.0439 8.93155C90.9639 8.93155 89.8839 8.91155 88.8039 8.93155C88.1539 8.95155 87.8039 8.76155 87.8139 8.02155C87.8539 6.03155 87.8039 4.04155 87.8839 2.06155C87.8939 1.75155 88.4239 1.22155 88.7239 1.21155C90.9639 1.13155 93.2039 1.17155 95.4539 1.16155C96.1539 1.16155 96.3939 1.48155 96.3839 2.16155C96.3539 4.10155 96.3639 6.05155 96.3739 8.00155C96.3739 8.69155 96.0939 8.96155 95.4039 8.94155C94.2839 8.90155 93.1639 8.94155 92.0439 8.94155V8.93155Z" fill="#7C7C7C"/>
</svg>
