<svg width="50" height="50" viewBox="0 0 50 50" fill="none" xmlns="http://www.w3.org/2000/svg">
<circle cx="25" cy="25" r="25" fill="#EDEDED"/>
<path d="M33.0004 33.0004L28.9504 28.9504M28.9504 28.9504C29.6004 28.3003 30.116 27.5286 30.4678 26.6793C30.8196 25.83 31.0007 24.9197 31.0007 24.0004C31.0007 23.0811 30.8196 22.1708 30.4678 21.3214C30.116 20.4721 29.6004 19.7004 28.9504 19.0504C28.3003 18.4003 27.5286 17.8847 26.6793 17.5329C25.83 17.1811 24.9197 17 24.0004 17C23.0811 17 22.1708 17.1811 21.3214 17.5329C20.4721 17.8847 19.7004 18.4003 19.0504 19.0504C17.7375 20.3632 17 22.1437 17 24.0004C17 25.857 17.7375 27.6375 19.0504 28.9504C20.3632 30.2632 22.1437 31.0007 24.0004 31.0007C25.857 31.0007 27.6375 30.2632 28.9504 28.9504Z" stroke="#6E6E6E" stroke-width="2" stroke-linecap="round" stroke-linejoin="round"/>
</svg>
