<svg width="145" height="110" viewBox="0 0 145 110" fill="none" xmlns="http://www.w3.org/2000/svg">
<path d="M68.4049 14.601C68.4049 14.601 45.1392 67.56 0 65.8537V0.453125H73.236L68.4049 14.601Z" fill="#1D6E65"/>
<path d="M143.771 109.994C143.771 109.994 101.459 51.5808 0 60.4474V109.994H143.771Z" fill="#1D6E65"/>
<path d="M72.8085 0.00527001L92.1027 69.9912C91.4021 71.081 90.6796 72.5763 90.4552 72.9974L89.8531 72.4025C71.5113 39.5234 72.5403 3.84336 72.699 0H72.8085V0.00527001Z" fill="white"/>
<path d="M68.887 64.888L46.6836 60.8797C50.9126 55.5336 55.7227 43.6713 55.9354 43.2411C56.1482 42.8109 68.7988 19.7265 70.205 18.6562V43.2411L68.887 64.888Z" fill="#1C4C4A"/>
<path d="M69.3939 64.8814L46.6836 61.198L64.0658 55.1484L69.3939 64.8814Z" fill="#286262"/>
<path d="M89.6705 72.9974L88.8477 72.671C83.1503 69.312 75.5884 67.0008 67.6308 65.1633L66.8339 31.9156L48.2678 61.678C34.7482 60.0459 23.1554 59.5299 20.7285 59.4878V59.1877C25.1344 56.3499 60.3293 33.1266 72.7605 0C72.6199 3.85389 71.8439 40.113 89.6705 72.9922V72.9974Z" fill="#E6E7E8"/>
<path d="M100.844 59.2198L98.4316 60.0215L91.7415 44.277L82.3711 18.6562L109.137 52.0104L100.844 59.2146V59.2198Z" fill="#AA8B6A"/>
<path d="M100.511 52.7266L99.4023 60.0263L109.135 52.7266H100.511Z" fill="#BCA17B"/>
<path d="M120.492 44.9443V45.488C116.546 47.3594 112.788 49.926 109.214 52.4508L89.1721 29.5552L101.2 59.1051C97.7158 62.3931 94.5356 65.7229 91.9221 69.7531L73.4492 0H73.6329C93.1186 24.3592 109.456 37.7463 120.492 44.9443Z" fill="white"/>
<path d="M144.825 0.367188V35.1637C135.304 37.383 128.197 40.9946 120.419 45.1243C120.251 45.0144 120.084 44.9045 119.911 44.7945C119.911 44.7945 119.911 44.7893 119.906 44.7893C119.691 44.648 119.471 44.5014 119.251 44.3549C119.178 44.3078 119.105 44.2554 119.032 44.2083C118.937 44.1455 118.838 44.0775 118.744 44.0146C118.199 43.6483 117.644 43.2662 117.074 42.8684C117.063 42.8631 117.058 42.8579 117.053 42.8527C116.844 42.7061 116.629 42.5543 116.414 42.4025C116.383 42.3816 116.362 42.3711 116.357 42.3659C105.527 34.7031 90.762 21.7905 73.5469 0.367188H144.825Z" fill="#BCA17B"/>
<path d="M144.826 34.4531V109.987H124.748C124.748 109.987 124.115 107.825 122.482 104.454C121.424 102.267 119.938 99.5606 117.923 96.6085C116.572 94.6091 114.971 92.4945 113.092 90.3432C111.977 89.0609 110.762 87.768 109.449 86.4857C108.878 85.9204 108.292 85.3656 107.679 84.8108C107.507 84.6485 107.329 84.4915 107.151 84.3345C102.341 80.0425 96.3214 75.9127 88.8418 72.5838C88.8418 72.5838 88.8575 72.5629 88.8784 72.5158C88.9412 72.4163 89.0669 72.207 89.2605 71.9034C89.2815 71.8825 89.2972 71.8563 89.3076 71.8301C89.3547 71.7621 89.4019 71.694 89.449 71.6155C89.8572 71.0031 90.4644 70.1133 91.2861 69.0141C91.3437 68.9304 91.4065 68.8466 91.4746 68.7629C93.2489 66.4128 95.9602 63.1676 99.6817 59.5665H99.6869C99.8858 59.3676 100.09 59.174 100.299 58.9803C100.367 58.9123 100.441 58.8442 100.514 58.7762C102.639 56.7767 105.078 54.6778 107.842 52.5789C107.962 52.49 108.082 52.3958 108.203 52.3068H108.208C108.208 52.3068 108.213 52.3015 108.219 52.2963C108.245 52.2806 108.297 52.2387 108.381 52.1811C108.512 52.0765 108.643 51.977 108.779 51.8776C111.903 49.5641 115.431 47.2558 119.373 45.0784C119.55 44.979 119.728 44.8848 119.906 44.7853C119.959 44.7539 120.011 44.7277 120.069 44.7016C120.079 44.6911 120.095 44.6859 120.105 44.6806C120.21 44.6231 120.315 44.5655 120.419 44.5079C123.911 42.6341 127.271 40.8702 130.772 39.2895C130.783 39.2895 130.788 39.279 130.793 39.279C130.919 39.2214 131.045 39.1586 131.176 39.1063C135.352 37.2429 139.744 35.6465 144.826 34.4531Z" fill="#BCA17B"/>
<path d="M48.3051 62.4574C48.3051 62.4574 48.197 62.4381 47.9911 62.406C45.4432 61.9949 27.5256 59.2837 0.451172 59.5343C0.451172 59.5343 21.7556 59.0782 25.2248 55.9688L48.3051 62.4574Z" fill="#E6E7E8"/>
<path d="M34.5166 50.2891C34.5166 50.2891 25.1826 58.3449 0.451172 59.211L31.431 58.7733L34.5115 50.2891H34.5166Z" fill="#E6E7E8"/>
<path d="M108.486 52.7183C108.486 52.7183 123.641 41.3817 131.035 38.9299C131.035 38.9299 120.486 41.2949 107.514 51.5196L108.481 52.7183H108.486Z" fill="white"/>
<path d="M6.97203 84.6686V84.229H13.3838V93.5091C15.2734 88.0708 17.299 83.7422 21.3188 83.7422C24.5273 83.7422 26.286 86.4849 26.286 90.9915V93.5562C28.1808 88.0708 30.2116 83.7422 34.2733 83.7422C37.4766 83.7422 39.1881 86.4849 39.1881 90.9915V102.925C39.1881 104.03 41.2242 104.119 41.9413 104.119V104.564H32.7711V104.119C33.5405 104.119 35.5242 104.03 35.5242 102.983V91.5201C35.5242 87.584 34.2576 84.9774 32.4989 84.9774C29.8871 84.9774 27.4898 90.8554 26.2703 94.9642V102.92C26.2703 104.024 28.2593 104.113 29.0234 104.113V104.558H19.8637V104.113C20.586 104.113 22.6169 104.024 22.6169 102.978V91.5149C22.6169 87.5788 21.3554 84.9722 19.5915 84.9722C16.9797 84.9722 14.6296 90.8083 13.3681 94.9171V102.496C13.3681 103.601 14.4987 104.129 16.0794 104.129V104.574H6.9668V104.129C8.54751 104.129 9.71995 103.689 9.71995 102.669V87.1339C9.73042 85.4171 8.55797 84.6634 6.97203 84.6634V84.6686Z" fill="white"/>
<path d="M64.3268 104.116C62.8874 104.116 61.8877 103.76 61.8877 103.273V94.349C61.8877 88.0628 58.899 83.7812 53.0891 83.7812C49.6189 83.7812 46.1853 85.3305 44.4214 88.2512L46.358 92.4019C48.258 87.5027 49.645 84.2261 53.131 84.2261C57.0566 84.2261 58.0039 88.2931 58.1871 91.8784C49.7497 92.7159 43.3379 94.2181 43.3379 99.4784C43.3379 103.545 47.4467 105 50.7337 105C54.3924 105 56.6797 103.184 58.229 100.269V104.556H64.5937V104.116H64.3215H64.3268ZM58.2342 99.4784C56.9676 102.572 54.2144 104.556 51.3304 104.556C48.0381 104.556 47.0018 101.902 47.0018 99.782C47.0018 94.8305 52.6861 92.8468 58.1924 92.3129C58.1924 92.7944 58.2342 93.2864 58.2342 93.7261V99.4732V99.4784Z" fill="white"/>
<path d="M74.7986 84.4711C72.0873 84.4711 70.1978 85.989 70.1978 87.8262C70.1978 92.7777 84.2305 93.0865 84.2305 99.5716C84.2305 102.927 80.441 105.23 75.568 105.23C71.4173 105.23 67.6278 103.544 66 100.765L67.9 96.5986C69.8837 101.639 72.773 104.774 76.5154 104.774C79.0906 104.774 80.9382 103.256 80.9382 101.194C80.9382 95.5832 66.9055 95.981 66.9055 89.3493C66.9055 86.2088 69.9989 84 74.8405 84C78.9021 84 82.1054 85.5441 83.7385 88.4647L81.8437 92.6311C80.0851 87.7372 78.7661 84.4658 74.7986 84.4658V84.4711Z" fill="white"/>
<path d="M98.1669 83.767C93.8802 83.767 90.9438 86.9912 89.8656 91.5868V76.0938H83.459V76.5334L83.7207 76.5491C84.0504 76.5334 84.3854 76.5858 84.689 76.7061C84.9978 76.8265 85.2805 76.9992 85.516 77.2295C85.7515 77.4599 85.9347 77.732 86.0499 78.0356C86.1703 78.3392 86.2226 78.6637 86.2121 78.983V104.541L89.8656 104.829V99.5008C90.949 103.128 93.8854 104.986 97.5807 104.986C103.087 104.986 106.835 100.699 106.835 94.3766C106.835 88.0538 103.092 83.7722 98.1721 83.7722L98.1669 83.767ZM96.7275 104.096C93.1526 104.096 89.8656 101.317 89.8656 96.1405V95.7008C89.8656 89.5559 92.8857 84.6516 96.9055 84.6516C100.517 84.6516 103.176 88.619 103.176 94.6854C103.176 100.312 100.915 104.096 96.7275 104.096Z" fill="white"/>
<path d="M116.46 104.111C116.13 104.126 115.8 104.074 115.497 103.954C115.188 103.839 114.905 103.661 114.675 103.43C114.445 103.2 114.267 102.928 114.157 102.624C114.047 102.321 113.995 101.996 114.021 101.677V84.2211H107.604V84.6608H107.881C108.08 84.6503 108.284 84.666 108.483 84.7078C108.614 84.734 108.734 84.7707 108.855 84.8125C109.158 84.9329 109.446 85.1056 109.682 85.3359C109.912 85.561 110.095 85.8384 110.21 86.142C110.242 86.231 110.273 86.3252 110.294 86.4194C110.352 86.6393 110.372 86.8643 110.362 87.0894V101.677C110.378 101.996 110.325 102.326 110.205 102.624C110.085 102.923 109.907 103.205 109.671 103.43C109.441 103.661 109.158 103.839 108.849 103.954C108.541 104.074 108.206 104.126 107.881 104.111H107.609V104.55H116.727V104.111H116.46ZM114.418 74.8677C114.282 74.5222 114.073 74.2082 113.806 73.9465C113.539 73.6848 113.215 73.4806 112.864 73.3446C112.513 73.2085 112.136 73.1509 111.754 73.1666C111.372 73.1509 111.001 73.2085 110.645 73.3446C110.289 73.4754 109.969 73.6795 109.703 73.9465C109.436 74.2134 109.221 74.5222 109.085 74.8677C108.944 75.2184 108.886 75.5848 108.907 75.9564C108.907 77.6365 110.069 78.6991 111.749 78.6991C113.429 78.6991 114.586 77.6365 114.586 75.9564C114.607 75.5848 114.549 75.2184 114.408 74.8677H114.418Z" fill="white"/>
<path d="M139.232 104.116C137.793 104.116 136.793 103.76 136.793 103.273V94.349C136.793 88.0628 133.805 83.7812 128 83.7812C124.849 83.7812 121.745 85.0532 119.882 87.4504C119.678 87.7016 119.494 87.9685 119.332 88.246L121.274 92.3966C121.708 91.2713 122.122 90.2245 122.535 89.2928C123.922 86.1575 125.357 84.2209 128.042 84.2209C131.973 84.2209 132.915 88.2878 133.098 91.8732C130.941 92.0878 128.916 92.3443 127.094 92.7002C123.2 93.4539 120.248 94.6525 118.966 96.7881C118.5 97.5523 118.254 98.4421 118.254 99.4784C118.254 102.734 120.892 104.315 123.635 104.817C124.315 104.943 125.001 105 125.655 105C129.308 105 131.596 103.184 133.15 100.269V104.556H139.51V104.116H139.238H139.232ZM133.145 99.4784C131.878 102.572 129.12 104.556 126.241 104.556C122.949 104.556 121.907 101.902 121.907 99.782C121.907 96.4322 124.509 94.4432 127.9 93.3388C129.518 92.8154 131.318 92.4856 133.098 92.3181C133.098 92.7997 133.145 93.2917 133.145 93.7313V99.4784Z" fill="white"/>
<path d="M120.492 42.9511C120.492 42.9511 119.344 44.2261 117.248 42.1719V45.4162L120.022 43.794L120.492 42.9511Z" fill="white"/>
<path d="M116.438 42.5344C116.518 42.5849 118.716 43.8009 122.926 42.1719L117.219 45.4162L116.438 42.851V42.5344Z" fill="white"/>
</svg>
