<svg width="23" height="22" viewBox="0 0 23 22" fill="none" xmlns="http://www.w3.org/2000/svg">
<path d="M20.8482 5.67731H17.0513C17.6167 4.98756 17.8951 4.10682 17.8291 3.21743C17.7631 2.32803 17.3576 1.49808 16.6966 0.899365C16.0356 0.300653 15.1697 -0.0209702 14.2781 0.0010717C13.3865 0.0231136 12.5376 0.387133 11.907 1.01778C11.6555 1.27989 11.448 1.581 11.2928 1.90941C11.1375 1.58099 10.93 1.27987 10.6785 1.01772C10.0479 0.387093 9.19892 0.0230889 8.30735 0.00106114C7.41578 -0.0209667 6.54988 0.300668 5.88889 0.899387C5.2279 1.49811 4.82243 2.32806 4.75641 3.21745C4.6904 4.10685 4.9689 4.98757 5.53426 5.67731H1.73735C1.27674 5.67783 0.835138 5.86104 0.509435 6.18675C0.183732 6.51245 0.000522196 6.95405 0 7.41466V10.8894C0.000522196 11.35 0.183732 11.7916 0.509435 12.1173C0.835138 12.443 1.27674 12.6262 1.73735 12.6267V19.5761C1.73788 20.0367 1.92109 20.4783 2.24679 20.804C2.57249 21.1297 3.01409 21.3129 3.4747 21.3135H19.1109C19.5715 21.3129 20.0131 21.1297 20.3388 20.804C20.6645 20.4783 20.8477 20.0367 20.8482 19.5761V12.6267C21.3088 12.6262 21.7504 12.443 22.0761 12.1173C22.4018 11.7916 22.585 11.35 22.5856 10.8894V7.41466C22.585 6.95405 22.4018 6.51245 22.0761 6.18675C21.7504 5.86104 21.3088 5.67783 20.8482 5.67731ZM13.1354 2.24627C13.2967 2.08487 13.4883 1.95683 13.6991 1.86947C13.9099 1.7821 14.1358 1.73712 14.364 1.73709C14.5922 1.73706 14.8182 1.78198 15.029 1.86929C15.2398 1.9566 15.4314 2.08459 15.5928 2.24594C15.7541 2.40729 15.8821 2.59885 15.9694 2.80968C16.0567 3.0205 16.1017 3.24647 16.1016 3.47466C16.1016 3.70285 16.0566 3.9288 15.9693 4.1396C15.8819 4.35041 15.7539 4.54194 15.5925 4.70326C15.056 5.23979 13.5049 5.54108 12.1985 5.64028C12.2977 4.33376 12.599 2.78275 13.1354 2.24627ZM6.99299 2.24627C7.31908 1.92095 7.76089 1.73825 8.2215 1.73824C8.68212 1.73824 9.12393 1.92093 9.45003 2.24624C9.98659 2.78278 10.2878 4.33392 10.3871 5.64025C9.08059 5.54102 7.52955 5.23974 6.99309 4.70326C6.66777 4.37719 6.48506 3.93539 6.48504 3.47479C6.48502 3.01418 6.6677 2.57237 6.99299 2.24627ZM20.8482 10.8894H12.1615V18.7074C12.1615 18.9378 12.0699 19.1588 11.907 19.3217C11.7441 19.4846 11.5232 19.5761 11.2928 19.5761C11.0624 19.5761 10.8414 19.4846 10.6785 19.3217C10.5156 19.1588 10.4241 18.9378 10.4241 18.7074V10.8894H1.73735V7.41466H10.4241V10.8894H12.1615V7.41466H20.8482L20.8493 10.8893L20.8482 10.8894Z" fill="white"/>
</svg>
