<svg width="12" height="18" viewBox="0 0 12 18" fill="none" xmlns="http://www.w3.org/2000/svg">
<path d="M1.17223 8.75826C2.34031 10.4705 3.25531 11.6216 3.91722 12.1827C4.04376 12.3568 4.1411 12.5212 4.19951 12.6857C4.28711 12.9856 4.31631 13.2661 4.30658 13.5176C4.29685 14.3592 4.21897 16.1488 4.06323 17.5224C4.0535 17.5804 4.09243 17.6191 4.1119 17.6288C4.13137 17.6385 4.15084 17.6482 4.1703 17.6482C4.19951 17.6482 4.21897 17.6385 4.22871 17.6288H4.25791C4.27738 17.6385 4.32605 17.6578 4.37472 17.6288C4.39419 17.6191 4.42339 17.5901 4.43312 17.5418C4.58887 16.1681 4.66674 14.3689 4.67647 13.5369C4.69594 13.2467 4.64727 12.9275 4.54993 12.5696V12.5599C4.47206 12.3665 4.35525 12.1633 4.18977 11.9505L4.1703 11.9312C3.53759 11.3991 2.63233 10.2673 1.48371 8.57447C0.500578 7.1428 0.335099 6.59141 0.38377 6.36892V6.32056C0.374035 6.20447 0.403238 6.02068 0.461642 5.7595V5.73048C0.461642 5.7208 0.48111 5.60472 0.743928 4.85019C0.77313 4.75346 0.792598 4.64705 0.802332 4.53097C0.831534 4.42456 0.831535 4.11501 0.666056 2.76073C0.656322 2.65432 0.666056 2.54791 0.685524 2.45118C0.792598 2.03522 1.04568 1.69665 1.42531 1.43547C1.63946 1.27102 1.87307 1.18396 2.09696 1.18396C2.33057 1.17428 2.56419 1.242 2.81727 1.3871H2.82701C2.83674 1.39677 2.90488 1.45481 3.09956 1.8611L3.70307 3.31211C3.52786 3.25407 3.38185 3.22505 3.24557 3.23473C3.15797 3.23473 3.08009 3.25407 3.00222 3.29277H2.99249C2.88541 3.33146 2.66153 3.45722 1.95095 4.08599C1.91201 3.98926 1.87307 3.88285 1.8244 3.77644C1.78547 3.69905 1.69786 3.51526 1.53238 3.20571C1.51292 3.16701 1.49345 3.12832 1.48371 3.0993C1.44478 3.00256 1.43504 2.88648 1.43504 2.74138C1.43504 2.64465 1.35717 2.56726 1.25983 2.55759H1.2501C1.15276 2.55759 1.08462 2.63497 1.08462 2.73171C1.07489 2.9155 1.10409 3.07995 1.15276 3.22505C1.17223 3.27342 1.19169 3.31211 1.21116 3.36048C1.39611 3.7184 1.46425 3.8635 1.49345 3.91187C1.55185 4.06664 1.61026 4.20207 1.65893 4.3375C1.61999 4.36652 1.59079 4.40521 1.55185 4.43423C1.3377 4.58901 1.26957 4.60836 1.24036 4.60836C1.19169 4.61803 1.15276 4.63738 1.11382 4.67607C1.08462 4.71476 1.06515 4.76313 1.07489 4.8115C1.08462 4.90823 1.17223 4.97595 1.25983 4.97595H1.28903C1.40584 4.9566 1.56159 4.87921 1.77573 4.72444L1.7952 4.71476C1.84387 4.67607 1.88281 4.6277 1.93148 4.58901H1.94121C1.98988 4.56966 2.01909 4.54064 2.03855 4.50195V4.49227C2.84648 3.76677 3.05089 3.66036 3.09956 3.65068L3.14823 3.63134C3.17743 3.61199 3.20664 3.61199 3.25531 3.60232C3.39158 3.59264 3.60573 3.66036 3.86855 3.78611C3.98536 3.83448 4.18977 3.96023 4.48179 4.14403L4.98796 4.4826C4.85169 4.56966 4.71541 4.72444 4.5694 4.94693C4.50126 5.05333 4.47206 5.15007 4.49153 5.23713C4.51099 5.33386 4.57913 5.41125 4.68621 5.47897C4.73488 5.51766 4.79328 5.54668 4.86142 5.5757L4.88089 5.58537C4.9977 5.63374 5.23131 5.74015 5.59147 5.91427C5.75695 5.98199 5.90296 6.03035 6.01003 6.04003H6.19498C6.26312 6.04003 6.33126 6.03035 6.38966 6.02068C6.18525 6.29154 5.86402 6.43664 5.39679 6.45598H5.29945C4.32605 6.3786 3.6544 6.07872 3.29424 5.55635C3.25531 5.50799 3.1969 5.47897 3.1385 5.47897C3.09956 5.47897 3.07036 5.48864 3.04116 5.50799C2.96329 5.56603 2.93408 5.67243 2.99249 5.7595C3.09956 5.91427 3.23584 6.0497 3.38185 6.17545C3.38185 6.1948 3.37211 6.20447 3.37211 6.22382C3.36238 6.24317 3.33318 6.30121 3.21637 6.45598C3.14823 6.54305 3.01196 6.67847 2.80754 6.84292L2.78807 6.86227C2.74914 6.90096 2.7102 6.94933 2.66153 7.02672C2.61286 7.1041 2.62259 7.20084 2.69073 7.26855C2.71993 7.29757 2.75887 7.30725 2.79781 7.30725H2.80754C2.85621 7.30725 2.90488 7.27823 2.93408 7.23953V7.31692C2.93408 7.41366 3.00222 7.49104 3.08983 7.50072H3.1093C3.1969 7.50072 3.26504 7.42333 3.26504 7.33627C3.27477 7.1428 3.27477 7.08476 3.28451 7.05574C3.28451 7.00737 3.29424 6.94933 3.31371 6.87194C3.39158 6.80423 3.44025 6.73651 3.48892 6.68815C3.58626 6.56239 3.64467 6.46566 3.6836 6.38827C4.10217 6.63011 4.63754 6.77521 5.27998 6.83325H5.37732C5.37732 6.87194 5.39679 6.91064 5.43573 6.93966C5.78615 7.24921 6.08791 7.50072 6.34099 7.70386C6.4286 7.78125 6.67195 7.94569 7.07104 8.1972C7.12945 8.2359 7.18785 8.28427 7.24625 8.34231C7.41173 8.50675 7.61615 8.81631 7.84976 9.25161C7.87897 9.30965 7.9471 9.34834 8.01524 9.34834H8.02498C8.04444 9.34834 8.07365 9.33867 8.09311 9.329C8.14178 9.30965 8.17099 9.27096 8.19045 9.22259C8.20992 9.17422 8.20019 9.12586 8.18072 9.08716C7.92764 8.61316 7.70375 8.28427 7.51881 8.10047L7.50907 8.0908C7.4312 8.01341 7.35333 7.95537 7.27546 7.907C6.79849 7.60712 6.63301 7.49104 6.58434 7.44268C6.37019 7.26855 6.11711 7.05574 5.80562 6.79455C6.29232 6.69782 6.63301 6.44631 6.83743 6.04003C6.90556 6.0497 6.96397 6.05937 7.02237 6.05937H7.05157C7.27546 6.0497 7.45067 5.95296 7.58695 5.77884C7.59668 5.76917 7.60641 5.7595 7.61615 5.74982C7.62588 5.73048 7.64535 5.71113 7.67455 5.66276L7.73296 5.5757H7.71349C7.72322 5.54668 7.73295 5.51766 7.75242 5.48864C7.77189 5.51766 7.79136 5.54668 7.81083 5.56603C7.98604 5.74982 8.23912 5.84656 8.55061 5.8659H8.61875C8.87184 5.85623 9.06652 5.76917 9.21253 5.60472C9.32933 5.47897 9.42667 5.31452 9.51428 5.11137C9.55322 5.01464 9.59215 4.91791 9.63109 4.80182C9.69923 4.80182 9.76737 4.8115 9.85497 4.8115C10.0107 4.83085 10.2054 4.85019 10.2833 4.86954C10.3903 4.88889 10.5558 4.9566 10.7602 5.06301C10.7894 5.07268 10.8186 5.08235 10.8478 5.08235H10.8576C10.9257 5.08235 10.9841 5.04366 11.0231 4.97595C11.0717 4.87921 11.0328 4.7728 10.9354 4.72444C10.731 4.61803 10.5656 4.55031 10.4293 4.51162C10.439 4.49227 10.4487 4.46325 10.4487 4.44391C10.4585 4.39554 10.439 4.34717 10.4098 4.30848C10.3806 4.26978 10.3417 4.25044 10.293 4.24076C10.2249 4.23109 10.1567 4.23109 10.0983 4.22142C10.0107 4.22142 9.92311 4.21174 9.8355 4.22142H9.82577C9.87444 4.07632 9.92311 3.91187 9.97178 3.74742V3.73775C10.0399 3.39917 10.0594 2.86714 10.0497 2.17065C10.0497 2.07391 9.96205 1.99653 9.86471 1.99653H9.85497C9.7479 1.99653 9.67003 2.08359 9.67976 2.18032C9.69923 2.85746 9.67002 3.36048 9.61162 3.67003C9.52401 3.96023 9.43641 4.22142 9.35854 4.45358C9.30987 4.49227 9.28066 4.55031 9.28066 4.60836C9.28066 4.6277 9.28066 4.63738 9.2904 4.65672C9.24173 4.7728 9.20279 4.88889 9.16386 4.98562C9.09572 5.15007 9.01785 5.27582 8.93997 5.37256L8.93024 5.38223C8.85237 5.46929 8.74529 5.51766 8.59928 5.52733H8.56035C8.3462 5.51766 8.19045 5.45962 8.07365 5.34354C8.01524 5.2855 7.9471 5.12105 8.01524 4.64705C8.09311 4.40521 8.17099 4.10534 8.27806 3.73775C8.38513 3.3895 8.42407 3.0606 8.38513 2.78007C8.38513 2.63497 8.27806 2.18032 8.08338 1.42579C8.05418 1.30004 8.01524 1.17428 7.98604 1.06787C8.00551 0.845385 8.13205 0.738977 8.39487 0.729303H8.42407C8.67716 0.71963 9.01785 0.787344 9.44614 0.922772C10.1373 1.97718 10.7018 3.10897 11.1301 4.29881C11.4124 6.09807 11.5487 7.67484 11.539 8.97108C11.5195 9.44508 11.4806 9.83202 11.4124 10.1222C11.4027 10.1416 11.4027 10.1609 11.4027 10.1706C11.3929 10.2383 11.3053 10.4995 10.877 11.4958L10.8673 11.5152C10.8089 11.6796 10.77 11.8731 10.7505 12.1246C10.731 12.3084 10.7213 12.5212 10.731 12.7631C10.77 14.1947 10.7992 16.3132 10.7992 17.5708C10.7992 17.6288 10.8284 17.6578 10.8478 17.6675C10.8673 17.6772 10.8868 17.6869 10.9062 17.6869C10.9354 17.6869 10.9549 17.6772 10.9647 17.6675C10.9647 17.6675 10.9744 17.6675 10.9744 17.6578C10.9744 17.6578 10.9841 17.6578 10.9841 17.6675C11.0036 17.6772 11.0523 17.6965 11.1009 17.6675C11.1204 17.6578 11.1496 17.6288 11.1496 17.5708C11.1496 16.3229 11.1301 14.2141 11.0815 12.7534C11.0815 12.5309 11.0815 12.3278 11.1009 12.1536C11.1204 11.9408 11.1593 11.757 11.208 11.6216C11.6655 10.5382 11.7434 10.2867 11.7531 10.1996C11.8212 9.89006 11.8602 9.48377 11.8796 8.98075C11.8991 7.64582 11.7531 6.0497 11.4611 4.22142C11.4611 4.21174 11.4611 4.20207 11.4514 4.1924C11.0133 2.96387 10.4195 1.78371 9.68949 0.680936C9.67003 0.651916 9.63109 0.622896 9.59215 0.613222C9.08598 0.448774 8.69662 0.371386 8.38513 0.381059H8.3462C8.08338 0.400406 7.8887 0.477794 7.76216 0.622896C7.56748 0.274651 7.32413 0.0715091 7.03211 0.0231418H7.02237C6.79849 0.00379494 6.59407 -0.00587851 6.41886 0.00379494C5.88349 0.0231418 5.52333 0.15857 5.32865 0.390733C5.15344 0.245631 4.91009 0.177917 4.5986 0.18759C4.35525 0.197264 4.07296 0.255305 3.75174 0.352039H3.74201C3.27477 0.526161 3.01196 0.777671 2.94382 1.08722C2.6518 0.922772 2.35004 0.845385 2.06776 0.855058C1.766 0.864732 1.47398 0.980813 1.19169 1.18396C0.743928 1.49351 0.442174 1.90946 0.315631 2.41248C0.286429 2.54791 0.276695 2.68334 0.286429 2.83811C0.451908 4.16338 0.442174 4.42456 0.43244 4.4826C0.422706 4.50195 0.422706 4.51162 0.422706 4.53097C0.412972 4.6277 0.403238 4.71476 0.374035 4.79215C0.130685 5.50799 0.0917489 5.67243 0.0820148 5.73048C0.0236107 6.01101 -0.00559134 6.22382 0.00414268 6.36892C-0.0445274 6.74619 0.335099 7.54908 1.17223 8.75826ZM3.30398 1.35808C3.27477 1.242 3.17743 0.893752 3.85881 0.632569C4.15084 0.545508 4.40392 0.487467 4.60833 0.487467C4.88089 0.477794 5.06583 0.545508 5.16317 0.69061C5.16317 0.729303 5.17291 0.767997 5.19238 0.797018C5.20211 0.816364 5.22158 0.826038 5.24105 0.845385C5.42599 1.25167 5.65961 2.13195 5.93216 3.46689C5.96136 3.60232 5.9711 3.72807 5.96136 3.82481L5.89323 4.63738L4.66674 3.81513C4.45259 3.6797 4.28711 3.5733 4.16057 3.50558L3.41105 1.70632L3.40132 1.69665C3.36238 1.60959 3.32344 1.54187 3.29424 1.47416C3.31371 1.44514 3.32344 1.40644 3.30398 1.35808ZM6.98344 0.313345C7.23652 0.371386 7.44093 0.632569 7.60641 1.10657V1.14526C7.60641 1.18396 7.62588 1.22265 7.65508 1.25167C7.67455 1.31938 7.69402 1.3871 7.71349 1.46449C7.90817 2.19967 8.00551 2.6253 8.00551 2.73171V2.75105C8.03471 3.00256 8.00551 3.28309 7.90817 3.59264C7.8595 3.76677 7.81083 3.92154 7.77189 4.06664C7.74269 4.09566 7.71349 4.12468 7.70375 4.16338C7.67455 4.28913 7.65508 4.40521 7.63562 4.51162C7.4312 5.21778 7.34359 5.41125 7.31439 5.46929C7.29492 5.47897 7.28519 5.49831 7.27546 5.50799C7.20732 5.60472 7.11971 5.65309 7.0029 5.66276H6.9153V5.56603C6.89583 5.41125 6.81796 5.27582 6.67195 5.15007L6.25338 4.86954L6.34099 3.84415C6.35072 3.70873 6.33126 3.56362 6.30205 3.39917C6.01003 1.99652 5.76668 1.09689 5.56227 0.661589C5.64988 0.4391 5.9419 0.313345 6.4286 0.303672C6.58434 0.293998 6.76929 0.293998 6.98344 0.313345ZM5.32865 4.69542L6.43833 5.44027C6.487 5.47897 6.5162 5.52733 6.53567 5.56603C6.4578 5.64341 6.34099 5.68211 6.17551 5.68211H6.04897C5.98083 5.67243 5.87376 5.64341 5.74722 5.58537C5.38706 5.41125 5.15344 5.30484 5.03663 5.25648C4.98796 5.23713 4.94903 5.20811 4.91009 5.17909L4.90036 5.16942C4.88089 5.15974 4.87115 5.15007 4.87115 5.15007C4.87115 5.15007 4.87115 5.1404 4.89062 5.1017C5.1145 4.74378 5.22158 4.72444 5.24105 4.72444C5.27025 4.72444 5.29945 4.71476 5.32865 4.69542Z" fill="#242424"/>
<path d="M7.74175 11.9994C7.80989 11.7866 7.84882 11.6609 7.86829 11.6222L7.87803 11.6028C7.88776 11.5932 7.89749 11.5738 7.90723 11.5545C8.0143 11.3997 8.08244 11.2933 8.12138 11.2256C8.17978 11.0998 8.22845 10.9837 8.25765 10.887C8.34526 10.5968 8.38419 10.3163 8.37446 10.0647C8.37446 10.0164 8.35499 9.96801 8.31606 9.93899C8.27712 9.90997 8.23818 9.89062 8.18951 9.89062C8.14084 9.89062 8.10191 9.90997 8.07271 9.94867C8.0435 9.98736 8.02404 10.0357 8.02404 10.0841C8.03377 10.2969 8.00457 10.5387 7.9267 10.7806C7.90723 10.858 7.86829 10.9547 7.80989 11.0611C7.79042 11.1095 7.72228 11.1965 7.63467 11.332L7.62494 11.3416C7.59574 11.39 7.57627 11.419 7.57627 11.4384C7.5568 11.4674 7.5276 11.5448 7.42053 11.8834C7.39132 11.9801 7.43999 12.0768 7.53733 12.1155C7.5568 12.1252 7.57627 12.1252 7.59574 12.1252C7.65414 12.1252 7.72228 12.0672 7.74175 11.9994Z" fill="#242424"/>
<path d="M7.58758 13.0232C7.58758 12.9651 7.57785 12.9168 7.57785 12.8781C7.56811 12.7717 7.48051 12.6943 7.38317 12.7039H7.3637C7.26636 12.7136 7.19822 12.8103 7.20796 12.9168C7.20796 12.9361 7.20796 12.9651 7.21769 12.9941L7.22742 13.1973C7.23716 13.3037 7.31503 13.3811 7.41237 13.3811H7.4221C7.52918 13.3714 7.60705 13.2843 7.59732 13.1779V13.0522L7.58758 13.0232Z" fill="#242424"/>
<path d="M6.53637 4.87058C6.54286 4.87058 6.54286 4.87058 6.53637 4.87058C6.5753 4.87058 6.6045 4.8609 6.63371 4.84156L6.65317 4.83188C6.65317 4.83188 6.66291 4.82221 6.70184 4.81253C6.73105 4.80286 6.76025 4.80286 6.78945 4.80286H6.79918C6.85759 4.80286 6.92573 4.82221 7.0036 4.85123C7.0328 4.87058 7.062 4.87058 7.10094 4.87058C7.17881 4.87058 7.24695 4.82221 7.27615 4.75449C7.32482 4.65776 7.27615 4.532 7.17881 4.49331C7.04253 4.43527 6.91599 4.40625 6.79918 4.40625H6.77972C6.72131 4.40625 6.66291 4.41592 6.6045 4.43527L6.5753 4.44494C6.50716 4.46429 6.44876 4.49331 6.40009 4.532C6.31248 4.59972 6.30275 4.72547 6.37089 4.81253C6.40982 4.84156 6.47796 4.87058 6.53637 4.87058Z" fill="#242424"/>
<path d="M8.91019 4.23831C8.87126 4.21896 8.82259 4.20929 8.77392 4.19961C8.74471 4.18994 8.71551 4.19961 8.69604 4.19961C8.66684 4.19961 8.63764 4.20929 8.61817 4.20929C8.57924 4.21896 8.53057 4.23831 8.47216 4.26733C8.38456 4.31569 8.34562 4.44145 8.37482 4.54786C8.39429 4.65426 8.47216 4.72198 8.55977 4.7123C8.58897 4.7123 8.60844 4.70263 8.63764 4.69296C8.66684 4.67361 8.68631 4.66394 8.70578 4.66394H8.72525C8.74471 4.66394 8.75445 4.67361 8.76418 4.67361L8.77392 4.68328C8.77392 4.68328 8.80312 4.69296 8.87126 4.74133C8.90046 4.76067 8.92966 4.77035 8.95886 4.77035H8.9686C9.04647 4.77035 9.11461 4.7123 9.13407 4.61557C9.17301 4.49949 9.13408 4.37373 9.04647 4.32537C8.9978 4.28667 8.94913 4.24798 8.91019 4.23831Z" fill="white"/>
</svg>
