<svg width="24" height="18" viewBox="0 0 24 18" fill="none" xmlns="http://www.w3.org/2000/svg">
<g clip-path="url(#clip0_1047_335)">
<path d="M23.8866 10.5921C23.6951 10.1276 22.45 8.29765 20.0875 5.00696C19.8971 4.72972 19.6681 4.51868 19.4138 4.38523C19.2046 4.25592 18.8975 4.13903 18.4968 4.03765L18.4814 4.03454C16.5515 3.71903 13.7047 3.05799 10.0091 2.06696L9.99257 2.06385C5.3293 1.29316 4.14367 1.05006 3.96313 0.978681L3.94331 0.972474C2.69052 0.647646 1.46306 0.31144 0.920329 0.0507499L0.910422 0.00419821L0.82015 6.02837e-05C0.776116 -0.000974199 0.746392 0.0114396 0.727678 0.0269568L0.704559 0.0352327L0.702358 0.0548879C0.689147 0.076612 0.679239 0.108681 0.695752 0.15006C0.633003 0.275233 0.650617 0.363164 0.747493 0.412819C1.23408 0.664198 2.20834 0.975577 3.8068 1.39041C4.13376 1.5073 6.12853 1.8673 9.9034 2.49213C13.5946 3.48213 16.4525 4.14523 18.3878 4.46178C18.7335 4.54972 18.9922 4.64592 19.1628 4.75351L19.1727 4.75868C19.3698 4.86109 19.547 5.02558 19.7011 5.24903C22.7219 9.45523 23.4121 10.5683 23.4584 10.7607C23.4705 10.8114 23.5002 10.8559 23.5431 10.887C23.5916 10.9604 23.662 11.4228 22.8408 14.2883C22.5953 14.4911 22.2827 14.7487 21.9678 15.0073C21.8632 14.9049 21.7719 14.8439 21.6882 14.8211C21.6486 14.8066 21.6045 14.7973 21.5583 14.7942H21.5561C21.4438 14.7901 21.3205 14.8263 21.1994 14.9039L21.1851 14.9121C20.9803 15.059 20.7326 15.3176 20.4464 15.6828C20.3264 15.8421 20.2626 15.9963 20.2527 16.1432C20.0523 15.9332 19.973 15.5928 20.0204 15.1283C20.0534 14.7218 20.3286 14.1952 20.8361 13.5663C20.8537 13.5456 20.868 13.5197 20.8779 13.4866C21.1146 12.6363 21.2038 12.1676 21.2225 11.8966C21.293 11.8966 21.359 11.8904 21.4174 11.879C21.4537 11.8728 21.4933 11.8625 21.5341 11.849C21.6783 11.8014 21.7851 11.7642 21.8379 11.7435C21.8742 11.7321 21.9095 11.7218 21.9414 11.7135C22.0052 11.698 22.0581 11.6608 22.0911 11.608C22.123 11.5563 22.1307 11.4973 22.1142 11.4425C22.0889 11.3494 21.9997 11.2821 21.894 11.2759H21.8874C21.8632 11.2759 21.8412 11.278 21.8203 11.2832C21.7752 11.2945 21.7267 11.307 21.6761 11.3235L21.6629 11.3287C21.6166 11.3473 21.5021 11.3856 21.3733 11.429C21.3535 11.4352 21.3381 11.4394 21.3172 11.4435C21.2809 11.4508 21.2401 11.4539 21.1939 11.4518C21.1664 11.4518 21.1333 11.4476 21.0904 11.4404C21.0816 11.4383 21.0739 11.4373 21.0684 11.4363C21.0574 11.4301 21.0464 11.4239 21.0343 11.4197L19.5679 9.40558C19.5272 9.35075 19.4644 9.31765 19.3984 9.31351C18.0465 9.20592 17.1086 9.05385 16.6077 8.8604C16.5978 8.83247 16.5791 8.80765 16.5526 8.78592L16.7101 8.62558L16.7178 8.6173C16.808 8.51592 16.8939 8.4073 16.971 8.29558C17.1009 8.11661 17.2022 7.89006 17.2715 7.62316C17.3023 7.5073 17.2363 7.38937 17.1163 7.35316C17.1031 7.35006 17.0921 7.34799 17.08 7.34696H17.0689C16.9633 7.34075 16.8719 7.40903 16.8455 7.51041C16.7893 7.72558 16.7112 7.90247 16.611 8.03903C16.5405 8.14144 16.4668 8.23558 16.3952 8.31523L15.9516 8.76834L15.9384 8.78385C15.8646 8.87489 15.7776 9.00316 15.6852 9.16144L15.6797 9.17075C15.6378 9.24523 15.6004 9.31868 15.5685 9.39316C15.5652 9.38178 15.5619 9.36937 15.5575 9.35799C15.4903 8.92351 15.4925 8.62247 15.5652 8.46523C15.5894 8.41144 15.5905 8.35247 15.5674 8.29765C15.5442 8.24282 15.4991 8.20041 15.4419 8.17765C15.4176 8.16834 15.3923 8.16213 15.3626 8.16006C15.2624 8.15696 15.1755 8.20868 15.1369 8.29247C15.0279 8.53247 15.0158 8.90385 15.0984 9.42937L15.1061 9.45834C15.4826 10.6676 15.7457 11.8697 15.891 13.0366C15.8371 13.0542 15.7919 13.0894 15.7655 13.1359C15.7358 13.1866 15.7303 13.2445 15.7479 13.2963C15.7721 13.3759 15.8459 13.4318 15.9373 13.4452C15.9395 13.4711 15.9439 13.497 15.9461 13.5228L15.9538 13.5621C15.9989 13.7101 16.0573 13.828 16.1255 13.9097L16.1409 13.9273C16.5824 14.3701 16.906 14.7673 17.1064 15.1108C17.3001 15.4314 17.4223 15.7583 17.4686 16.0749C17.4983 16.529 17.4333 16.8797 17.2726 17.1311C17.266 17.0659 17.2539 16.9987 17.2341 16.9263L17.2297 16.9159C17.1317 16.6273 16.9534 16.3749 16.7057 16.1711C16.48 15.9683 16.2719 15.8566 16.0606 15.8297H16.0385C15.967 15.8287 15.8976 15.8401 15.8294 15.868L15.8018 15.8804C15.52 16.0232 15.4243 16.0635 15.3923 16.0739C15.3505 16.079 15.3131 16.0945 15.2811 16.1163C14.7769 15.5773 14.2727 15.1045 13.7741 14.7042C13.5693 14.4828 12.9737 13.4121 12.0006 11.519L11.9951 11.5087C11.8497 11.2645 11.7 11.0587 11.5492 10.9004C11.2377 10.5652 10.794 10.168 10.2315 9.71903L10.2138 9.70558C8.55044 8.61627 8.00991 8.22213 7.85799 8.08765C7.85029 8.06075 7.83708 8.03385 7.81836 8.00903C7.4826 7.59109 7.34609 7.10178 7.41324 6.55661C7.42755 6.43661 7.33618 6.32799 7.21288 6.31454H7.19527L7.18977 6.41696L7.19527 6.31351C7.07418 6.30627 6.96519 6.39316 6.95198 6.50696C6.90905 6.85351 6.93767 7.18041 7.03014 7.48868C6.89253 7.44834 6.74722 7.41523 6.5942 7.38834C5.66066 7.21351 5.4581 7.17523 5.40746 7.16696L4.824 7.06868L4.25375 6.99523C3.78589 6.9311 3.22114 6.87627 2.57273 6.83282C2.44393 6.82765 2.09275 6.8111 1.69974 6.79247C1.05684 6.76247 0.326962 6.7273 0.253204 6.7273C0.111192 6.72523 0.0176184 6.72316 0.00771058 6.82558C0.00110538 6.89903 0.0495435 6.92592 0.115596 6.9404C0.117797 6.94868 0.1211 6.95489 0.123302 6.96109C0.123302 6.96316 0.125503 6.96627 0.126604 6.96834C0.0506444 6.97351 0.00330711 6.9942 -0.00329809 7.06558C-0.0110042 7.14523 0.0473418 7.17006 0.122201 7.18454L0.119999 7.21558L0.224581 7.22282C0.224581 7.22282 0.227884 7.22282 0.228985 7.22282H0.232287C0.232287 7.22282 0.236691 7.22282 0.238893 7.22282L0.343475 7.22592V7.20627C0.359988 7.20006 0.3754 7.19178 0.386409 7.18041C0.6297 7.19075 1.12399 7.21454 1.57314 7.23523C2.00689 7.25592 2.412 7.27454 2.55071 7.28075C3.18371 7.32316 3.73525 7.37592 4.191 7.43903L4.74694 7.51041L5.326 7.60661C6.25183 7.77937 6.45769 7.81765 6.50943 7.82696C6.79566 7.87765 7.04775 7.95213 7.25692 8.0473C7.27013 8.05454 7.28444 8.05972 7.29985 8.06282C7.32958 8.10834 7.3582 8.15385 7.39122 8.19834C7.39893 8.2304 7.41324 8.26144 7.43416 8.28937C7.50902 8.39799 7.8635 8.69696 9.93973 10.0573C10.477 10.4876 10.8964 10.8621 11.1804 11.1632L11.2024 11.1901C11.329 11.3235 11.46 11.5014 11.5877 11.7166C12.5983 13.6842 13.2027 14.759 13.435 15.0011L13.4581 15.0208C14.2782 15.6776 15.1127 16.5342 15.9472 17.5759L15.9637 17.5925C16.2092 17.8201 16.4282 17.9525 16.6341 17.9959L16.6462 17.998C16.6583 18.0001 16.6693 18.0011 16.6792 18.0011C16.6969 18.0011 16.7244 18.0011 16.7442 17.9939C17.6062 17.7808 18.0058 17.1228 17.9342 16.0376L17.932 16.0211C17.877 15.6445 17.7361 15.2659 17.5148 14.8966C17.299 14.5273 16.9545 14.1032 16.4954 13.6428C16.4679 13.6087 16.4382 13.5508 16.4106 13.4701C16.4084 13.4525 16.4062 13.4339 16.4051 13.4163C16.6022 13.4101 16.9016 13.4049 17.3541 13.4039H17.3662C17.5434 13.3956 17.7339 13.3718 17.932 13.3345C18.3757 13.2539 18.7125 13.0894 18.9305 12.8494C19.1441 12.6301 19.3026 12.1945 19.4149 11.518C19.514 10.918 19.5635 10.4949 19.5844 10.1918L20.715 11.7445C20.7326 11.7683 20.7546 11.788 20.78 11.8035C20.7822 11.9421 20.7304 12.3187 20.4475 13.3345C19.8938 14.0307 19.6053 14.6059 19.5657 15.0921C19.5041 15.7056 19.634 16.1701 19.9554 16.4773L19.9675 16.4876C20.1007 16.5921 20.2405 16.648 20.3815 16.6542C20.3925 16.6542 20.4035 16.6542 20.4145 16.6542C20.5653 16.6542 20.7183 16.5994 20.8691 16.4908L23.2008 14.5697C23.2338 14.5407 23.2569 14.5056 23.269 14.4642C24.1398 11.4363 24.0617 10.7928 23.8855 10.5911L23.8866 10.5921ZM21.533 15.2287L21.5495 15.2328C21.5495 15.2328 21.5726 15.2452 21.6221 15.2939C21.304 15.5566 21.0112 15.7976 20.8174 15.957C20.8229 15.9497 20.8262 15.9435 20.8317 15.9363C21.086 15.6114 21.3007 15.3839 21.4636 15.2639C21.5109 15.2349 21.533 15.2297 21.5341 15.2287H21.533ZM16.2708 9.09937C16.2873 9.16454 16.3336 9.22144 16.4029 9.25041C16.917 9.45834 17.8098 9.61454 19.1232 9.72627C19.1463 9.94558 19.121 10.4245 18.9514 11.4528C18.8303 12.1811 18.6817 12.4583 18.5727 12.5711C18.4241 12.7376 18.1764 12.8525 17.8385 12.9135C17.6667 12.9466 17.4994 12.9663 17.3442 12.9735C16.8796 12.9756 16.5681 12.9818 16.3567 12.989C16.295 12.4997 16.2136 12.0042 16.1123 11.5056C16.1916 11.5128 16.2598 11.5263 16.3171 11.5459C16.3842 11.5687 16.4448 11.5945 16.5031 11.6204C16.5361 11.6576 16.5791 11.6835 16.6275 11.6876C16.6319 11.6876 16.6352 11.6876 16.6396 11.6876C16.6528 11.6949 16.6671 11.7021 16.6814 11.7094C16.72 11.7321 16.7838 11.7704 16.8774 11.8283C16.9049 11.8449 16.9313 11.8583 16.9556 11.8708C16.982 11.8842 17.0117 11.8925 17.0469 11.8945C17.0502 11.8945 17.0535 11.8945 17.0579 11.8945C17.1438 11.8945 17.2231 11.847 17.2616 11.7714C17.3133 11.6659 17.2671 11.5376 17.1592 11.487C17.1449 11.4797 17.1295 11.4725 17.1152 11.4632C17.0216 11.4052 16.9534 11.3639 16.9115 11.3401C16.8796 11.3214 16.8466 11.3049 16.8135 11.2873C16.8113 11.2749 16.8091 11.2604 16.808 11.249C16.8047 11.2139 16.8014 11.1476 16.7992 11.0328C16.7981 10.9645 16.7981 10.9076 16.7992 10.8621C16.7992 10.8487 16.7992 10.8311 16.8003 10.8104L16.8058 10.6407C16.808 10.5808 16.8091 10.5414 16.8091 10.528L16.8124 10.3718C16.8168 10.167 16.819 10.0552 16.8202 10.0335V10.017C16.8202 10.0004 16.8213 9.97765 16.8213 9.94765C16.8213 9.82661 16.7409 9.7304 16.6352 9.72316H16.6253C16.5758 9.72316 16.5328 9.73972 16.4976 9.77178C16.4514 9.81316 16.4249 9.87627 16.4238 9.94558V10.018C16.4238 10.0449 16.4183 10.2114 16.4117 10.5218C16.4117 10.5414 16.4095 10.6159 16.4051 10.7473V10.7701C16.404 10.8042 16.4029 10.8301 16.4029 10.8487C16.4029 10.9004 16.4029 10.9645 16.4029 11.0411C16.4029 11.0701 16.404 11.097 16.4051 11.1228C16.3071 11.0959 16.1982 11.0783 16.0705 11.0721C16.055 11.0721 16.0363 11.0711 16.0198 11.0701C15.9527 10.7701 15.8778 10.469 15.7952 10.167C15.8261 10.1318 15.847 10.0883 15.8514 10.0376C15.8679 9.83075 15.9395 9.61247 16.0628 9.39213C16.1376 9.26696 16.2026 9.16972 16.2565 9.0973C16.2609 9.0973 16.2653 9.0973 16.2697 9.09834L16.2708 9.09937ZM16.0286 16.2435C16.0958 16.259 16.207 16.3097 16.3798 16.4649C16.5725 16.6221 16.7079 16.8135 16.7805 17.0276C16.8356 17.2294 16.8213 17.369 16.7387 17.4456C16.7068 17.4745 16.6869 17.5118 16.6781 17.5511C16.5758 17.5128 16.4514 17.429 16.3082 17.2987C16.0694 17.0007 15.8294 16.7183 15.5894 16.4494C15.6642 16.4204 15.793 16.3635 16.0286 16.2445V16.2435Z" fill="white"/>
<path d="M5.45858 5.77359C6.13011 5.92152 6.27763 6.00738 6.30735 6.03428C6.34808 6.07462 6.40643 6.09738 6.46918 6.10048C6.47248 6.10048 6.47689 6.10048 6.48019 6.10048C6.53193 6.10048 6.58257 6.086 6.6244 6.05807C6.67614 6.02393 6.70917 5.97117 6.71467 5.91428C6.72018 5.85841 6.69706 5.80255 6.65302 5.76117C6.56716 5.68152 6.3624 5.55531 5.57528 5.38152C5.55876 5.37841 5.54445 5.37634 5.53014 5.37531C5.42225 5.37014 5.32538 5.43014 5.29566 5.51703C5.27804 5.56669 5.28244 5.62048 5.30997 5.66703C5.34079 5.71876 5.39473 5.75703 5.45968 5.77152L5.45858 5.77359Z" fill="white"/>
</g>
<defs>
<clipPath id="clip0_1047_335">
<rect width="24" height="18" fill="white"/>
</clipPath>
</defs>
</svg>
