<svg width="19" height="18" viewBox="0 0 19 18" fill="none" xmlns="http://www.w3.org/2000/svg">
<path d="M18.3701 16.232C18.3993 16.1837 18.3799 16.1353 18.3701 16.116V16.1063C18.3799 16.0869 18.3993 16.0386 18.3701 15.9902C18.3604 15.9709 18.3312 15.9418 18.2728 15.9418L13.6199 15.8548C13.7367 15.6516 13.8243 15.4678 13.8925 15.3227C13.9314 15.226 13.9703 15.1293 13.9996 15.0422C14.019 14.9938 14.0482 14.8971 14.0872 14.723C14.0969 14.694 14.0969 14.6843 14.1066 14.6649C14.1261 14.6166 14.1164 14.5682 14.0969 14.5295C14.0774 14.4812 14.0288 14.4521 13.9801 14.4425C13.9606 14.4328 13.9411 14.4328 13.9217 14.4328C13.8438 14.4328 13.7659 14.4812 13.7465 14.5489C13.7367 14.5682 13.727 14.5972 13.7173 14.6359C13.6881 14.7423 13.6589 14.8778 13.6394 14.9358C13.6102 15.0229 13.581 15.1099 13.542 15.197C13.4642 15.3711 13.3474 15.6129 13.1722 15.8935C13.0456 15.9418 12.8996 16.0289 12.7244 16.1353C12.3448 16.3481 11.8775 16.619 11.3616 16.7544C9.75552 17.1704 7.56536 17.4219 5.36547 17.4606H5.35574C5.17079 17.4799 4.98584 17.4799 4.81063 17.4799C3.8859 17.4799 3.17532 17.2671 2.69835 16.8608C2.26032 16.3481 2.14351 15.8838 2.33819 15.4678C2.34793 15.4485 2.35766 15.4195 2.35766 15.4001C3.69122 15.3227 4.76196 15.1776 5.57962 14.9745C5.60882 15.0132 5.65749 15.0325 5.70616 15.0325C5.72563 15.0325 5.73536 15.0325 5.75483 15.0229C6.11499 14.9165 6.42648 14.9842 6.70877 15.2163C6.92291 15.4678 6.94238 15.7 6.7769 15.9418C6.60169 16.1547 6.30967 16.3288 5.92031 16.4739L5.91058 16.4836C5.87164 16.5029 5.70616 16.5513 5.04425 16.6674L5.00531 16.677C4.58675 16.8511 4.49915 16.8705 4.47968 16.8705H4.46021C4.29473 16.8995 4.12925 16.9189 3.97351 16.9189H3.89564C3.7983 16.9189 3.73016 16.9866 3.72043 17.0833C3.72043 17.18 3.78856 17.2574 3.8859 17.2574H3.97351C4.15845 17.2574 4.33366 17.2381 4.51861 17.2091C4.56728 17.1994 4.69383 17.1704 5.11239 17.0059C5.80351 16.8802 5.97872 16.8318 6.03712 16.8028C6.48489 16.648 6.82558 16.4255 7.03972 16.1643L7.04946 16.145C7.31227 15.7677 7.27334 15.3711 6.94238 14.9842L6.93265 14.9745C6.78664 14.8487 6.62116 14.7617 6.44595 14.7036C6.75744 14.5682 7.01052 14.4231 7.19547 14.2587L7.2052 14.249C7.73084 13.6783 7.74058 13.1075 7.22467 12.5948L7.2052 12.5852C7.02999 12.4497 6.82558 12.353 6.59196 12.295C6.6893 12.2466 6.78664 12.1885 6.88398 12.1402L6.89371 12.1305C6.95212 12.0821 7.00079 12.0434 7.03972 11.9951C7.51669 11.5307 7.53616 11.0374 7.06893 10.5634L7.04946 10.5537C6.7769 10.3506 6.42648 10.2152 6.00792 10.1474C6.25127 10.0314 6.43621 9.88627 6.55302 9.71214L6.56275 9.70247C6.58222 9.67345 6.60169 9.63476 6.61142 9.60574C6.73797 9.35423 6.76717 9.11239 6.6893 8.8899C6.58223 8.5997 6.29994 8.33851 5.82297 8.11602C5.70616 8.06766 5.54069 8.03864 5.32654 8.00962C5.16106 7.99027 4.84957 7.99027 4.35314 8.00962C3.97351 7.92255 3.58414 7.87419 3.20452 7.86451C3.17532 7.86451 3.14611 7.85484 3.10718 7.85484C2.95143 7.85484 2.66915 7.88386 2.25059 7.9419C2.20191 7.95157 2.16298 7.97092 2.13378 8.00962C2.10457 8.04831 2.09484 8.087 2.10457 8.13537C2.11431 8.22243 2.19218 8.28047 2.27005 8.28047H2.28952C2.69835 8.22243 2.9709 8.19341 3.09745 8.19341H3.17532C3.54521 8.20309 3.92484 8.25145 4.29473 8.33851H4.3434C4.82037 8.31917 5.13186 8.31917 5.2876 8.33851C5.47255 8.35786 5.60882 8.38688 5.68669 8.4159C6.05659 8.59002 6.28047 8.78349 6.34861 8.98663C6.39728 9.13174 6.37781 9.27684 6.29994 9.44129C6.29021 9.46063 6.27074 9.48965 6.261 9.509C6.07606 9.77986 5.61856 9.97333 4.90797 10.0894C4.64515 10.1184 4.30446 10.1281 3.90537 10.1281H3.8567L2.82489 10.2055C2.54261 10.2152 2.33819 10.2152 2.19218 10.2152H2.11431C1.8807 10.2248 1.53027 10.1765 1.04357 10.0701C0.576337 9.77018 0.44979 9.33488 0.673672 8.73512C0.897555 8.34819 1.44266 8.06766 2.31872 7.91288C2.35766 7.90321 2.38686 7.88386 2.41606 7.85484C2.47447 7.83549 2.68862 7.7968 3.56468 7.7968C4.32393 7.7968 5.46281 7.82582 6.94238 7.88386H6.96185C7.31228 7.85484 7.6335 7.75811 7.93526 7.58398C8.01313 7.53562 8.04233 7.42921 8.00339 7.35182C7.97419 7.29378 7.91579 7.26476 7.85738 7.26476C7.82818 7.26476 7.79898 7.27443 7.76978 7.28411C7.59456 7.38084 7.40962 7.45823 7.21494 7.49692C7.21494 7.3228 7.19547 7.09064 7.13706 6.81011C7.1176 6.69403 7.08839 6.57795 7.04946 6.45219C6.70877 5.34942 6.64063 5.08823 6.63089 5.02052V5.01085C6.61143 4.92378 6.59196 4.82705 6.57249 4.73999C6.48489 4.1886 6.42648 3.85971 6.39728 3.73395C6.37781 3.62754 6.31941 3.40505 6.21233 3.02779C6.19286 2.9504 6.1734 2.87301 6.16366 2.78595C6.12473 2.60216 6.10526 2.42804 6.09552 2.26359C6.08579 1.88632 6.15393 1.53808 6.2902 1.21885C6.45568 0.851264 6.65036 0.580408 6.85478 0.386939C6.86451 0.386939 6.88398 0.396612 6.89371 0.396612C6.90345 0.396612 6.93265 0.396613 6.95212 0.386939C7.00079 0.367592 7.05919 0.357918 7.10786 0.348244C7.1468 0.415959 7.18573 0.493347 7.21494 0.580408C7.2344 0.657796 7.25388 0.725509 7.27334 0.81257C7.31228 1.00604 7.37068 1.32526 7.39015 1.3833C7.41935 1.48004 7.44855 1.5671 7.47776 1.63481C7.52643 1.77991 7.64323 1.896 7.79898 1.97338C7.95472 2.6215 8.07153 3.00844 8.12994 3.1342C8.81132 5.09791 9.07413 5.54289 9.21041 5.68799C9.34669 5.91048 9.54137 6.18133 9.78472 6.48121C10.3396 7.10031 10.9041 7.70974 11.3908 8.24178C12.0527 8.95761 12.6271 9.57672 12.6952 9.71214L12.7244 9.75084C13.1235 10.1668 14.788 10.2539 16.5888 10.2539C16.9976 10.2539 17.4065 10.2539 17.8153 10.2442C18.0586 10.2442 18.2631 10.2345 18.4188 10.2345C18.4967 10.2345 18.5843 10.2345 18.5843 10.1378C18.5843 10.0991 18.5745 10.0701 18.5453 10.0604C18.5648 10.0507 18.5745 10.0217 18.5745 9.99267C18.5745 9.93463 18.5453 9.90561 18.5064 9.89594C18.4967 9.87659 18.4675 9.84757 18.4091 9.84757H18.3993C18.3507 9.85725 18.2923 9.85725 18.2631 9.89594C18.117 9.89594 17.9418 9.89594 17.7471 9.90561C16.3454 9.93463 13.4544 9.983 12.9872 9.53802C12.8801 9.3639 12.4226 8.85121 11.6244 7.99027C11.1377 7.4679 10.5829 6.86815 10.0378 6.25872C9.79445 5.95885 9.59977 5.69766 9.47323 5.48485L9.44403 5.45583C9.32722 5.33007 9.05467 4.8077 8.42196 2.99877L8.41222 2.97942C8.36355 2.88269 8.26621 2.54412 8.1202 1.96371C8.12993 1.95404 8.13967 1.93469 8.14941 1.92502C8.16887 1.88632 8.16887 1.83796 8.14941 1.79926C8.12994 1.76057 8.10073 1.74122 8.07153 1.72187C7.98392 1.36396 7.88658 0.938325 7.77951 0.444979C7.77951 0.425632 7.76978 0.406286 7.76004 0.386939C7.56536 0.0677153 7.28308 -0.0580407 6.93265 0.0290203C6.87425 -0.00967345 6.79638 -0.00967345 6.73797 0.0290203C6.43622 0.25151 6.18313 0.609428 5.96898 1.07375C5.81324 1.44134 5.73537 1.84763 5.7451 2.27326C5.75484 2.46673 5.7743 2.6602 5.81324 2.85367C5.82297 2.93106 5.84244 3.00844 5.87164 3.11485C5.97872 3.47277 6.03712 3.69526 6.05659 3.78232V3.79199C6.07606 3.87905 6.12473 4.12089 6.2318 4.78836C6.25127 4.88509 6.27074 4.98183 6.2902 5.06889C6.30967 5.21399 6.45568 5.68799 6.7185 6.53925C6.75744 6.66501 6.77691 6.77141 6.79637 6.85848C6.84504 7.13901 6.87425 7.3615 6.86451 7.51627C5.51148 7.45823 4.45047 7.43888 3.69122 7.43888C2.52314 7.43888 2.27979 7.49692 2.20191 7.56464H2.19218C1.24798 7.74843 0.634741 8.087 0.362188 8.561L0.352451 8.58035C0.0896323 9.25749 0.186972 9.7992 0.644471 10.1861C0.1091 10.4763 -0.0953153 10.9697 0.040961 11.6662V11.6759C0.186971 12.2272 0.488726 12.6238 0.917023 12.8657C0.946225 12.8947 0.985162 12.9141 1.03383 12.9237C1.0533 12.9334 1.06303 12.9431 1.0825 12.9431C0.800216 13.4364 0.722347 13.8911 0.848889 14.2877C0.975432 14.752 1.34532 15.1486 1.94883 15.4388C1.78335 15.9418 1.9391 16.4836 2.4258 17.0543L2.43553 17.0736C2.98064 17.5476 3.7691 17.7895 4.79117 17.7895C4.97611 17.7895 5.16106 17.7798 5.35574 17.7701C8.08127 17.7895 10.8555 17.2961 11.5758 17.0253C12.0041 16.8608 13.1138 16.2707 13.3084 16.174C13.3182 16.174 13.3376 16.1837 13.3474 16.1837L18.2728 16.2804C18.3312 16.2804 18.3604 16.2514 18.3701 16.232ZM1.01436 10.4086C1.45239 10.5054 1.78335 10.5537 2.03644 10.5537H2.19218C2.34793 10.5537 2.56208 10.5537 2.84436 10.5441C2.84436 10.5441 3.3992 10.5054 3.8567 10.4667H3.90537C4.29473 10.4667 4.62569 10.457 4.88851 10.428C4.89824 10.428 4.91771 10.4377 4.92744 10.4377H4.94691C5.7743 10.3699 6.41675 10.4957 6.83531 10.8052C7.13707 11.1245 7.1176 11.4147 6.79637 11.7339C6.76717 11.7629 6.7185 11.8016 6.66983 11.8403C6.41675 11.9951 6.10526 12.1208 5.75483 12.2176C5.54068 12.2272 5.3168 12.2659 5.07345 12.3143C5.03452 12.324 5.00532 12.3433 4.98585 12.3627C4.87877 12.3723 4.49914 12.4207 3.20452 12.5755C3.06824 12.5852 2.93197 12.6045 2.79569 12.6045C2.33819 12.6432 1.79309 12.6432 1.13117 12.6142C0.76128 12.4304 0.508194 12.1015 0.381652 11.6372C0.245375 10.9987 0.459524 10.6021 1.01436 10.4086ZM1.47186 12.9721H1.9683C2.27006 12.9721 2.55234 12.9624 2.80543 12.9431C2.95144 12.9334 3.09744 12.9237 3.22399 12.9044C3.22399 12.9044 3.23372 12.9044 5.05398 12.6916C5.3168 12.6529 5.56015 12.6045 5.79377 12.5465C6.30967 12.5174 6.70877 12.6045 6.98132 12.8173C7.34148 13.1946 7.33174 13.5622 6.94238 13.9781C6.30967 14.5489 4.71329 14.9068 2.20191 15.0519C2.14351 15.0519 2.09484 15.0906 2.06564 15.1389C1.57894 14.8874 1.27718 14.5779 1.17984 14.2103C1.0533 13.8621 1.16037 13.4461 1.47186 12.9721Z" fill="white"/>
<path d="M6.03691 13.5588C6.03691 13.5879 6.04664 13.6362 6.03691 13.7426C6.03691 13.8103 6.02718 13.8587 6.01744 13.9071C6.00771 13.9748 6.01744 14.0619 6.08558 14.1102C6.10505 14.1199 6.13425 14.1296 6.15372 14.1296C6.22186 14.1296 6.28026 14.0715 6.28999 13.9941C6.29973 13.9264 6.30946 13.8394 6.31919 13.7523V13.4911C6.29973 13.317 6.26079 13.1719 6.20239 13.0461C6.17319 12.9978 6.13425 12.9688 6.08558 12.9688C6.03691 12.9688 5.99797 12.9978 5.96877 13.0365C5.93957 13.0945 5.92984 13.1816 5.95904 13.2396C5.98824 13.3267 6.01744 13.4331 6.03691 13.5588Z" fill="white"/>
<path d="M6.30984 15.9674H6.33904C6.41691 15.9674 6.48505 15.9094 6.49479 15.8223C6.50452 15.7643 6.50452 15.7159 6.50452 15.6772C6.50452 15.6289 6.50452 15.5902 6.49479 15.5612C6.49479 15.5225 6.48505 15.4741 6.46558 15.4257C6.45585 15.3967 6.43638 15.358 6.41691 15.3C6.37797 15.2032 6.2709 15.1645 6.19303 15.2226C6.12489 15.271 6.09569 15.3677 6.13463 15.4451C6.1541 15.4934 6.16383 15.5225 6.17356 15.5418C6.19303 15.5902 6.19303 15.6095 6.19303 15.6095V15.6772C6.19303 15.6966 6.1833 15.7546 6.1833 15.7643C6.17356 15.8514 6.22223 15.9481 6.30984 15.9674Z" fill="white"/>
<path d="M5.6856 11.422C5.6856 11.451 5.6856 11.4993 5.67587 11.538C5.66613 11.5574 5.6564 11.5961 5.61747 11.6541C5.598 11.6928 5.58826 11.7412 5.60773 11.7895C5.6272 11.8379 5.67587 11.8766 5.74401 11.896C5.76348 11.9056 5.79268 11.9056 5.81215 11.9056C5.89002 11.9056 5.96789 11.8669 6.00683 11.8089C6.04576 11.7412 6.07496 11.6831 6.09443 11.6251V11.6154C6.1139 11.5284 6.12363 11.4607 6.1139 11.3929C6.10417 11.2478 6.03603 11.1124 5.91922 10.9963C5.85108 10.9383 5.73427 10.9189 5.64667 10.9576C5.58826 10.9867 5.54932 11.035 5.53959 11.0834C5.52986 11.1318 5.54932 11.1801 5.58826 11.2188C5.64666 11.2865 5.6856 11.3542 5.6856 11.422Z" fill="white"/>
<path d="M5.20876 9.85054C5.22823 9.86989 5.26716 9.87956 5.29636 9.87956C5.35477 9.87956 5.41317 9.84087 5.43264 9.77316C5.50078 9.57969 5.52998 9.41524 5.53971 9.27981C5.54945 9.10569 5.52024 8.95091 5.46184 8.81548C5.43264 8.75744 5.38397 8.71875 5.3353 8.71875C5.29636 8.71875 5.25743 8.7381 5.23796 8.75744C5.18929 8.80581 5.16982 8.89287 5.19902 8.97026C5.23796 9.04765 5.24769 9.15406 5.24769 9.26046C5.24769 9.34752 5.21849 9.47328 5.16009 9.62805C5.13089 9.71511 5.16009 9.80218 5.20876 9.85054Z" fill="white"/>
<path d="M12.1338 12.9311C12.1144 13.0568 12.0754 13.2309 12.0073 13.4534C11.9878 13.5308 12.0073 13.6179 12.0657 13.6566C12.0852 13.6759 12.1144 13.6856 12.1436 13.6856C12.202 13.6856 12.2604 13.6372 12.2799 13.5695C12.348 13.3277 12.3967 13.1439 12.4161 12.9988C12.4453 12.7956 12.4745 12.5635 12.4843 12.2926C12.494 12.0024 12.4843 11.7509 12.4745 11.5381C12.4648 11.451 12.4648 11.3833 12.4551 11.3446L12.3869 10.7158C12.3772 10.6288 12.3772 10.5514 12.3675 10.474C12.3675 10.3676 12.3675 10.2805 12.3869 10.2128C12.4064 10.1354 12.3675 10.0484 12.3091 10.0193C12.2896 10.0097 12.2701 10 12.2507 10C12.1825 10 12.1241 10.0484 12.1144 10.1258C12.0949 10.2322 12.0852 10.3482 12.0949 10.4933C12.0949 10.5707 12.1046 10.6578 12.1144 10.7545V10.7835C12.1241 10.8803 12.1533 11.1802 12.1728 11.3833C12.1728 11.422 12.1825 11.48 12.1825 11.5574C12.1922 11.7509 12.202 11.9927 12.1922 12.2636C12.1825 12.5441 12.163 12.7569 12.1338 12.9311Z" fill="white"/>
</svg>
