<svg width="666" height="284" viewBox="0 0 666 284" fill="none" xmlns="http://www.w3.org/2000/svg">
<path d="M41.534 283.836C41.534 283.836 42.9695 202.28 34.0534 180.482C33.7113 179.643 33.4294 178.784 33.2208 177.9L33.1957 177.804C32.3561 174.253 30.4069 171.094 27.6583 168.782C22.1168 164.113 12.8536 154.937 11.4873 144.789C11.4362 144.397 11.4051 144.003 11.38 143.611C11.2897 142.31 10.3628 136.445 1.19694 125.777C1.19694 125.777 -3.12968 120.209 4.66887 120.559C12.4684 120.912 17.3659 132.871 17.3659 132.871C17.3659 132.871 21.6363 144.709 27.8408 139.961C30.8152 137.686 32.4433 133.134 33.3311 129.009C34.1256 125.317 34.4226 121.531 34.2821 117.753C34.0373 111.197 33.4806 94.6649 33.7063 85.2745C33.7063 85.2745 33.933 80.1756 37.2354 80.0001C40.0573 79.85 40.6763 84.7458 40.7966 86.1767C40.8307 86.5727 40.8638 86.9676 40.902 87.3626C41.244 90.7795 42.5792 104.523 43.2062 116.049C43.2704 117.23 43.9736 118.297 45.042 118.725C45.5045 118.908 46.0281 118.973 46.5808 118.786C47.4767 118.474 48.0495 117.568 48.0334 116.593C47.9772 112.619 49.1229 97.6726 50.9717 79.996C50.9717 79.996 51.4261 75.9555 55.0706 76.0728C58.7151 76.1902 58.7712 82.2852 58.7712 82.2852C58.7712 82.2852 57.107 104.794 55.9664 117.396C55.9664 117.396 55.7919 119.53 57.5945 119.593C58.6659 119.63 59.6139 118.866 59.8988 117.803C61.244 112.787 68.2401 95.2926 72.2126 87.2728C73.0141 85.6531 74.891 84.8866 76.5271 85.5694C76.5913 85.597 76.6556 85.6245 76.7198 85.6562C77.3768 85.9644 77.8674 86.3685 78.2375 86.8013C79.1334 87.8535 79.4233 89.315 79.0772 90.6683C77.8473 95.4834 71.3318 113.079 67.8137 123.19C67.5719 123.888 67.5047 124.643 67.6693 125.364C67.6793 125.416 67.6953 125.468 67.7084 125.52C68.1728 127.227 70.2714 127.768 71.5114 126.54C74.3493 123.721 80.2689 114.493 87.3412 110.566C88.1367 110.127 88.9944 109.819 89.8912 109.701C91.3779 109.51 93.1886 109.774 92.2637 112.559C91.2545 115.59 85.0038 124.076 80.9902 129.265C79.0491 131.773 78.0861 133.804 76.3446 136.46C75.225 138.169 74.4155 140.071 73.9711 142.081C73.1575 145.757 71.08 153.103 65.9539 164.131C64.5575 167.141 63.8793 170.454 63.9796 173.788L64.0458 176.085C64.09 177.61 64.2154 179.131 64.418 180.644C65.2657 186.985 75.1348 250.91 81.7707 283.836H41.534Z" fill="white" fill-opacity="0.1"/>
<path d="M153.127 111.199C154.647 109.558 156.502 107.293 158.494 104.279C159.863 102.209 161.301 100.187 162.783 98.204C164.3 96.1792 166.16 93.3726 166.939 90.8976C166.939 90.8976 169.64 82.9105 180.78 78.1025C182.511 77.3554 183.487 75.3887 182.914 73.5486C182.532 72.3188 181.453 71.0379 178.977 70.0878C173.102 67.8312 163.192 75.7031 158.966 81.7C157.434 83.8749 154.421 84.3281 152.441 82.5747C152.375 82.5155 152.307 82.4543 152.241 82.39C150.228 80.4753 149.357 77.6024 149.83 74.8233C151.379 65.7247 155.914 38.1851 154.822 33.8292C154.429 32.2718 153.748 31.1828 152.984 30.4215C150.618 28.0659 146.64 29.3713 146.009 32.6974C146.001 32.7341 145.996 32.7698 145.988 32.8076C145.41 36.0633 141.533 57.0854 140.723 61.4617C140.575 62.2741 140.166 63.0273 139.531 63.5345C139.062 63.9101 138.451 64.1785 137.732 63.9999C136.863 63.7836 136.247 62.9824 136.178 62.0639C135.774 56.7405 133.769 31.3012 131.838 26.0952C131.779 25.9339 131.722 25.7737 131.665 25.6104C131.308 24.5469 129.239 19.7042 125.392 22.32C120.903 25.3695 125.354 63.657 125.354 63.657C125.354 63.657 125.622 65.6686 123.596 65.1471C121.843 64.696 114.061 39.6282 111.095 34.4508C110.309 33.0801 109.446 31.7309 107.914 31.5278C106.893 31.392 105.741 31.6798 104.734 33.0148C102.633 35.8071 109.39 56.5986 113.319 65.8166C114.316 68.1578 112.941 70.943 110.721 72.0861C110.643 72.1249 110.563 72.1636 110.484 72.1994C108.265 73.2046 94.9187 60.5269 91.3264 57.0548C90.4808 56.2383 89.2609 55.924 88.1675 56.3179C87.0811 56.7088 86.0869 57.756 86.4541 60.3748C87.0419 64.5429 99.6597 76.5052 104.783 81.2102C106.21 82.5206 107.402 84.078 108.306 85.814L108.311 85.8243C109.141 87.4184 109.713 89.1402 110.014 90.9221C110.638 94.6034 112.256 102.12 116.183 112.069C117.485 115.369 118.029 118.935 117.793 122.489L115.748 153.073C115.748 153.073 107.209 267.356 108.065 283.834H147.614C147.614 283.834 145.9 162.338 144.654 148.454C143.897 140.028 145.741 129.428 147.308 122.395C148.245 118.193 150.238 114.316 153.127 111.199Z" fill="white" fill-opacity="0.1"/>
<path d="M187.873 170.602C186.739 168.92 185.387 166.631 184.016 163.653C183.074 161.607 182.062 159.595 181.004 157.612C179.925 155.587 178.644 152.812 178.282 150.493C178.282 150.493 176.946 142.971 167.648 137.081C166.201 136.166 165.598 134.27 166.358 132.708C166.864 131.666 168.002 130.678 170.339 130.182C175.894 129.008 183.68 137.458 186.646 143.417C187.72 145.58 190.349 146.416 192.354 145.133C192.422 145.092 192.491 145.045 192.56 144.998C194.614 143.577 195.781 141.134 195.734 138.586C195.58 130.236 195.249 104.989 196.815 101.256C197.373 99.9212 198.131 99.0455 198.916 98.475C201.349 96.7104 204.725 98.4454 204.839 101.507C204.841 101.541 204.841 101.575 204.844 101.608C204.918 104.598 205.542 123.929 205.673 127.955C205.696 128.703 205.958 129.432 206.456 129.978C206.826 130.38 207.335 130.706 208.003 130.649C208.808 130.581 209.466 129.954 209.651 129.144C210.729 124.446 215.958 102.013 218.387 97.6392C218.462 97.5044 218.534 97.3687 218.606 97.2309C219.07 96.3318 221.572 92.3035 224.656 95.1897C228.251 98.5567 219.104 132.117 219.104 132.117C219.104 132.117 218.593 133.875 220.47 133.698C222.098 133.547 232.438 112.271 235.784 108.073C236.672 106.959 237.625 105.877 239.022 105.917C239.952 105.941 240.943 106.364 241.66 107.699C243.162 110.495 234.314 128.097 229.561 135.767C228.355 137.717 229.206 140.4 231.035 141.74C231.099 141.787 231.164 141.832 231.231 141.876C233.077 143.09 246.708 133.677 250.388 131.09C251.254 130.484 252.383 130.378 253.308 130.887C254.225 131.391 254.973 132.468 254.289 134.754C253.203 138.393 240.316 147.271 235.106 150.741C233.654 151.705 232.378 152.928 231.336 154.346L231.331 154.354C230.373 155.661 229.631 157.116 229.119 158.665C228.067 161.863 225.604 168.345 220.756 176.67C219.145 179.431 218.177 182.537 217.91 185.746L215.604 213.355C215.604 213.355 216.98 267.461 216.017 283.83H183.076C183.076 283.83 187.422 217.31 190.408 205.09C192.224 197.672 192.008 187.94 191.559 181.435C191.292 177.549 190.033 173.801 187.873 170.602Z" fill="white" fill-opacity="0.1"/>
<path d="M295.955 283.834C295.955 283.834 285.264 138.978 294.181 117.177C294.523 116.341 294.806 115.478 295.013 114.596L295.036 114.499C295.879 110.951 297.828 107.789 300.573 105.478C306.117 100.809 315.38 91.6323 316.747 81.4846C316.798 81.0937 316.827 80.6998 316.855 80.3068C316.942 79.0066 317.871 73.1402 327.037 62.473C327.037 62.473 331.365 56.9047 323.565 57.2558C315.764 57.6079 310.868 69.5651 310.868 69.5651C310.868 69.5651 306.598 81.405 300.393 76.6572C297.42 74.3823 295.792 69.8294 294.903 65.7042C294.109 62.0127 293.811 58.2274 293.953 54.4491C294.197 47.8939 294.753 31.3603 294.528 21.9698C294.528 21.9698 294.299 16.872 291 16.6944C288.177 16.5454 287.558 21.4422 287.437 22.8731C287.404 23.268 287.37 23.663 287.332 24.059C286.99 27.4749 285.655 41.2172 285.029 52.7468C284.965 53.9276 284.26 54.9941 283.19 55.4207C282.73 55.6044 282.206 55.6708 281.654 55.4799C280.757 55.1707 280.184 54.2624 280.201 53.2897C280.257 49.3145 279.111 34.369 277.262 16.6923C277.262 16.6923 276.808 12.6498 273.163 12.7682C269.52 12.8855 269.463 18.9805 269.463 18.9805C269.463 18.9805 271.127 41.4886 272.268 54.0909C272.268 54.0909 272.442 56.226 270.639 56.2882C269.566 56.325 268.621 55.5626 268.336 54.4981C266.99 49.4829 259.995 31.989 256.021 23.9681C255.221 22.3485 253.343 21.583 251.708 22.2648C251.644 22.2913 251.579 22.3199 251.515 22.3515C250.857 22.6608 250.365 23.0649 249.997 23.4977C249.101 24.5489 248.811 26.0103 249.158 27.3637C250.388 32.1788 256.903 49.7748 260.421 59.8858C260.662 60.5829 260.729 61.3381 260.565 62.0597C260.552 62.1117 260.539 62.1648 260.527 62.2179C260.061 63.9233 257.964 64.4642 256.723 63.2354C253.886 60.4175 247.966 51.1894 240.893 47.2631C240.097 46.8222 239.24 46.514 238.343 46.3977C236.856 46.2058 235.045 46.4712 235.97 49.2553C236.976 52.2875 243.23 60.7727 247.244 65.9604C249.186 68.468 250.149 70.5 251.889 73.1566C253.01 74.864 253.818 76.7674 254.263 78.7759C255.076 82.4521 257.154 89.7983 262.28 100.829C263.678 103.839 264.353 107.149 264.255 110.484L264.188 112.782C264.142 114.308 264.019 115.829 263.816 117.342C262.968 123.68 255.708 250.909 249.071 283.834H295.955Z" fill="white" fill-opacity="0.1"/>
<path d="M386.103 146.356C387.624 144.714 389.478 142.45 391.471 139.434C392.839 137.365 394.275 135.342 395.759 133.359C397.277 131.335 399.136 128.529 399.914 126.055C399.914 126.055 402.616 118.068 413.756 113.258C415.488 112.511 416.463 110.545 415.891 108.704C415.508 107.475 414.426 106.195 411.953 105.244C406.078 102.987 396.168 110.859 391.943 116.855C390.41 119.031 387.395 119.483 385.418 117.73C385.351 117.673 385.283 117.611 385.214 117.547C383.204 115.633 382.33 112.759 382.806 109.981C384.354 100.881 388.89 73.3415 387.798 68.9866C387.405 67.4292 386.725 66.3392 385.96 65.5778C383.591 63.2223 379.617 64.5276 378.985 67.8537C378.977 67.8905 378.969 67.9262 378.964 67.964C378.386 71.2196 374.508 92.2418 373.699 96.6181C373.55 97.4315 373.142 98.1837 372.507 98.6909C372.038 99.0665 371.427 99.3349 370.708 99.1563C369.84 98.9399 369.223 98.1388 369.154 97.2202C368.75 91.8968 366.745 66.4576 364.814 61.2515C364.755 61.0903 364.696 60.93 364.641 60.7668C364.284 59.7033 362.215 54.8616 358.368 57.4753C353.879 60.5259 358.33 98.8134 358.33 98.8134C358.33 98.8134 358.599 100.825 356.573 100.303C354.818 99.8523 347.037 74.7846 344.072 69.6071C343.285 68.2365 342.422 66.8872 340.89 66.6831C339.867 66.5484 338.717 66.8362 337.71 68.1711C335.607 70.9635 342.366 91.755 346.293 100.973C347.292 103.313 345.917 106.098 343.693 107.243C343.616 107.282 343.54 107.319 343.46 107.356C341.241 108.361 327.895 95.6832 324.302 92.2112C323.457 91.3947 322.237 91.0793 321.143 91.4743C320.057 91.8652 319.063 92.9123 319.43 95.5301C320.019 99.6992 332.636 111.662 337.759 116.367C339.186 117.678 340.378 119.235 341.282 120.97L341.288 120.981C342.116 122.575 342.689 124.297 342.99 126.078C343.614 129.76 345.232 137.278 349.159 147.225C350.461 150.526 351.005 154.092 350.767 157.645L348.724 188.229C348.724 188.229 342.806 267.358 343.66 283.836H383.579C383.579 283.836 378.876 197.494 377.631 183.61C376.873 175.184 378.718 164.584 380.284 157.55C381.219 153.35 383.214 149.475 386.103 146.356Z" fill="white" fill-opacity="0.1"/>
<path d="M474.531 283.832C474.531 283.832 470.382 209.947 479.298 188.146C479.64 187.307 479.922 186.448 480.132 185.565L480.155 185.468C480.995 181.921 482.945 178.759 485.691 176.446C491.234 171.778 500.498 162.602 501.863 152.454C501.916 152.062 501.945 151.667 501.971 151.275C502.061 149.975 502.988 144.109 512.154 133.442C512.154 133.442 516.482 127.873 508.681 128.224C500.882 128.577 495.985 140.535 495.985 140.535C495.985 140.535 491.715 152.374 485.509 147.626C482.536 145.35 480.908 140.799 480.02 136.674C479.226 132.981 478.93 129.196 479.07 125.418C479.314 118.863 479.87 102.329 479.645 92.9395C479.645 92.9395 479.417 87.8406 476.115 87.6651C473.294 87.514 472.675 92.4108 472.555 93.8417C472.522 94.2377 472.487 94.6327 472.448 95.0276C472.107 98.4436 470.773 112.187 470.144 123.717C470.08 124.895 469.379 125.962 468.307 126.389C467.847 126.573 467.323 126.64 466.77 126.45C465.874 126.139 465.303 125.232 465.317 124.257C465.375 120.284 464.228 105.339 462.38 87.661C462.38 87.661 461.924 83.6205 458.281 83.7368C454.636 83.8552 454.579 89.9502 454.579 89.9502C454.579 89.9502 456.245 112.458 457.384 125.06C457.384 125.06 457.559 127.195 455.757 127.257C454.684 127.294 453.739 126.531 453.454 125.468C452.108 120.452 445.11 102.959 441.139 94.9378C440.337 93.3182 438.461 92.5517 436.825 93.2345C436.761 93.261 436.697 93.2896 436.631 93.3202C435.974 93.6294 435.482 94.0336 435.115 94.4663C434.218 95.5185 433.928 96.98 434.272 98.3333C435.505 103.147 442.02 120.743 445.538 130.854C445.78 131.553 445.845 132.308 445.682 133.028C445.67 133.081 445.657 133.133 445.643 133.186C445.178 134.892 443.08 135.433 441.841 134.204C439.002 131.388 433.083 122.157 426.008 118.231C425.215 117.791 424.357 117.483 423.46 117.368C421.973 117.174 420.163 117.441 421.088 120.224C422.095 123.257 428.347 131.74 432.361 136.929C434.3 139.438 435.266 141.468 437.008 144.125C438.127 145.834 438.935 147.736 439.38 149.745C440.195 153.421 442.27 160.768 447.396 171.799C448.796 174.806 449.471 178.119 449.373 181.452L449.305 183.752C449.26 185.278 449.137 186.798 448.934 188.309C448.085 194.65 443.88 250.907 437.242 283.832H474.531Z" fill="white" fill-opacity="0.1"/>
<path d="M533.266 283.832C533.266 283.832 529.801 132.987 520.407 110.016C520.046 109.135 519.749 108.226 519.529 107.298L519.504 107.194C518.618 103.456 516.563 100.126 513.67 97.6895C507.829 92.7713 498.069 83.1012 496.629 72.4074C496.574 71.9961 496.544 71.5807 496.516 71.1664C496.422 69.7967 495.444 63.6161 485.786 52.3753C485.786 52.3753 481.226 46.5079 489.445 46.8783C497.664 47.2498 502.823 59.849 502.823 59.849C502.823 59.849 507.323 72.3248 513.862 67.3218C516.995 64.9244 518.709 60.1266 519.645 55.7799C520.483 51.8905 520.795 47.902 520.647 43.9207C520.39 37.0133 519.804 19.5928 520.041 9.69821C520.041 9.69821 520.28 4.32684 523.76 4.14109C526.733 3.98188 527.385 9.14199 527.511 10.6494C527.547 11.0678 527.583 11.4832 527.625 11.8986C527.983 15.4982 529.389 29.9794 530.051 42.1275C530.119 43.3706 530.859 44.4943 531.987 44.9454C532.473 45.1382 533.025 45.2087 533.606 45.0076C534.551 44.681 535.153 43.7247 535.138 42.699C535.077 38.5105 536.285 22.7628 538.233 4.13599C538.233 4.13599 538.713 -0.119878 542.553 0.00259344C546.393 0.125064 546.452 6.54969 546.452 6.54969C546.452 6.54969 544.697 30.2652 543.498 43.5441C543.498 43.5441 543.312 45.7935 545.212 45.8588C546.342 45.8976 547.338 45.0944 547.639 43.9727C549.056 38.6881 556.429 20.2542 560.614 11.8037C561.459 10.0983 563.436 9.29099 565.16 10.0095C565.227 10.0381 565.295 10.0697 565.364 10.1003C566.056 10.4249 566.574 10.8505 566.962 11.3077C567.907 12.416 568.213 13.9541 567.848 15.3809C566.552 20.4552 559.686 38.9963 555.98 49.6493C555.724 50.3841 555.656 51.1801 555.827 51.9405C555.84 51.9956 555.853 52.0507 555.869 52.1068C556.358 53.9041 558.57 54.4736 559.875 53.1785C562.866 50.2106 569.103 40.4864 576.557 36.3489C577.393 35.8845 578.299 35.56 579.242 35.4375C580.809 35.2354 582.717 35.5151 581.742 38.4483C580.681 41.6427 574.093 50.5841 569.864 56.0504C567.819 58.6927 566.804 60.8329 564.967 63.6334C563.788 65.4327 562.937 67.4382 562.468 69.5538C561.61 73.427 559.422 81.1682 554.021 92.7907C552.547 95.9616 551.835 99.4521 551.938 102.964L552.009 105.387C552.057 106.993 552.187 108.595 552.401 110.189C553.295 116.869 575.014 249.138 582.008 283.832H533.266Z" fill="white" fill-opacity="0.1"/>
<path d="M602.672 164.273C601.597 162.591 600.319 160.302 599.021 157.324C598.129 155.278 597.173 153.269 596.173 151.283C595.151 149.258 593.939 146.486 593.597 144.163C593.597 144.163 592.334 136.642 583.537 130.753C582.17 129.838 581.597 127.941 582.317 126.382C582.797 125.337 583.873 124.349 586.084 123.853C591.336 122.679 598.704 131.128 601.508 137.091C602.525 139.251 605.013 140.087 606.909 138.805C606.973 138.763 607.039 138.715 607.103 138.669C609.048 137.248 610.151 134.808 610.107 132.257C609.961 123.907 609.649 98.6603 611.128 94.927C611.658 93.5921 612.373 92.7174 613.117 92.1469C615.417 90.3813 618.611 92.1173 618.719 95.1781C618.721 95.2118 618.722 95.2454 618.722 95.2791C618.795 98.2695 619.385 117.603 619.508 121.627C619.531 122.374 619.779 123.105 620.25 123.648C620.599 124.051 621.081 124.377 621.711 124.322C622.473 124.252 623.095 123.625 623.272 122.815C624.293 118.117 629.239 95.6843 631.536 91.3111C631.607 91.1753 631.676 91.0396 631.743 90.9018C632.182 90.0037 634.549 85.9754 637.465 88.8616C640.867 92.2276 632.215 125.789 632.215 125.789C632.215 125.789 631.729 127.546 633.507 127.369C635.048 127.217 644.827 105.942 647.993 101.744C648.832 100.631 649.734 99.5493 651.055 99.587C651.936 99.6125 652.873 100.035 653.551 101.372C654.97 104.168 646.603 121.77 642.107 129.438C640.964 131.388 641.77 134.071 643.501 135.411C643.562 135.458 643.623 135.503 643.686 135.547C645.431 136.762 658.328 127.348 661.808 124.764C662.627 124.156 663.696 124.049 664.57 124.558C665.438 125.062 666.146 126.139 665.499 128.425C664.47 132.064 652.28 140.942 647.35 144.411C645.978 145.378 644.771 146.599 643.786 148.017L643.78 148.027C642.875 149.332 642.172 150.787 641.689 152.336C640.691 155.534 638.363 162.019 633.776 170.341C632.254 173.102 631.338 176.208 631.084 179.417L630.906 207.316C630.906 207.316 631.326 268.033 632.351 283.831H593.408C593.408 283.831 602.241 210.982 605.069 198.761C606.786 191.344 606.582 181.612 606.157 175.106C605.903 171.22 604.714 167.472 602.672 164.273Z" fill="white" fill-opacity="0.1"/>
</svg>
