<svg width="29" height="21" viewBox="0 0 29 21" fill="none" xmlns="http://www.w3.org/2000/svg">
<path d="M28.25 7.75V2.9375C28.25 1.425 27.0125 0.1875 25.5 0.1875H21.7188C21.7188 0.7375 21.2375 1.21875 20.6875 1.21875C20.1375 1.21875 19.6562 0.7375 19.6562 0.1875H3.5C1.9875 0.1875 0.75 1.425 0.75 2.9375V7.75C2.2625 7.75 3.5 8.9875 3.5 10.5C3.5 12.0125 2.2625 13.25 0.75 13.25V18.0625C0.75 19.575 1.9875 20.8125 3.5 20.8125H19.6562C19.6562 20.2625 20.1375 19.7812 20.6875 19.7812C21.2375 19.7812 21.7188 20.2625 21.7188 20.8125H25.5C27.0125 20.8125 28.25 19.575 28.25 18.0625V13.25C26.7375 13.25 25.5 12.0125 25.5 10.5C25.5 8.9875 26.7375 7.75 28.25 7.75ZM20.6875 18.4062C20.1375 18.4062 19.6562 17.925 19.6562 17.375C19.6562 16.825 20.1375 16.3438 20.6875 16.3438C21.2375 16.3438 21.7188 16.825 21.7188 17.375C21.7188 17.925 21.2375 18.4062 20.6875 18.4062ZM20.6875 14.9688C20.1375 14.9688 19.6562 14.4875 19.6562 13.9375C19.6562 13.3875 20.1375 12.9063 20.6875 12.9063C21.2375 12.9063 21.7188 13.3875 21.7188 13.9375C21.7188 14.4875 21.2375 14.9688 20.6875 14.9688ZM20.6875 11.5312C20.1375 11.5312 19.6562 11.05 19.6562 10.5C19.6562 9.95 20.1375 9.46875 20.6875 9.46875C21.2375 9.46875 21.7188 9.95 21.7188 10.5C21.7188 11.05 21.2375 11.5312 20.6875 11.5312ZM20.6875 8.09375C20.1375 8.09375 19.6562 7.6125 19.6562 7.0625C19.6562 6.5125 20.1375 6.03125 20.6875 6.03125C21.2375 6.03125 21.7188 6.5125 21.7188 7.0625C21.7188 7.6125 21.2375 8.09375 20.6875 8.09375ZM20.6875 4.65625C20.1375 4.65625 19.6562 4.175 19.6562 3.625C19.6562 3.075 20.1375 2.59375 20.6875 2.59375C21.2375 2.59375 21.7188 3.075 21.7188 3.625C21.7188 4.175 21.2375 4.65625 20.6875 4.65625Z" fill="white"/>
</svg>
