<svg xmlns="http://www.w3.org/2000/svg" width="32.003" height="41.998" viewBox="0 0 32.003 41.998">
  <path id="Union_1" data-name="Union 1"
    d="M13917.336,16965.664a5.334,5.334,0,1,1,5.337,5.336A5.336,5.336,0,0,1,13917.336,16965.664Zm-21.334-7.658a8,8,0,1,1,8,8A8,8,0,0,1,13896,16958.006Zm28-6.67a1.333,1.333,0,1,1,1.333,1.334A1.334,1.334,0,0,1,13924.006,16951.336Zm-12-3.334a4.668,4.668,0,1,1,4.668,4.668A4.669,4.669,0,0,1,13912,16948Zm-16-7.336a6.667,6.667,0,1,1,6.665,6.67A6.666,6.666,0,0,1,13896,16940.666Zm24-2.666a4,4,0,1,1,4,4A4,4,0,0,1,13920,16938Zm-7.33-7a2,2,0,1,1,2,2A2,2,0,0,1,13912.672,16931Z"
    transform="translate(-13896.002 -16929.002)" fill="#fff" />
</svg>