<svg xmlns="http://www.w3.org/2000/svg" width="19.813" height="20" viewBox="0 0 19.813 20">
  <g id="Group_28" data-name="Group 28" transform="translate(-3.112 -3)">
    <path id="Path_18" data-name="Path 18" d="M21.456,6.861h-2.15A2.708,2.708,0,0,0,19.269,4.5a2.741,2.741,0,0,0-4.649-.38l-1.6,2.178-1.6-2.176a2.741,2.741,0,0,0-4.648.375,2.711,2.711,0,0,0-.038,2.369H4.574A1.466,1.466,0,0,0,3.112,8.33v1.56a1.459,1.459,0,0,0,1.461,1.461H21.456a1.466,1.466,0,0,0,1.469-1.461V8.33A1.473,1.473,0,0,0,21.456,6.861Zm-5.5-1.768a1.089,1.089,0,0,1,1.846.151,1.094,1.094,0,0,1-.959,1.591l-2.18.015ZM8.239,5.24a1.088,1.088,0,0,1,1.845-.146L11.377,6.85,9.2,6.835A1.093,1.093,0,0,1,8.239,5.24Z" fill="#0089ff"/>
    <path id="Path_19" data-name="Path 19" d="M4.787,22.582A2.424,2.424,0,0,0,7.214,25H19.382a2.424,2.424,0,0,0,2.427-2.419V15H4.787Z" transform="translate(-0.279 -2.001)" fill="#0089ff"/>
  </g>
</svg>
