<svg xmlns="http://www.w3.org/2000/svg" width="82.442" height="26.046" viewBox="0 0 82.442 26.046">
  <path id="voucher" d="M91.729,94.325a1.62,1.62,0,0,0,1.379-1.608V87.775a2.444,2.444,0,0,0-2.442-2.442H38.69v.407a.814.814,0,1,1-1.628,0v-.407H13.109a2.445,2.445,0,0,0-2.442,2.442v4.942a1.62,1.62,0,0,0,1.379,1.608,4.07,4.07,0,0,1,0,8.062A1.62,1.62,0,0,0,10.667,104v4.942a2.445,2.445,0,0,0,2.442,2.442H37.062v-.407a.814.814,0,1,1,1.628,0v.407H90.667a2.445,2.445,0,0,0,2.442-2.442V104a1.62,1.62,0,0,0-1.379-1.608,4.07,4.07,0,0,1,0-8.062ZM38.69,107.445a.814.814,0,1,1-1.628,0v-1.9a.814.814,0,1,1,1.628,0Zm0-5.426a.814.814,0,1,1-1.628,0v-1.9a.814.814,0,1,1,1.628,0Zm0-5.426a.814.814,0,1,1-1.628,0v-1.9a.814.814,0,1,1,1.628,0Zm0-5.426a.814.814,0,1,1-1.628,0v-1.9a.814.814,0,1,1,1.628,0Z" transform="translate(-10.667 -85.333)" fill="#e6e6e6"/>
</svg>
