<svg width="120" height="80" viewBox="0 0 172 111" fill="none" xmlns="http://www.w3.org/2000/svg">
<g clip-path="url(#clip0_1047_366)">
<path d="M0.0130239 84.3445V83.7656H8.33529V95.9293C10.7838 88.7982 13.4146 83.1274 18.6372 83.1274C22.7983 83.1274 25.084 86.7259 25.084 92.6335V95.9951C27.539 88.8047 30.1764 83.1274 35.451 83.1274C39.6056 83.1274 41.8327 86.7259 41.8327 92.6335V108.277C41.8327 109.725 44.4701 109.843 45.4078 109.843V110.422H33.5105V109.843C34.5068 109.843 37.0855 109.731 37.0855 108.356V93.3308C37.0855 88.1732 35.438 84.7589 33.1588 84.7589C29.7661 84.7589 26.6534 92.4624 25.0775 97.8568V108.29C25.0775 109.738 27.6562 109.856 28.6526 109.856V110.435H16.7617V109.856C17.6995 109.856 20.3368 109.744 20.3368 108.369V93.3439C20.3368 88.1864 18.6958 84.7721 16.4101 84.7721C13.0174 84.7721 9.96979 92.4229 8.32878 97.8108V107.744C8.32878 109.192 9.79397 109.889 11.8452 109.889V110.468H0V109.889C2.05126 109.889 3.57506 109.31 3.57506 107.975V87.6074C3.58808 85.3576 2.06429 84.3708 0.0130239 84.3708V84.3445Z" fill="#1D6E65"/>
<path d="M74.438 109.843C72.5691 109.843 71.2732 109.382 71.2732 108.738V97.0344C71.2732 88.798 67.3921 83.1799 59.8578 83.1799C55.3515 83.1799 50.8974 85.2127 48.6117 89.0348L51.1253 94.4753C53.5933 88.0481 55.3906 83.7588 59.9099 83.7588C65.0087 83.7588 66.233 89.0875 66.4739 93.7846C55.5274 94.8832 47.2051 96.8568 47.2051 103.751C47.2051 109.08 52.5384 110.994 56.8037 110.994C61.5509 110.994 64.5203 108.613 66.526 104.79V110.409H74.7832V109.83H74.4315L74.438 109.843ZM66.5325 103.764C64.8915 107.817 61.3165 110.422 57.5721 110.422C53.2938 110.422 51.9523 106.948 51.9523 104.166C51.9523 97.6791 59.3303 95.074 66.4739 94.3766C66.4739 95.0082 66.5325 95.6529 66.5325 96.2318V103.764Z" fill="#1D6E65"/>
<path d="M87.3838 83.7676C83.8673 83.7676 81.4123 85.7543 81.4123 88.1686C81.4123 94.6551 99.6197 95.0629 99.6197 103.569C99.6197 107.97 94.7032 110.99 88.3801 110.99C82.9947 110.99 78.0717 108.786 75.9618 105.135L78.4233 99.6679C80.9956 106.273 84.7464 110.391 89.6044 110.391C92.945 110.391 95.3414 108.404 95.3414 105.694C95.3414 98.3391 77.134 98.8588 77.134 90.1619C77.134 86.0503 81.1518 83.1492 87.4359 83.1492C92.7105 83.1492 96.8652 85.1754 98.9815 89.0041L96.5265 94.4709C94.2474 88.0502 92.5347 83.7676 87.3838 83.7676Z" fill="#1D6E65"/>
<path d="M118.355 83.1673C112.793 83.1673 108.984 87.3973 107.577 93.4232V73.1152H99.2616V73.6941L99.6003 73.7139C100.03 73.6941 100.46 73.7599 100.857 73.9178C101.261 74.0691 101.619 74.306 101.925 74.6086C102.231 74.9112 102.466 75.2664 102.622 75.6611C102.772 76.0624 102.843 76.4835 102.83 76.9045V110.409L107.571 110.791V103.804C108.977 108.561 112.787 110.995 117.58 110.995C124.723 110.995 129.588 105.376 129.588 97.0809C129.588 88.7854 124.73 83.1739 118.348 83.1739L118.355 83.1673ZM116.486 109.817C111.849 109.817 107.577 106.172 107.577 99.39V98.8111C107.577 90.7589 111.498 84.3251 116.714 84.3251C121.402 84.3251 124.854 89.5287 124.854 97.4822C124.854 104.857 121.923 109.824 116.486 109.824V109.817Z" fill="#1D6E65"/>
<path d="M142.097 109.844C141.667 109.864 141.244 109.798 140.847 109.64C140.443 109.495 140.085 109.252 139.785 108.949C139.486 108.647 139.258 108.291 139.108 107.897C138.965 107.495 138.9 107.074 138.932 106.653V83.7666H130.604V84.3455H130.968C131.222 84.3324 131.489 84.3521 131.75 84.4113C131.919 84.4442 132.075 84.4968 132.232 84.5495C132.629 84.7008 132.993 84.9376 133.3 85.2402C133.599 85.5362 133.834 85.8981 133.99 86.2928C134.029 86.4112 134.074 86.5296 134.101 86.6612C134.179 86.9506 134.205 87.2467 134.192 87.5361V106.66C134.211 107.081 134.146 107.509 133.99 107.903C133.84 108.298 133.599 108.66 133.293 108.956C132.993 109.259 132.629 109.489 132.232 109.647C131.828 109.798 131.398 109.87 130.975 109.851H130.623V110.429H142.455V109.851H142.11L142.097 109.844Z" fill="#1D6E65"/>
<path d="M139.447 71.5031C139.271 71.0557 139.004 70.6413 138.652 70.2926C138.301 69.9439 137.89 69.6808 137.428 69.5032C136.966 69.3256 136.484 69.2532 135.989 69.2729C135.494 69.2532 135.006 69.3321 134.55 69.5032C134.094 69.6742 133.671 69.9439 133.326 70.2926C132.98 70.6413 132.7 71.0426 132.525 71.5031C132.342 71.957 132.264 72.4438 132.297 72.9306C132.297 75.1344 133.807 76.5291 135.989 76.5291C138.17 76.5291 139.675 75.141 139.675 72.9306C139.701 72.4438 139.629 71.9636 139.447 71.5031Z" fill="#1D6E65"/>
<path d="M171.648 109.843C169.779 109.843 168.484 109.382 168.484 108.738V97.0344C168.484 88.798 164.602 83.1799 157.075 83.1799C152.985 83.1799 148.954 84.8443 146.545 87.9889C146.278 88.3178 146.043 88.673 145.828 89.0348L148.342 94.4753C148.902 93.0017 149.443 91.6334 149.977 90.4098C151.774 86.2982 153.643 83.7588 157.12 83.7588C162.226 83.7588 163.443 89.0875 163.684 93.7846C160.884 94.0674 158.253 94.4029 155.889 94.8634C150.836 95.8568 147.007 97.4225 145.347 100.225C144.741 101.231 144.422 102.396 144.422 103.751C144.422 108.021 147.841 110.093 151.403 110.751C152.288 110.915 153.174 110.987 154.021 110.987C158.761 110.987 161.731 108.606 163.743 104.784V110.402H171.993V109.823H171.642L171.648 109.843ZM163.749 103.764C162.108 107.817 158.527 110.422 154.789 110.422C150.511 110.422 149.163 106.948 149.163 104.166C149.163 99.7776 152.542 97.1659 156.944 95.7187C159.041 95.0279 161.379 94.6003 163.691 94.3766C163.691 95.0082 163.756 95.6529 163.756 96.2318V103.764H163.749Z" fill="#1D6E65"/>
<path d="M63.765 0L84.1994 77.8506C83.4571 79.0611 82.6952 80.7255 82.4542 81.1991L81.8161 80.5413C62.3909 43.9645 63.4849 4.27606 63.6543 0H63.7715H63.765Z" fill="#B59568"/>
<path d="M58.5164 72.4804L33.7124 68.007C38.44 62.0402 43.8124 48.7976 44.0468 48.3173C44.2878 47.8371 58.4187 22.0689 59.9881 20.8782V48.3173L58.5164 72.4804Z" fill="#1C4C4A"/>
<path d="M82.4608 81.1991L81.5426 80.8373C75.1999 77.1007 66.78 74.5351 57.9237 72.4825L57.0381 35.4979L36.3692 68.6078C21.3201 66.7921 8.41343 66.2198 5.71098 66.1737V65.8382C10.621 62.6805 49.7968 36.8465 63.6347 0C63.4784 4.28922 62.6123 44.6224 82.4608 81.1991Z" fill="#1D6E65"/>
<path d="M94.052 66.4026L91.2844 66.521L83.9064 48.9233L73.5719 20.2869L103.703 58.3307L94.0585 66.4026H94.052Z" fill="#997D65"/>
<path d="M115.554 50.3523V50.9575C111.198 53.0561 107.043 55.9309 103.097 58.7597L80.9565 33.1099L94.2409 66.2198C90.3923 69.9038 86.8759 73.6338 83.9911 78.1533L63.5891 0H63.791C85.313 27.2944 103.364 42.2935 115.554 50.3523Z" fill="#B59568"/>
</g>
<defs>
<clipPath id="clip0_1047_366">
<rect width="172" height="111" fill="white"/>
</clipPath>
</defs>
</svg>
