<svg width="250" height="98" viewBox="0 0 250 98" fill="none" xmlns="http://www.w3.org/2000/svg">
<g clip-path="url(#clip0_2141_1215)">
<path d="M196.998 39.4897C197.602 39.4921 198.199 39.6155 198.754 39.8525C199.31 40.0896 199.812 40.4355 200.231 40.8699C200.651 41.3043 200.979 41.8183 201.196 42.3816C201.414 42.945 201.516 43.5462 201.498 44.1497C201.498 47.0697 199.628 49.0697 196.998 49.0697C194.368 49.0697 192.498 46.9397 192.498 44.1497C192.468 43.5433 192.562 42.9372 192.775 42.3688C192.989 41.8004 193.317 41.2818 193.738 40.845C194.16 40.4083 194.667 40.0626 195.227 39.8295C195.788 39.5964 196.391 39.4808 196.998 39.4897Z" fill="white"/>
<path d="M80.1294 7.58046C80.0909 7.38198 79.9812 7.20439 79.821 7.08102C79.6608 6.95766 79.4611 6.89701 79.2594 6.91046C79.1472 6.89589 79.0332 6.9059 78.9252 6.93981C78.8173 6.97371 78.718 7.0307 78.6343 7.10681C78.5505 7.18292 78.4844 7.27634 78.4404 7.38057C78.3964 7.48481 78.3755 7.59738 78.3794 7.71046C78.3794 8.78046 80.7594 8.64046 80.7594 10.5005C80.7543 10.7557 80.6982 11.0072 80.5942 11.2404C80.4903 11.4735 80.3407 11.6834 80.1542 11.8578C79.9678 12.0321 79.7483 12.1673 79.5087 12.2553C79.2692 12.3434 79.0144 12.3825 78.7594 12.3705C78.3102 12.3777 77.871 12.2372 77.5094 11.9705C77.5094 11.7005 77.6294 11.3005 77.6294 10.9005H77.8794C78.0094 11.5705 78.3794 11.8305 78.8794 11.8305C79.3794 11.8305 79.8794 11.5705 79.8794 11.0405C79.8794 9.71046 77.5094 10.1105 77.5094 8.11046C77.4993 7.87886 77.5378 7.64771 77.6224 7.4319C77.707 7.21608 77.8359 7.02038 78.0008 6.85741C78.1656 6.69443 78.3628 6.56779 78.5796 6.48565C78.7964 6.4035 79.0279 6.36767 79.2594 6.38046C79.7092 6.36939 80.1496 6.51032 80.5094 6.78046C80.3794 7.05046 80.3794 7.31046 80.2594 7.58046H80.1294Z" fill="white"/>
<path d="M85.5128 6.51953V7.30953C84.9382 7.18618 84.3494 7.14243 83.7628 7.17953V8.90953H85.5128V9.56953C85.2628 9.56953 84.8828 9.43953 84.5128 9.43953H83.7628V11.5695C84.3494 11.6066 84.9382 11.5629 85.5128 11.4395V12.2295H82.6328V6.51953H85.5128Z" fill="white"/>
<path d="M88.5128 9.16953C89.3828 9.30953 89.7628 8.90953 89.7628 8.10953V7.57953C89.6428 6.91953 89.0128 7.04953 88.5128 7.04953V9.16953ZM87.3828 6.51953H89.0028C89.3728 6.51953 90.0028 6.51953 90.2528 6.77953C90.4854 6.83828 90.6891 6.97867 90.8267 7.17509C90.9644 7.37151 91.0269 7.61088 91.0028 7.84953C91.0193 8.22032 90.9023 8.58472 90.6729 8.8765C90.4435 9.16828 90.117 9.36806 89.7528 9.43953C90.2528 10.2395 90.6228 10.8995 91.1228 11.6995L91.5028 12.2295H90.0028L89.1228 10.4995C89.0028 10.2395 88.7528 9.83953 88.6228 9.56953H88.5028V12.2295H87.3828V6.51953Z" fill="white"/>
<path d="M94.8878 12.2295H94.6378C93.8878 10.3695 93.2578 8.37953 92.5078 6.51953C92.7171 6.54947 92.9242 6.5929 93.1278 6.64953C93.3778 6.64953 93.6278 6.51953 93.8878 6.51953C94.2661 7.9177 94.7235 9.29325 95.2578 10.6395C95.7578 9.30953 96.2578 7.97953 96.7578 6.51953C96.8778 6.51953 97.0078 6.64953 97.1378 6.64953C97.2032 6.57802 97.2917 6.53197 97.3878 6.51953C96.6378 8.37953 95.8778 10.2395 95.2578 12.2295H94.8878Z" fill="white"/>
<path d="M99.2578 6.51953C99.3878 6.51953 99.6278 6.64953 99.7578 6.64953C99.8878 6.64953 100.138 6.51953 100.388 6.51953V12.2295H99.2578V6.51953Z" fill="white"/>
<path d="M102.641 6.51953H103.511C104.511 7.83953 105.761 9.03953 106.891 10.5195V6.51953C106.956 6.59104 107.045 6.63709 107.141 6.64953C107.261 6.64953 107.391 6.51953 107.511 6.51953V12.2295H106.761C105.891 11.1695 105.011 10.1095 104.141 9.16953L103.261 8.23953V12.2395H102.641V6.51953Z" fill="white"/>
<path d="M114.51 12.0004C113.874 12.2587 113.195 12.3944 112.51 12.4004C112.117 12.4409 111.72 12.3987 111.344 12.2766C110.969 12.1545 110.623 11.9552 110.329 11.6915C110.035 11.4278 109.8 11.1055 109.638 10.7454C109.476 10.3853 109.392 9.99525 109.39 9.60042C109.361 9.16884 109.425 8.73609 109.579 8.33184C109.733 7.9276 109.973 7.56142 110.281 7.25842C110.59 6.95542 110.961 6.72276 111.368 6.57639C111.775 6.43002 112.209 6.3734 112.64 6.41042C113.301 6.40251 113.951 6.58662 114.51 6.94042C114.374 7.18779 114.289 7.45977 114.26 7.74042H114.14C113.977 7.4919 113.754 7.28836 113.492 7.14855C113.23 7.00874 112.937 6.93717 112.64 6.94042C111.26 6.94042 110.64 8.14042 110.64 9.60042C110.64 11.0604 111.39 11.8604 112.51 11.8604C112.821 11.8531 113.124 11.7634 113.39 11.6004V9.71042H114.51V12.0004Z" fill="white"/>
<path d="M77.7578 23.1396H78.5078C79.6278 24.4696 80.8778 25.6596 81.8778 26.9896V23.1396H82.5078V28.8496H81.8778C81.0078 27.7896 80.1278 26.7296 79.2578 25.7996L78.3778 24.8696V28.8696H77.7578V23.1396Z" fill="white"/>
<path d="M85.7616 26.2003C85.7616 27.2603 86.1316 28.4603 87.3816 28.4603C88.6316 28.4603 89.1316 27.1303 89.1316 25.8003C89.1316 24.7303 88.6316 23.5403 87.3816 23.5403C86.3816 23.5403 85.7616 24.3303 85.7616 26.2003ZM87.2616 29.0003C86.8634 29.0167 86.4663 28.9473 86.0973 28.7967C85.7283 28.6462 85.3959 28.4181 85.1228 28.1279C84.8497 27.8377 84.6421 27.4922 84.5142 27.1147C84.3863 26.7373 84.3411 26.3367 84.3816 25.9403C84.3732 25.5355 84.4499 25.1335 84.6068 24.7603C84.7637 24.387 84.9972 24.0509 85.2923 23.7738C85.5874 23.4966 85.9375 23.2845 86.3198 23.1512C86.7021 23.018 87.1081 22.9666 87.5116 23.0003C87.9024 22.9674 88.2957 23.0211 88.6634 23.1574C89.0312 23.2938 89.3644 23.5095 89.6393 23.7892C89.9143 24.0689 90.1242 24.4058 90.2542 24.7759C90.3843 25.1459 90.4311 25.54 90.3916 25.9303C90.4016 26.3413 90.327 26.7499 90.1724 27.1309C90.0179 27.5119 89.7866 27.857 89.4931 28.1449C89.1996 28.4328 88.8501 28.6572 88.4662 28.8044C88.0823 28.9515 87.6723 29.0182 87.2616 29.0003Z" fill="white"/>
<path d="M92.2588 23.1396H93.3788V25.5296C93.3627 26.0662 93.4064 26.6028 93.5088 27.1296C93.5048 27.3016 93.5355 27.4725 93.5991 27.6323C93.6627 27.7921 93.7578 27.9374 93.8788 28.0596C94.0004 28.1601 94.141 28.2348 94.2922 28.2795C94.4435 28.3242 94.6021 28.3378 94.7588 28.3196C95.0616 28.3607 95.3689 28.2885 95.6218 28.1168C95.8746 27.9452 96.0551 27.6862 96.1288 27.3896C96.2366 26.8197 96.2802 26.2394 96.2588 25.6596V23.1396H96.8888V26.0596C96.8888 26.9896 96.8888 27.9196 96.1288 28.4596C95.7083 28.8031 95.1818 28.9904 94.6388 28.9896C94.1544 29.0337 93.6692 28.9137 93.2612 28.6489C92.8532 28.3841 92.5459 27.99 92.3888 27.5296C92.2737 27.1854 92.2295 26.8214 92.2588 26.4596V23.1396Z" fill="white"/>
<path d="M100.381 25.7999C101.141 25.9299 101.511 25.5299 101.511 24.5999V24.1999C101.391 23.5399 100.761 23.5399 100.381 23.5399V25.7999ZM99.1406 23.1399H100.761C101.224 23.1189 101.689 23.1627 102.141 23.2699C102.334 23.4039 102.492 23.5834 102.6 23.7927C102.708 24.0019 102.763 24.2344 102.761 24.4699C102.773 24.8256 102.652 25.1731 102.42 25.4435C102.189 25.7139 101.864 25.8875 101.511 25.9299C102.013 26.7012 102.474 27.499 102.891 28.3199L103.261 28.8599H101.761L100.891 27.1299C100.761 26.8599 100.511 26.4599 100.381 26.1999V28.8599H99.1406V23.1399Z" fill="white"/>
<path d="M105.508 23.1396H105.008V28.8596H105.508H106.138V23.1396H105.508Z" fill="white"/>
<path d="M110.892 24.1999C110.807 24.005 110.667 23.8389 110.489 23.7218C110.312 23.6046 110.104 23.5415 109.892 23.5399C109.262 23.5399 109.142 23.7999 109.142 24.3299C109.142 25.3999 111.512 25.2599 111.512 27.1299C111.505 27.3951 111.443 27.656 111.331 27.8963C111.219 28.1366 111.058 28.3512 110.859 28.5267C110.66 28.7022 110.427 28.8348 110.175 28.9162C109.922 28.9976 109.656 29.0261 109.392 28.9999C108.945 28.9891 108.511 28.8502 108.142 28.5999C108.262 28.1999 108.262 27.9299 108.392 27.5399H108.512C108.557 27.8047 108.696 28.0443 108.904 28.215C109.111 28.3857 109.373 28.4762 109.642 28.4699C109.761 28.4687 109.878 28.4434 109.987 28.3955C110.096 28.3476 110.194 28.278 110.276 28.1911C110.357 28.1042 110.42 28.0016 110.46 27.8897C110.501 27.7778 110.518 27.6588 110.512 27.5399C110.512 26.2099 108.142 26.7399 108.142 24.7399C108.133 24.4987 108.177 24.2586 108.269 24.0356C108.361 23.8126 108.5 23.6119 108.676 23.4471C108.852 23.2822 109.062 23.157 109.29 23.0799C109.519 23.0027 109.762 22.9755 110.002 22.9999C110.444 23.0349 110.871 23.1718 111.252 23.3999C111.116 23.6473 111.031 23.9192 111.002 24.1999H110.892Z" fill="white"/>
<path d="M113.258 23.1396H113.888H114.508V25.3996H115.638H116.888V23.1396H117.388H118.008V28.8596H117.388H116.888V26.0596H115.638H114.508V28.8596H113.888H113.258V23.1396Z" fill="white"/>
<path d="M120.891 23.1396H120.391V28.8596H120.891H121.511V23.1396H120.891Z" fill="white"/>
<path d="M123.758 23.1396H124.638C125.758 24.4696 126.888 25.6596 128.008 26.9896V23.1396H128.638V28.8496H127.888C127.008 27.7896 126.138 26.7296 125.258 25.7996L124.388 24.8696V28.8696H123.758V23.1396Z" fill="white"/>
<path d="M135.639 28.5904C134.986 28.785 134.317 28.9189 133.639 28.9904C133.235 29.0289 132.828 28.9811 132.445 28.8502C132.061 28.7193 131.709 28.5083 131.413 28.2313C131.117 27.9542 130.884 27.6174 130.728 27.2431C130.572 26.8688 130.497 26.4657 130.509 26.0604C130.498 25.6418 130.577 25.2257 130.74 24.8399C130.903 24.4542 131.146 24.1077 131.454 23.8236C131.762 23.5396 132.126 23.3246 132.524 23.1929C132.922 23.0613 133.343 23.0161 133.759 23.0604C134.424 23.0476 135.078 23.2321 135.639 23.5904C135.498 23.8318 135.412 24.1017 135.389 24.3804H135.259C135.098 24.1311 134.875 23.9275 134.612 23.7891C134.35 23.6508 134.056 23.5823 133.759 23.5904C132.389 23.5904 131.759 24.7804 131.759 26.2404C131.759 27.7004 132.509 28.5104 133.639 28.5104C133.951 28.5199 134.257 28.4249 134.509 28.2404V26.3304H135.639V28.5904Z" fill="white"/>
<path d="M82.5128 39.76H83.1328C83.3828 42.02 83.5128 43.76 83.7628 45.48C83.5781 45.3552 83.353 45.3052 83.1328 45.34C82.9164 45.318 82.6988 45.3671 82.5128 45.48C82.5128 44.15 82.2628 42.82 82.1328 41.48C81.6328 42.81 81.0128 44.14 80.5128 45.33H80.1328C79.6328 44.27 79.0128 42.94 78.5128 41.61C78.2749 42.8833 78.1478 44.1748 78.1328 45.47C78.0874 45.4181 78.0299 45.3781 77.9653 45.3537C77.9008 45.3293 77.8312 45.3212 77.7628 45.33C77.6929 45.3212 77.6219 45.3293 77.5557 45.3537C77.4896 45.378 77.4303 45.4179 77.3828 45.47C77.6328 43.74 77.8828 41.88 78.2628 39.75H78.8828C79.3828 41.08 80.0128 42.28 80.6328 43.6C81.2628 42.41 81.8828 41.08 82.5128 39.75" fill="white"/>
<path d="M88.6328 39.7598C88.5636 39.8297 88.5211 39.9217 88.5128 40.0198C88.5035 40.0911 88.5093 40.1637 88.53 40.2326C88.5507 40.3016 88.5857 40.3653 88.6328 40.4198C88.1328 40.4198 87.6328 40.2898 86.7628 40.2898V42.1498H87.6328C87.8828 42.1498 88.2628 42.0198 88.5128 42.0198V42.6798H86.7628V44.8098C87.6328 44.8098 88.1328 44.6798 88.6328 44.6798C88.5868 44.7348 88.5524 44.7987 88.5318 44.8675C88.5111 44.9362 88.5047 45.0084 88.5128 45.0798C88.5211 45.1778 88.5636 45.2698 88.6328 45.3398H85.6328V39.7598H88.6328Z" fill="white"/>
<path d="M92.8928 43.2199L92.1328 41.2199L91.3828 43.2199H92.8928ZM91.2628 43.7499C91.0128 44.2799 90.8928 44.8099 90.6328 45.3399H89.8828L92.1328 39.6299H92.7628L94.8828 45.4799C94.7628 45.3399 94.5128 45.3399 94.2628 45.3399C94.0431 45.3156 93.8216 45.3649 93.6328 45.4799C93.3828 44.8099 93.2628 44.2799 93.0128 43.7499H91.2628Z" fill="white"/>
<path d="M97.7628 44.8098C98.5128 44.8098 99.0128 44.6798 99.5128 44.6798V45.3398H96.6328V39.7598H97.7628V44.8098Z" fill="white"/>
<path d="M103.891 40.8197C103.641 40.4197 103.391 40.0197 102.891 40.0197C102.788 40.0195 102.686 40.0404 102.592 40.0812C102.498 40.122 102.413 40.1817 102.342 40.2568C102.272 40.3318 102.218 40.4205 102.183 40.5173C102.149 40.6142 102.134 40.7171 102.141 40.8197C102.141 42.0197 104.511 41.7497 104.511 43.7497C104.511 44.8097 103.641 45.4797 102.391 45.4797C101.956 45.5219 101.52 45.4275 101.141 45.2097C101.204 44.8518 101.287 44.4979 101.391 44.1497H101.511C101.554 44.4137 101.692 44.6531 101.897 44.824C102.103 44.9948 102.364 45.0857 102.631 45.0797C102.863 45.0521 103.079 44.9439 103.239 44.774C103.4 44.6041 103.496 44.3832 103.511 44.1497C103.511 42.8197 101.141 43.3497 101.141 41.3497C101.136 41.1102 101.181 40.8723 101.275 40.6517C101.368 40.4311 101.507 40.2329 101.683 40.0703C101.859 39.9076 102.068 39.7843 102.295 39.7083C102.522 39.6323 102.763 39.6056 103.001 39.6297C103.452 39.6001 103.897 39.7391 104.251 40.0197C104.115 40.2671 104.03 40.5391 104.001 40.8197H103.891Z" fill="white"/>
<path d="M111.511 45.4798C111.391 45.3398 111.141 45.3398 110.891 45.3398C110.712 45.3185 110.532 45.3688 110.391 45.4798V40.2898C109.761 40.2898 109.261 40.4198 108.891 40.4198V39.7598H112.891V40.4198C112.511 40.4198 112.011 40.2898 111.511 40.2898V45.4798Z" fill="white"/>
<path d="M115.639 42.8201C115.639 43.8801 116.009 45.0801 117.259 45.0801C118.509 45.0801 118.999 43.75 118.999 42.42C118.999 41.35 118.499 40.03 117.249 40.03C116.249 40.03 115.629 40.9601 115.629 42.8201M117.129 45.4801C116.741 45.5009 116.353 45.4389 115.991 45.2984C115.629 45.1578 115.3 44.9418 115.028 44.6647C114.756 44.3876 114.545 44.0558 114.411 43.6912C114.277 43.3266 114.222 42.9376 114.249 42.55C114.242 42.1465 114.32 41.746 114.477 41.3744C114.635 41.0029 114.869 40.6686 115.164 40.3933C115.459 40.1179 115.809 39.9077 116.19 39.7762C116.572 39.6448 116.977 39.595 117.379 39.6301C117.769 39.5972 118.161 39.6506 118.527 39.7864C118.894 39.9223 119.226 40.1372 119.5 40.416C119.774 40.6948 119.983 41.0306 120.113 41.3994C120.242 41.7683 120.289 42.1611 120.249 42.55C120.257 42.9535 120.181 43.3542 120.025 43.7263C119.868 44.0983 119.635 44.4333 119.341 44.7095C119.047 44.9858 118.698 45.1971 118.317 45.3299C117.936 45.4626 117.531 45.5138 117.129 45.4801Z" fill="white"/>
<path d="M127.511 43.2199L126.891 41.2199L126.141 43.2199H127.511ZM125.891 43.7499C125.761 44.2799 125.511 44.8099 125.391 45.3399H124.641L126.891 39.6299H127.511L129.641 45.4799C129.447 45.3784 129.229 45.3301 129.011 45.3399C128.753 45.3178 128.493 45.3662 128.261 45.4799C128.174 44.8831 128.005 44.3011 127.761 43.7499H125.891Z" fill="white"/>
<path d="M132.508 44.8098C133.138 44.8098 133.758 44.6798 134.258 44.6798V45.3398H131.258V39.7598H132.508V44.8098Z" fill="white"/>
<path d="M137.261 44.8098C138.011 44.8098 138.511 44.6798 139.141 44.6798C139.091 44.7326 139.053 44.7959 139.031 44.8651C139.008 44.9343 139.001 45.0076 139.011 45.0798C139.02 45.1797 139.066 45.2725 139.141 45.3398H136.141V39.7598H137.261V44.8098Z" fill="white"/>
<path d="M80.5128 86.8297C80.5128 92.4197 83.1328 95.7396 87.1328 95.7396C93.0128 95.7396 97.3828 89.3596 97.3828 78.3196V71.4097C86.0028 72.9997 80.5128 78.0597 80.5128 86.8297ZM84.2628 97.5996C77.2628 97.5996 72.6328 93.3496 72.6328 87.0996C72.6328 78.0996 80.6328 72.8696 97.3828 70.2096V64.6197C97.3828 56.9097 95.0128 53.6196 88.8928 53.6196C83.2628 53.6196 79.2628 56.4096 79.2628 58.1396C79.2628 59.1696 84.0028 59.9996 84.0028 63.9996C84.0044 64.5697 83.8913 65.1343 83.6703 65.6597C83.4492 66.1852 83.1247 66.6608 82.716 67.0583C82.3074 67.4558 81.8229 67.7669 81.2915 67.9733C80.7601 68.1797 80.1926 68.2771 79.6228 68.2597C77.0028 68.2197 75.0028 66.0896 75.0028 62.7596C75.0028 57.1796 80.8728 52.3896 89.6228 52.3896C94.7528 52.3896 98.8828 53.9896 101.133 56.7796C103.753 59.9696 103.883 63.9597 103.883 69.4097V88.4097C103.883 93.1897 104.133 95.4097 106.383 95.4097C108.883 95.4097 111.133 91.5497 111.133 84.4097V83.8796H112.003V85.0996C112.003 93.2096 109.253 97.4697 104.253 97.4697C100.003 97.4697 97.7628 93.9996 97.6428 86.9996C95.2628 93.9996 90.8828 97.5996 84.2628 97.5996Z" fill="white"/>
<path d="M218.497 86.8297C218.497 92.4197 221.117 95.7397 225.117 95.7397C230.997 95.7397 235.367 89.3597 235.367 78.3197V71.4097C223.997 72.9997 218.497 78.0597 218.497 86.8297ZM222.247 97.5997C215.247 97.5997 210.617 93.3497 210.617 87.0997C210.617 78.0997 218.617 72.8697 235.367 70.2097V64.6197C235.367 56.9097 232.997 53.6197 226.867 53.6197C221.247 53.6197 217.247 56.4097 217.247 58.1397C217.247 59.1697 221.997 59.9997 221.997 63.9997C221.999 64.5698 221.886 65.1343 221.665 65.6598C221.444 66.1852 221.119 66.6609 220.71 67.0583C220.302 67.4558 219.817 67.767 219.286 67.9734C218.754 68.1798 218.187 68.2771 217.617 68.2597C214.997 68.2597 212.997 66.1297 212.997 62.7997C212.997 57.2197 218.867 52.4297 227.617 52.4297C232.747 52.4297 236.867 54.0297 239.117 56.8197C241.747 60.0097 241.867 63.9997 241.867 69.4497V88.4497C241.867 93.2297 242.117 95.4497 244.367 95.4497C246.867 95.4497 249.117 91.5897 249.117 84.4497V83.9197H249.997V85.0997C249.997 93.2097 247.247 97.4697 242.247 97.4697C237.997 97.4697 235.747 94.0097 235.617 86.9597C233.247 93.9997 228.867 97.5997 222.247 97.5997Z" fill="white"/>
<path d="M0.63 94.2803H3C7.13 94.2803 7.88 93.4803 7.88 89.2203V62.6303C7.88 57.0503 6.88 55.5803 1.25 55.5803H0V54.1203L14.5 53.7203V66.6203L14.88 66.7503C17.13 57.9803 21.88 53.3203 27.38 53.3203C33.38 53.3203 37.13 57.9803 38.38 66.6203L38.88 66.7503C41.13 57.9803 45.75 53.3203 51.38 53.3203C58.51 53.3203 62.51 59.5703 62.51 71.8103V89.2203C62.51 93.4803 63.26 94.2803 67.13 94.2803H69.88V95.6103H49.13V94.2803H51.38C55.13 94.2803 56.01 93.4803 56.01 89.2203V63.8303C56.01 57.9803 54.13 55.1803 50.25 55.1803C43.88 55.1803 38.38 63.9603 38.38 79.1203V89.2203C38.38 93.4803 39.25 94.2803 43.13 94.2803H45.13V95.6103H26.13V94.2803H27.25C31.13 94.2803 32 93.4803 32 89.2203V63.8303C32 57.9803 30.13 55.1803 26.25 55.1803C19.75 55.1803 14.5 63.9603 14.5 79.1203V89.2203C14.5 93.2203 15.25 94.2803 19 94.2803H21.38V95.6103H0.63V94.2803Z" fill="white"/>
<path d="M116.388 78.8496H117.508C120.888 90.2896 126.888 96.1396 133.258 96.1396C138.258 96.1396 141.258 93.2097 141.258 88.8297C141.258 84.8297 139.258 82.7096 134.888 80.4496C129.388 77.7896 124.888 76.1897 121.638 73.7997C118.008 70.8797 116.258 67.7996 116.258 63.9596C116.258 57.5796 121.008 52.3896 127.258 52.3896C133.888 52.3896 137.138 57.3896 138.888 57.3896C140.138 57.3896 141.258 55.7997 142.008 52.4697H143.138V68.9996H141.998C139.128 59.1596 133.498 53.7096 127.878 53.7096C123.128 53.7096 120.498 56.2397 120.498 60.6297C120.498 64.4797 122.498 67.0096 126.748 68.9996C131.998 71.3996 136.378 72.9997 139.628 75.1197C143.878 78.1797 146.128 81.6397 146.128 85.6197C146.128 92.5397 141.378 97.4596 133.878 97.4596C130.628 97.4596 127.878 96.2596 124.878 93.9996C123.378 92.8096 122.248 91.6096 121.128 91.6096C119.498 91.6096 118.378 93.6096 117.498 97.4596H116.378L116.388 78.8496Z" fill="white"/>
<path d="M170.001 96.2703C176.621 96.2703 180.251 89.2703 180.251 75.4003C180.251 61.3003 177.001 54.4003 170.121 54.4003C163.241 54.4003 158.371 62.2403 158.371 76.0703C158.371 89.0703 162.751 96.2803 170.001 96.2803M151.891 42.1503C151.891 34.3103 151.021 31.9103 144.391 31.5203V30.3203H158.391V63.7003H158.891C161.271 56.7803 165.391 53.0603 170.891 53.0603C180.271 53.0603 187.771 62.2303 187.771 75.6603C187.804 78.8927 187.19 82.099 185.966 85.0906C184.741 88.0823 182.931 90.7988 180.641 93.0803C177.806 95.8809 173.985 97.4572 170.001 97.4703C164.621 97.4703 160.251 94.1503 157.621 87.9003H157.001L153.371 97.0703H151.871L151.891 42.1503Z" fill="white"/>
<path d="M201.52 44.1497C201.52 47.0697 199.65 49.0697 197.02 49.0697C194.39 49.0697 192.52 46.9397 192.52 44.1497C192.49 43.5433 192.584 42.9372 192.798 42.3688C193.011 41.8004 193.339 41.2818 193.761 40.845C194.182 40.4083 194.689 40.0626 195.25 39.8295C195.81 39.5964 196.413 39.4808 197.02 39.4897C197.624 39.4921 198.221 39.6155 198.777 39.8525C199.332 40.0896 199.834 40.4355 200.254 40.8699C200.673 41.3043 201.001 41.8183 201.219 42.3816C201.436 42.945 201.539 43.5462 201.52 44.1497ZM188.14 55.5797H187V54.1197L201.38 53.7197V89.2297C201.38 93.2297 202.13 94.2297 205.88 94.2297H208.25V95.5597H187.52V94.2797H189.89C194.02 94.2797 194.77 93.4797 194.77 89.2797V62.6297C194.77 57.0497 193.77 55.5797 188.14 55.5797Z" fill="white"/>
<path d="M37.6328 0H37.2528H36.1328L43.0128 41.22L37.6328 0Z" fill="white"/>
<path d="M73.26 0H38.25L73.26 30.05V0Z" fill="white"/>
<path d="M25.38 29.9199L14.5 41.8899L0.5 38.1599V49.1999H37.88H42.5L27.75 45.2099L25.38 29.9199Z" fill="white"/>
<path d="M0.5 36.3L35.75 0H30.88H0.5V36.3Z" fill="white"/>
<path d="M63.8778 38.16L55.1278 29.79L57.7578 41.75L45.2578 49.2H73.2578V32.18L63.8778 38.16Z" fill="white"/>
<path d="M196.998 39.4897C197.602 39.4921 198.199 39.6155 198.754 39.8525C199.31 40.0896 199.812 40.4355 200.231 40.8699C200.651 41.3043 200.979 41.8183 201.196 42.3816C201.414 42.945 201.516 43.5462 201.498 44.1497C201.498 47.0697 199.628 49.0697 196.998 49.0697C194.368 49.0697 192.498 46.9397 192.498 44.1497C192.468 43.5433 192.562 42.9372 192.775 42.3688C192.989 41.8004 193.317 41.2818 193.738 40.845C194.16 40.4083 194.667 40.0626 195.227 39.8295C195.788 39.5964 196.391 39.4808 196.998 39.4897Z" fill="white"/>
<path d="M80.1294 7.58046C80.0909 7.38198 79.9812 7.20439 79.821 7.08102C79.6608 6.95766 79.4611 6.89701 79.2594 6.91046C79.1472 6.89589 79.0332 6.9059 78.9252 6.93981C78.8173 6.97371 78.718 7.0307 78.6343 7.10681C78.5505 7.18292 78.4844 7.27634 78.4404 7.38057C78.3964 7.48481 78.3755 7.59738 78.3794 7.71046C78.3794 8.78046 80.7594 8.64046 80.7594 10.5005C80.7543 10.7557 80.6982 11.0072 80.5942 11.2404C80.4903 11.4735 80.3407 11.6834 80.1542 11.8578C79.9678 12.0321 79.7483 12.1673 79.5087 12.2553C79.2692 12.3434 79.0144 12.3825 78.7594 12.3705C78.3102 12.3777 77.871 12.2372 77.5094 11.9705C77.5094 11.7005 77.6294 11.3005 77.6294 10.9005H77.8794C78.0094 11.5705 78.3794 11.8305 78.8794 11.8305C79.3794 11.8305 79.8794 11.5705 79.8794 11.0405C79.8794 9.71046 77.5094 10.1105 77.5094 8.11046C77.4993 7.87886 77.5378 7.64771 77.6224 7.4319C77.707 7.21608 77.8359 7.02038 78.0008 6.85741C78.1656 6.69443 78.3628 6.56779 78.5796 6.48565C78.7964 6.4035 79.0279 6.36767 79.2594 6.38046C79.7092 6.36939 80.1496 6.51032 80.5094 6.78046C80.3794 7.05046 80.3794 7.31046 80.2594 7.58046H80.1294Z" fill="white"/>
<path d="M85.5128 6.51953V7.30953C84.9382 7.18618 84.3494 7.14243 83.7628 7.17953V8.90953H85.5128V9.56953C85.2628 9.56953 84.8828 9.43953 84.5128 9.43953H83.7628V11.5695C84.3494 11.6066 84.9382 11.5629 85.5128 11.4395V12.2295H82.6328V6.51953H85.5128Z" fill="white"/>
<path d="M88.5128 9.16953C89.3828 9.30953 89.7628 8.90953 89.7628 8.10953V7.57953C89.6428 6.91953 89.0128 7.04953 88.5128 7.04953V9.16953ZM87.3828 6.51953H89.0028C89.3728 6.51953 90.0028 6.51953 90.2528 6.77953C90.4854 6.83828 90.6891 6.97867 90.8267 7.17509C90.9644 7.37151 91.0269 7.61088 91.0028 7.84953C91.0193 8.22032 90.9023 8.58472 90.6729 8.8765C90.4435 9.16828 90.117 9.36806 89.7528 9.43953C90.2528 10.2395 90.6228 10.8995 91.1228 11.6995L91.5028 12.2295H90.0028L89.1228 10.4995C89.0028 10.2395 88.7528 9.83953 88.6228 9.56953H88.5028V12.2295H87.3828V6.51953Z" fill="white"/>
<path d="M94.8878 12.2295H94.6378C93.8878 10.3695 93.2578 8.37953 92.5078 6.51953C92.7171 6.54947 92.9242 6.5929 93.1278 6.64953C93.3778 6.64953 93.6278 6.51953 93.8878 6.51953C94.2661 7.9177 94.7235 9.29325 95.2578 10.6395C95.7578 9.30953 96.2578 7.97953 96.7578 6.51953C96.8778 6.51953 97.0078 6.64953 97.1378 6.64953C97.2032 6.57802 97.2917 6.53197 97.3878 6.51953C96.6378 8.37953 95.8778 10.2395 95.2578 12.2295H94.8878Z" fill="white"/>
<path d="M99.2578 6.51953C99.3878 6.51953 99.6278 6.64953 99.7578 6.64953C99.8878 6.64953 100.138 6.51953 100.388 6.51953V12.2295H99.2578V6.51953Z" fill="white"/>
<path d="M102.641 6.51953H103.511C104.511 7.83953 105.761 9.03953 106.891 10.5195V6.51953C106.956 6.59104 107.045 6.63709 107.141 6.64953C107.261 6.64953 107.391 6.51953 107.511 6.51953V12.2295H106.761C105.891 11.1695 105.011 10.1095 104.141 9.16953L103.261 8.23953V12.2395H102.641V6.51953Z" fill="white"/>
<path d="M114.51 12.0004C113.874 12.2587 113.195 12.3944 112.51 12.4004C112.117 12.4409 111.72 12.3987 111.344 12.2766C110.969 12.1545 110.623 11.9552 110.329 11.6915C110.035 11.4278 109.8 11.1055 109.638 10.7454C109.476 10.3853 109.392 9.99525 109.39 9.60042C109.361 9.16884 109.425 8.73609 109.579 8.33184C109.733 7.9276 109.973 7.56142 110.281 7.25842C110.59 6.95542 110.961 6.72276 111.368 6.57639C111.775 6.43002 112.209 6.3734 112.64 6.41042C113.301 6.40251 113.951 6.58662 114.51 6.94042C114.374 7.18779 114.289 7.45977 114.26 7.74042H114.14C113.977 7.4919 113.754 7.28836 113.492 7.14855C113.23 7.00874 112.937 6.93717 112.64 6.94042C111.26 6.94042 110.64 8.14042 110.64 9.60042C110.64 11.0604 111.39 11.8604 112.51 11.8604C112.821 11.8531 113.124 11.7634 113.39 11.6004V9.71042H114.51V12.0004Z" fill="white"/>
<path d="M77.7578 23.1396H78.5078C79.6278 24.4696 80.8778 25.6596 81.8778 26.9896V23.1396H82.5078V28.8496H81.8778C81.0078 27.7896 80.1278 26.7296 79.2578 25.7996L78.3778 24.8696V28.8696H77.7578V23.1396Z" fill="white"/>
<path d="M85.7616 26.2003C85.7616 27.2603 86.1316 28.4603 87.3816 28.4603C88.6316 28.4603 89.1316 27.1303 89.1316 25.8003C89.1316 24.7303 88.6316 23.5403 87.3816 23.5403C86.3816 23.5403 85.7616 24.3303 85.7616 26.2003ZM87.2616 29.0003C86.8634 29.0167 86.4663 28.9473 86.0973 28.7967C85.7283 28.6462 85.3959 28.4181 85.1228 28.1279C84.8497 27.8377 84.6421 27.4922 84.5142 27.1147C84.3863 26.7373 84.3411 26.3367 84.3816 25.9403C84.3732 25.5355 84.4499 25.1335 84.6068 24.7603C84.7637 24.387 84.9972 24.0509 85.2923 23.7738C85.5874 23.4966 85.9375 23.2845 86.3198 23.1512C86.7021 23.018 87.1081 22.9666 87.5116 23.0003C87.9024 22.9674 88.2957 23.0211 88.6634 23.1574C89.0312 23.2938 89.3644 23.5095 89.6393 23.7892C89.9143 24.0689 90.1242 24.4058 90.2542 24.7759C90.3843 25.1459 90.4311 25.54 90.3916 25.9303C90.4016 26.3413 90.327 26.7499 90.1724 27.1309C90.0179 27.5119 89.7866 27.857 89.4931 28.1449C89.1996 28.4328 88.8501 28.6572 88.4662 28.8044C88.0823 28.9515 87.6723 29.0182 87.2616 29.0003Z" fill="white"/>
<path d="M92.2588 23.1396H93.3788V25.5296C93.3627 26.0662 93.4064 26.6028 93.5088 27.1296C93.5048 27.3016 93.5355 27.4725 93.5991 27.6323C93.6627 27.7921 93.7578 27.9374 93.8788 28.0596C94.0004 28.1601 94.141 28.2348 94.2922 28.2795C94.4435 28.3242 94.6021 28.3378 94.7588 28.3196C95.0616 28.3607 95.3689 28.2885 95.6218 28.1168C95.8746 27.9452 96.0551 27.6862 96.1288 27.3896C96.2366 26.8197 96.2802 26.2394 96.2588 25.6596V23.1396H96.8888V26.0596C96.8888 26.9896 96.8888 27.9196 96.1288 28.4596C95.7083 28.8031 95.1818 28.9904 94.6388 28.9896C94.1544 29.0337 93.6692 28.9137 93.2612 28.6489C92.8532 28.3841 92.5459 27.99 92.3888 27.5296C92.2737 27.1854 92.2295 26.8214 92.2588 26.4596V23.1396Z" fill="white"/>
<path d="M100.381 25.7999C101.141 25.9299 101.511 25.5299 101.511 24.5999V24.1999C101.391 23.5399 100.761 23.5399 100.381 23.5399V25.7999ZM99.1406 23.1399H100.761C101.224 23.1189 101.689 23.1627 102.141 23.2699C102.334 23.4039 102.492 23.5834 102.6 23.7927C102.708 24.0019 102.763 24.2344 102.761 24.4699C102.773 24.8256 102.652 25.1731 102.42 25.4435C102.189 25.7139 101.864 25.8875 101.511 25.9299C102.013 26.7012 102.474 27.499 102.891 28.3199L103.261 28.8599H101.761L100.891 27.1299C100.761 26.8599 100.511 26.4599 100.381 26.1999V28.8599H99.1406V23.1399Z" fill="white"/>
<path d="M105.508 23.1396H105.008V28.8596H105.508H106.138V23.1396H105.508Z" fill="white"/>
<path d="M110.892 24.1999C110.807 24.005 110.667 23.8389 110.489 23.7218C110.312 23.6046 110.104 23.5415 109.892 23.5399C109.262 23.5399 109.142 23.7999 109.142 24.3299C109.142 25.3999 111.512 25.2599 111.512 27.1299C111.505 27.3951 111.443 27.656 111.331 27.8963C111.219 28.1366 111.058 28.3512 110.859 28.5267C110.66 28.7022 110.427 28.8348 110.175 28.9162C109.922 28.9976 109.656 29.0261 109.392 28.9999C108.945 28.9891 108.511 28.8502 108.142 28.5999C108.262 28.1999 108.262 27.9299 108.392 27.5399H108.512C108.557 27.8047 108.696 28.0443 108.904 28.215C109.111 28.3857 109.373 28.4762 109.642 28.4699C109.761 28.4687 109.878 28.4434 109.987 28.3955C110.096 28.3476 110.194 28.278 110.276 28.1911C110.357 28.1042 110.42 28.0016 110.46 27.8897C110.501 27.7778 110.518 27.6588 110.512 27.5399C110.512 26.2099 108.142 26.7399 108.142 24.7399C108.133 24.4987 108.177 24.2586 108.269 24.0356C108.361 23.8126 108.5 23.6119 108.676 23.4471C108.852 23.2822 109.062 23.157 109.29 23.0799C109.519 23.0027 109.762 22.9755 110.002 22.9999C110.444 23.0349 110.871 23.1718 111.252 23.3999C111.116 23.6473 111.031 23.9192 111.002 24.1999H110.892Z" fill="white"/>
<path d="M113.258 23.1396H113.888H114.508V25.3996H115.638H116.888V23.1396H117.388H118.008V28.8596H117.388H116.888V26.0596H115.638H114.508V28.8596H113.888H113.258V23.1396Z" fill="white"/>
<path d="M120.891 23.1396H120.391V28.8596H120.891H121.511V23.1396H120.891Z" fill="white"/>
<path d="M123.758 23.1396H124.638C125.758 24.4696 126.888 25.6596 128.008 26.9896V23.1396H128.638V28.8496H127.888C127.008 27.7896 126.138 26.7296 125.258 25.7996L124.388 24.8696V28.8696H123.758V23.1396Z" fill="white"/>
<path d="M135.639 28.5904C134.986 28.785 134.317 28.9189 133.639 28.9904C133.235 29.0289 132.828 28.9811 132.445 28.8502C132.061 28.7193 131.709 28.5083 131.413 28.2313C131.117 27.9542 130.884 27.6174 130.728 27.2431C130.572 26.8688 130.497 26.4657 130.509 26.0604C130.498 25.6418 130.577 25.2257 130.74 24.8399C130.903 24.4542 131.146 24.1077 131.454 23.8236C131.762 23.5396 132.126 23.3246 132.524 23.1929C132.922 23.0613 133.343 23.0161 133.759 23.0604C134.424 23.0476 135.078 23.2321 135.639 23.5904C135.498 23.8318 135.412 24.1017 135.389 24.3804H135.259C135.098 24.1311 134.875 23.9275 134.612 23.7891C134.35 23.6508 134.056 23.5823 133.759 23.5904C132.389 23.5904 131.759 24.7804 131.759 26.2404C131.759 27.7004 132.509 28.5104 133.639 28.5104C133.951 28.5199 134.257 28.4249 134.509 28.2404V26.3304H135.639V28.5904Z" fill="white"/>
<path d="M82.5128 39.76H83.1328C83.3828 42.02 83.5128 43.76 83.7628 45.48C83.5781 45.3552 83.353 45.3052 83.1328 45.34C82.9164 45.318 82.6988 45.3671 82.5128 45.48C82.5128 44.15 82.2628 42.82 82.1328 41.48C81.6328 42.81 81.0128 44.14 80.5128 45.33H80.1328C79.6328 44.27 79.0128 42.94 78.5128 41.61C78.2749 42.8833 78.1478 44.1748 78.1328 45.47C78.0874 45.4181 78.0299 45.3781 77.9653 45.3537C77.9008 45.3293 77.8312 45.3212 77.7628 45.33C77.6929 45.3212 77.6219 45.3293 77.5557 45.3537C77.4896 45.378 77.4303 45.4179 77.3828 45.47C77.6328 43.74 77.8828 41.88 78.2628 39.75H78.8828C79.3828 41.08 80.0128 42.28 80.6328 43.6C81.2628 42.41 81.8828 41.08 82.5128 39.75" fill="white"/>
<path d="M88.6328 39.7598C88.5636 39.8297 88.5211 39.9217 88.5128 40.0198C88.5035 40.0911 88.5093 40.1637 88.53 40.2326C88.5507 40.3016 88.5857 40.3653 88.6328 40.4198C88.1328 40.4198 87.6328 40.2898 86.7628 40.2898V42.1498H87.6328C87.8828 42.1498 88.2628 42.0198 88.5128 42.0198V42.6798H86.7628V44.8098C87.6328 44.8098 88.1328 44.6798 88.6328 44.6798C88.5868 44.7348 88.5524 44.7987 88.5318 44.8675C88.5111 44.9362 88.5047 45.0084 88.5128 45.0798C88.5211 45.1778 88.5636 45.2698 88.6328 45.3398H85.6328V39.7598H88.6328Z" fill="white"/>
<path d="M92.8828 43.2199L92.1328 41.2199L91.3828 43.2199H92.8828ZM91.2628 43.7499C91.0128 44.2799 90.8928 44.8099 90.6328 45.3399H89.8828L92.1328 39.6299H92.7628L94.8828 45.4799C94.7628 45.3399 94.5128 45.3399 94.2628 45.3399C94.0431 45.3156 93.8216 45.3649 93.6328 45.4799C93.3828 44.8099 93.2628 44.2799 93.0128 43.7499H91.2628Z" fill="white"/>
<path d="M97.7628 44.8098C98.5128 44.8098 99.0128 44.6798 99.5128 44.6798V45.3398H96.6328V39.7598H97.7628V44.8098Z" fill="white"/>
<path d="M103.891 40.8197C103.641 40.4197 103.391 40.0197 102.891 40.0197C102.788 40.0195 102.686 40.0404 102.592 40.0812C102.498 40.122 102.413 40.1817 102.342 40.2568C102.272 40.3318 102.218 40.4205 102.183 40.5173C102.149 40.6142 102.134 40.7171 102.141 40.8197C102.141 42.0197 104.511 41.7497 104.511 43.7497C104.511 44.8097 103.641 45.4797 102.391 45.4797C101.956 45.5219 101.52 45.4275 101.141 45.2097C101.204 44.8518 101.287 44.4979 101.391 44.1497H101.511C101.554 44.4137 101.692 44.6531 101.897 44.824C102.103 44.9948 102.364 45.0857 102.631 45.0797C102.863 45.0521 103.079 44.9439 103.239 44.774C103.4 44.6041 103.496 44.3832 103.511 44.1497C103.511 42.8197 101.141 43.3497 101.141 41.3497C101.136 41.1102 101.181 40.8723 101.275 40.6517C101.368 40.4311 101.507 40.2329 101.683 40.0703C101.859 39.9076 102.068 39.7843 102.295 39.7083C102.522 39.6323 102.763 39.6056 103.001 39.6297C103.452 39.6001 103.897 39.7391 104.251 40.0197C104.115 40.2671 104.03 40.5391 104.001 40.8197H103.891Z" fill="white"/>
<path d="M111.511 45.4798C111.391 45.3398 111.141 45.3398 110.891 45.3398C110.712 45.3185 110.532 45.3688 110.391 45.4798V40.2898C109.761 40.2898 109.261 40.4198 108.891 40.4198V39.7598H112.891V40.4198C112.511 40.4198 112.011 40.2898 111.511 40.2898V45.4798Z" fill="white"/>
<path d="M115.639 42.8201C115.639 43.8801 116.009 45.0801 117.259 45.0801C118.509 45.0801 118.999 43.75 118.999 42.42C118.999 41.35 118.499 40.03 117.249 40.03C116.249 40.03 115.629 40.9601 115.629 42.8201M117.129 45.4801C116.741 45.5009 116.353 45.4389 115.991 45.2984C115.629 45.1578 115.3 44.9418 115.028 44.6647C114.756 44.3876 114.545 44.0558 114.411 43.6912C114.277 43.3266 114.222 42.9376 114.249 42.55C114.242 42.1465 114.32 41.746 114.477 41.3744C114.635 41.0029 114.869 40.6686 115.164 40.3933C115.459 40.1179 115.809 39.9077 116.19 39.7762C116.572 39.6448 116.977 39.595 117.379 39.6301C117.769 39.5972 118.161 39.6506 118.527 39.7864C118.894 39.9223 119.226 40.1372 119.5 40.416C119.774 40.6948 119.983 41.0306 120.113 41.3994C120.242 41.7683 120.289 42.1611 120.249 42.55C120.257 42.9535 120.181 43.3542 120.025 43.7263C119.868 44.0983 119.635 44.4333 119.341 44.7095C119.047 44.9858 118.698 45.1971 118.317 45.3299C117.936 45.4626 117.531 45.5138 117.129 45.4801Z" fill="white"/>
<path d="M127.511 43.2199L126.891 41.2199L126.141 43.2199H127.511ZM125.891 43.7499C125.761 44.2799 125.511 44.8099 125.391 45.3399H124.641L126.891 39.6299H127.511L129.641 45.4799C129.447 45.3784 129.229 45.3301 129.011 45.3399C128.753 45.3178 128.493 45.3662 128.261 45.4799C128.174 44.8831 128.005 44.3011 127.761 43.7499H125.891Z" fill="white"/>
<path d="M132.508 44.8098C133.138 44.8098 133.758 44.6798 134.258 44.6798V45.3398H131.258V39.7598H132.508V44.8098Z" fill="white"/>
<path d="M137.261 44.8098C138.011 44.8098 138.511 44.6798 139.141 44.6798C139.091 44.7326 139.053 44.7959 139.031 44.8651C139.008 44.9343 139.001 45.0076 139.011 45.0798C139.02 45.1797 139.066 45.2725 139.141 45.3398H136.141V39.7598H137.261V44.8098Z" fill="white"/>
<path d="M80.5128 86.8297C80.5128 92.4197 83.1328 95.7396 87.1328 95.7396C93.0128 95.7396 97.3828 89.3596 97.3828 78.3196V71.4097C86.0028 72.9997 80.5128 78.0597 80.5128 86.8297ZM84.2628 97.5996C77.2628 97.5996 72.6328 93.3496 72.6328 87.0996C72.6328 78.0996 80.6328 72.8696 97.3828 70.2096V64.6197C97.3828 56.9097 95.0128 53.6196 88.8928 53.6196C83.2628 53.6196 79.2628 56.4096 79.2628 58.1396C79.2628 59.1696 84.0028 59.9996 84.0028 63.9996C84.0044 64.5697 83.8913 65.1343 83.6703 65.6597C83.4492 66.1852 83.1247 66.6608 82.716 67.0583C82.3074 67.4558 81.8229 67.7669 81.2915 67.9733C80.7601 68.1797 80.1926 68.2771 79.6228 68.2597C77.0028 68.2197 75.0028 66.0896 75.0028 62.7596C75.0028 57.1796 80.8728 52.3896 89.6228 52.3896C94.7528 52.3896 98.8828 53.9896 101.133 56.7796C103.753 59.9696 103.883 63.9597 103.883 69.4097V88.4097C103.883 93.1897 104.133 95.4097 106.383 95.4097C108.883 95.4097 111.133 91.5497 111.133 84.4097V83.8796H112.003V85.0996C112.003 93.2096 109.253 97.4697 104.253 97.4697C100.003 97.4697 97.7628 93.9996 97.6428 86.9996C95.2628 93.9996 90.8828 97.5996 84.2628 97.5996Z" fill="white"/>
<path d="M218.497 86.8297C218.497 92.4197 221.117 95.7397 225.117 95.7397C230.997 95.7397 235.367 89.3597 235.367 78.3197V71.4097C223.997 72.9997 218.497 78.0597 218.497 86.8297ZM222.247 97.5997C215.247 97.5997 210.617 93.3497 210.617 87.0997C210.617 78.0997 218.617 72.8697 235.367 70.2097V64.6197C235.367 56.9097 232.997 53.6197 226.867 53.6197C221.247 53.6197 217.247 56.4097 217.247 58.1397C217.247 59.1697 221.997 59.9997 221.997 63.9997C221.999 64.5698 221.886 65.1343 221.665 65.6598C221.444 66.1852 221.119 66.6609 220.71 67.0583C220.302 67.4558 219.817 67.767 219.286 67.9734C218.754 68.1798 218.187 68.2771 217.617 68.2597C214.997 68.2597 212.997 66.1297 212.997 62.7997C212.997 57.2197 218.867 52.4297 227.617 52.4297C232.747 52.4297 236.867 54.0297 239.117 56.8197C241.747 60.0097 241.867 63.9997 241.867 69.4497V88.4497C241.867 93.2297 242.117 95.4497 244.367 95.4497C246.867 95.4497 249.127 91.5897 249.127 84.4497V83.9197H249.997V85.0997C249.997 93.2097 247.247 97.4697 242.247 97.4697C237.997 97.4697 235.747 94.0097 235.617 86.9597C233.247 93.9997 228.867 97.5997 222.247 97.5997Z" fill="white"/>
<path d="M0.63 94.2803H3C7.13 94.2803 7.88 93.4803 7.88 89.2203V62.6303C7.88 57.0503 6.88 55.5803 1.25 55.5803H0V54.1203L14.5 53.7203V66.6203L14.88 66.7503C17.13 57.9803 21.88 53.3203 27.38 53.3203C33.38 53.3203 37.13 57.9803 38.38 66.6203L38.88 66.7503C41.13 57.9803 45.75 53.3203 51.38 53.3203C58.51 53.3203 62.51 59.5703 62.51 71.8103V89.2203C62.51 93.4803 63.26 94.2803 67.13 94.2803H69.88V95.6103H49.13V94.2803H51.38C55.13 94.2803 56.01 93.4803 56.01 89.2203V63.8303C56.01 57.9803 54.13 55.1803 50.25 55.1803C43.88 55.1803 38.38 63.9603 38.38 79.1203V89.2203C38.38 93.4803 39.25 94.2803 43.13 94.2803H45.13V95.6103H26.13V94.2803H27.25C31.13 94.2803 32 93.4803 32 89.2203V63.8303C32 57.9803 30.13 55.1803 26.25 55.1803C19.75 55.1803 14.5 63.9603 14.5 79.1203V89.2203C14.5 93.2203 15.25 94.2803 19 94.2803H21.38V95.6103H0.63V94.2803Z" fill="white"/>
<path d="M116.388 78.8496H117.508C120.888 90.2896 126.888 96.1396 133.258 96.1396C138.258 96.1396 141.258 93.2097 141.258 88.8297C141.258 84.8297 139.258 82.7096 134.888 80.4496C129.388 77.7896 124.888 76.1897 121.638 73.7997C118.008 70.8797 116.258 67.7996 116.258 63.9596C116.258 57.5796 121.008 52.3896 127.258 52.3896C133.888 52.3896 137.138 57.3896 138.888 57.3896C140.138 57.3896 141.258 55.7997 142.008 52.4697H143.138V68.9996H141.998C139.128 59.1596 133.498 53.7096 127.878 53.7096C123.128 53.7096 120.498 56.2397 120.498 60.6297C120.498 64.4797 122.498 67.0096 126.748 68.9996C131.998 71.3996 136.378 72.9997 139.628 75.1197C143.878 78.1797 146.128 81.6397 146.128 85.6197C146.128 92.5397 141.378 97.4596 133.878 97.4596C130.628 97.4596 127.878 96.2596 124.878 93.9996C123.378 92.8096 122.248 91.6096 121.128 91.6096C119.498 91.6096 118.378 93.6096 117.498 97.4596H116.378L116.388 78.8496Z" fill="white"/>
<path d="M170.001 96.2703C176.621 96.2703 180.251 89.2703 180.251 75.4003C180.251 61.3003 177.001 54.4003 170.121 54.4003C163.241 54.4003 158.371 62.2403 158.371 76.0703C158.371 89.0703 162.751 96.2803 170.001 96.2803M151.891 42.1503C151.891 34.3103 151.021 31.9103 144.391 31.5203V30.3203H158.391V63.7003H158.891C161.271 56.7803 165.391 53.0603 170.891 53.0603C180.271 53.0603 187.771 62.2303 187.771 75.6603C187.804 78.8927 187.19 82.099 185.966 85.0906C184.741 88.0823 182.931 90.7988 180.641 93.0803C177.806 95.8809 173.985 97.4572 170.001 97.4703C164.621 97.4703 160.251 94.1503 157.621 87.9003H157.001L153.371 97.0703H151.871L151.891 42.1503Z" fill="white"/>
<path d="M201.52 44.1497C201.52 47.0697 199.65 49.0697 197.02 49.0697C194.39 49.0697 192.52 46.9397 192.52 44.1497C192.49 43.5433 192.584 42.9372 192.798 42.3688C193.011 41.8004 193.339 41.2818 193.761 40.845C194.182 40.4083 194.689 40.0626 195.25 39.8295C195.81 39.5964 196.413 39.4808 197.02 39.4897C197.624 39.4921 198.221 39.6155 198.777 39.8525C199.332 40.0896 199.834 40.4355 200.254 40.8699C200.673 41.3043 201.001 41.8183 201.219 42.3816C201.436 42.945 201.539 43.5462 201.52 44.1497ZM188.14 55.5797H187V54.1197L201.38 53.7197V89.2297C201.38 93.2297 202.13 94.2297 205.88 94.2297H208.25V95.5597H187.52V94.2797H189.89C194.02 94.2797 194.77 93.4797 194.77 89.2797V62.6297C194.77 57.0497 193.77 55.5797 188.14 55.5797Z" fill="white"/>
<path d="M37.6328 0H37.2528H36.1328L43.0128 41.22L37.6328 0Z" fill="white"/>
<path d="M73.26 0H38.25L73.26 30.05V0Z" fill="white"/>
<path d="M25.38 29.9199L14.5 41.8899L0.5 38.1599V49.1999H37.88H42.5L27.75 45.2099L25.38 29.9199Z" fill="white"/>
<path d="M0.5 36.3L35.75 0H30.88H0.5V36.3Z" fill="white"/>
<path d="M63.8778 38.16L55.1278 29.79L57.7578 41.75L45.2578 49.2H73.2578V32.18L63.8778 38.16Z" fill="white"/>
</g>
<defs>
<clipPath id="clip0_2141_1215">
<rect width="250" height="97.6" fill="white"/>
</clipPath>
</defs>
</svg>
