<svg id="b25e4352-5cc0-4b30-90bb-ccb15579b81b" data-name="Layer 1" xmlns="http://www.w3.org/2000/svg" width="250" height="97.6" viewBox="0 0 250 97.6"><path d="M197,39.49a4.52,4.52,0,0,1,4.5,4.66c0,2.92-1.87,4.92-4.5,4.92s-4.5-2.13-4.5-4.92a4.44,4.44,0,0,1,4.5-4.66" fill="#fff"/><path d="M80.13,7.58a.83.83,0,0,0-.87-.67.78.78,0,0,0-.88.8c0,1.07,2.38.93,2.38,2.79a1.91,1.91,0,0,1-2,1.87,2.05,2.05,0,0,1-1.25-.4c0-.27.12-.67.12-1.07h.25c.13.67.5.93,1,.93s1-.26,1-.79c0-1.33-2.37-.93-2.37-2.93a1.66,1.66,0,0,1,1.75-1.73,2,2,0,0,1,1.25.4c-.13.27-.13.53-.25.8Z" fill="#5b6f33"/><path d="M85.51,6.52v.79a6.41,6.41,0,0,0-1.75-.13V8.91h1.75v.66c-.25,0-.63-.13-1-.13h-.75v2.13a6.41,6.41,0,0,0,1.75-.13v.79H82.63V6.52Z" fill="#5b6f33"/><path d="M88.51,9.17c.87.14,1.25-.26,1.25-1.06V7.58c-.12-.66-.75-.53-1.25-.53ZM87.38,6.52H89c.37,0,1,0,1.25.26A1,1,0,0,1,91,7.85a1.55,1.55,0,0,1-1.25,1.59c.5.8.87,1.46,1.37,2.26l.38.53H90l-.88-1.73c-.12-.26-.37-.66-.5-.93h-.12v2.66H87.38Z" fill="#5b6f33"/><path d="M94.89,12.23h-.25c-.75-1.86-1.38-3.85-2.13-5.71a4.91,4.91,0,0,1,.62.13c.25,0,.5-.13.76-.13a38.25,38.25,0,0,0,1.37,4.12c.5-1.33,1-2.66,1.5-4.12.12,0,.25.13.38.13a.41.41,0,0,1,.25-.13c-.75,1.86-1.51,3.72-2.13,5.71Z" fill="#5b6f33"/><path d="M99.26,6.52c.13,0,.37.13.5.13s.38-.13.63-.13v5.71H99.26Z" fill="#5b6f33"/><path d="M102.64,6.52h.87c1,1.32,2.25,2.52,3.38,4v-4a.41.41,0,0,0,.25.13c.12,0,.25-.13.37-.13v5.71h-.75c-.87-1.06-1.75-2.12-2.62-3.06l-.88-.93v4h-.62Z" fill="#5b6f33"/><path d="M114.51,12a5.44,5.44,0,0,1-2,.4,2.83,2.83,0,0,1-3.12-2.8,3,3,0,0,1,3.25-3.19,3.42,3.42,0,0,1,1.87.53,2.12,2.12,0,0,0-.25.8h-.12a1.77,1.77,0,0,0-1.5-.8c-1.38,0-2,1.2-2,2.66s.75,2.26,1.87,2.26a1.76,1.76,0,0,0,.88-.26V9.71h1.12Z" fill="#5b6f33"/><path d="M77.76,23.14h.75c1.12,1.33,2.37,2.52,3.37,3.85V23.14h.63v5.71h-.63c-.87-1.06-1.75-2.12-2.62-3.05l-.88-.93v4h-.62Z" fill="#5b6f33"/><path d="M85.76,26.2c0,1.06.37,2.26,1.62,2.26s1.75-1.33,1.75-2.66c0-1.07-.5-2.26-1.75-2.26-1,0-1.62.79-1.62,2.66M87.26,29a2.78,2.78,0,0,1-2.88-3.06A2.89,2.89,0,0,1,87.51,23a2.67,2.67,0,0,1,2.88,2.93A3,3,0,0,1,87.26,29" fill="#5b6f33"/><path d="M92.26,23.14h1.12v2.39a7.25,7.25,0,0,0,.13,1.6,1.28,1.28,0,0,0,.37.93,1.17,1.17,0,0,0,.88.26,1.24,1.24,0,0,0,1.37-.93,7.76,7.76,0,0,0,.13-1.73V23.14h.63v2.92c0,.93,0,1.86-.76,2.4a2.35,2.35,0,0,1-1.49.53,2.17,2.17,0,0,1-2.25-1.46,2.69,2.69,0,0,1-.13-1.07Z" fill="#5b6f33"/><path d="M100.38,25.8c.76.13,1.13-.27,1.13-1.2v-.4c-.12-.66-.75-.66-1.13-.66Zm-1.24-2.66h1.62a5,5,0,0,1,1.38.13,1.44,1.44,0,0,1,.62,1.2,1.42,1.42,0,0,1-1.25,1.46,25.68,25.68,0,0,1,1.38,2.39l.37.54h-1.5l-.87-1.73c-.13-.27-.38-.67-.51-.93v2.66H99.14Z" fill="#5b6f33"/><polygon points="105.51 23.14 105.01 23.14 105.01 28.86 105.51 28.86 106.14 28.86 106.14 23.14 105.51 23.14" fill="#5b6f33"/><path d="M110.89,24.2a1.1,1.1,0,0,0-1-.66c-.63,0-.75.26-.75.79,0,1.07,2.37.93,2.37,2.8A1.93,1.93,0,0,1,109.39,29a2.33,2.33,0,0,1-1.25-.4c.12-.4.12-.67.25-1.06h.12a1.12,1.12,0,0,0,1.13.93.88.88,0,0,0,.87-.93c0-1.33-2.37-.8-2.37-2.8A1.69,1.69,0,0,1,110,23a2.87,2.87,0,0,1,1.25.4,2.12,2.12,0,0,0-.25.8Z" fill="#5b6f33"/><polygon points="113.26 23.14 113.89 23.14 114.51 23.14 114.51 25.4 115.64 25.4 116.89 25.4 116.89 23.14 117.39 23.14 118.01 23.14 118.01 28.86 117.39 28.86 116.89 28.86 116.89 26.06 115.64 26.06 114.51 26.06 114.51 28.86 113.89 28.86 113.26 28.86 113.26 23.14" fill="#5b6f33"/><polygon points="120.89 23.14 120.39 23.14 120.39 28.86 120.89 28.86 121.51 28.86 121.51 23.14 120.89 23.14" fill="#5b6f33"/><path d="M123.76,23.14h.88c1.12,1.33,2.25,2.52,3.37,3.85V23.14h.63v5.71h-.75c-.88-1.06-1.75-2.12-2.63-3.05l-.87-.93v4h-.63Z" fill="#5b6f33"/><path d="M135.64,28.59a11.07,11.07,0,0,1-2,.4,2.86,2.86,0,0,1-3.13-2.93,2.94,2.94,0,0,1,3.25-3,3.37,3.37,0,0,1,1.88.53,1.87,1.87,0,0,0-.25.79h-.13a1.73,1.73,0,0,0-1.5-.79c-1.37,0-2,1.19-2,2.65s.75,2.27,1.88,2.27a1.4,1.4,0,0,0,.87-.27V26.33h1.13Z" fill="#5b6f33"/><path d="M82.51,39.76h.62c.25,2.26.38,4,.63,5.72a.88.88,0,0,0-.63-.14,1,1,0,0,0-.62.14c0-1.33-.25-2.66-.38-4-.5,1.33-1.12,2.66-1.62,3.85h-.38c-.5-1.06-1.12-2.39-1.62-3.72a22.43,22.43,0,0,0-.38,3.86.42.42,0,0,0-.37-.14.44.44,0,0,0-.38.14c.25-1.73.5-3.59.88-5.72h.62c.5,1.33,1.13,2.53,1.75,3.85.63-1.19,1.25-2.52,1.88-3.85" fill="#5b6f33"/><path d="M88.63,39.76a.42.42,0,0,0-.12.26.51.51,0,0,0,.12.4c-.5,0-1-.13-1.87-.13v1.86h.87c.25,0,.63-.13.88-.13v.66H86.76v2.13c.87,0,1.37-.13,1.87-.13a.53.53,0,0,0-.12.4.42.42,0,0,0,.12.26h-3V39.76Z" fill="#5b6f33"/><path d="M92.89,43.22l-.76-2-.75,2Zm-1.63.53c-.25.53-.37,1.06-.63,1.59h-.75l2.25-5.71h.63l2.12,5.85c-.12-.14-.37-.14-.62-.14a1,1,0,0,0-.63.14c-.25-.67-.37-1.2-.62-1.73Z" fill="#5b6f33"/><path d="M97.76,44.81c.75,0,1.25-.13,1.75-.13v.66H96.63V39.76h1.13Z" fill="#5b6f33"/><path d="M103.89,40.82c-.25-.4-.5-.8-1-.8a.75.75,0,0,0-.75.8c0,1.2,2.37.93,2.37,2.93,0,1.06-.87,1.73-2.12,1.73a2.1,2.1,0,0,1-1.25-.27,9.37,9.37,0,0,1,.25-1.06h.12a1.11,1.11,0,0,0,1.12.93,1,1,0,0,0,.88-.93c0-1.33-2.37-.8-2.37-2.8A1.69,1.69,0,0,1,103,39.63a1.82,1.82,0,0,1,1.25.39,2.12,2.12,0,0,0-.25.8Z" fill="#5b6f33"/><path d="M111.51,45.48c-.12-.14-.37-.14-.62-.14a.68.68,0,0,0-.5.14V40.29c-.63,0-1.13.13-1.5.13v-.66h4v.66c-.38,0-.88-.13-1.38-.13Z" fill="#5b6f33"/><path d="M115.64,42.82c0,1.06.37,2.26,1.62,2.26S119,43.75,119,42.42c0-1.07-.5-2.39-1.75-2.39-1,0-1.62.93-1.62,2.79m1.5,2.66a2.74,2.74,0,0,1-2.88-2.93,2.88,2.88,0,0,1,3.13-2.92,2.66,2.66,0,0,1,2.87,2.92,2.88,2.88,0,0,1-3.12,2.93" fill="#5b6f33"/><path d="M127.51,43.22l-.62-2-.75,2Zm-1.62.53c-.13.53-.38,1.06-.5,1.59h-.75l2.25-5.71h.62l2.13,5.85a1.24,1.24,0,0,0-.63-.14,1.43,1.43,0,0,0-.75.14,6.62,6.62,0,0,0-.5-1.73Z" fill="#5b6f33"/><path d="M132.51,44.81c.63,0,1.25-.13,1.75-.13v.66h-3V39.76h1.25Z" fill="#5b6f33"/><path d="M137.26,44.81c.75,0,1.25-.13,1.88-.13a.49.49,0,0,0-.13.4.4.4,0,0,0,.13.26h-3V39.76h1.12Z" fill="#5b6f33"/><path d="M80.51,86.83c0,5.59,2.62,8.91,6.62,8.91,5.88,0,10.25-6.38,10.25-17.42V71.41C86,73,80.51,78.06,80.51,86.83M84.26,97.6c-7,0-11.63-4.25-11.63-10.5,0-9,8-14.23,24.75-16.89V64.62c0-7.71-2.37-11-8.49-11-5.63,0-9.63,2.79-9.63,4.52C79.26,59.17,84,60,84,64a4.25,4.25,0,0,1-4.38,4.26C77,68.22,75,66.09,75,62.76c0-5.58,5.87-10.37,14.62-10.37,5.13,0,9.26,1.6,11.51,4.39,2.62,3.19,2.75,7.18,2.75,12.63v19c0,4.78.25,7,2.5,7,2.5,0,4.75-3.86,4.75-11v-.53H112V85.1c0,8.11-2.75,12.37-7.75,12.37C100,97.47,97.76,94,97.64,87,95.26,94,90.88,97.6,84.26,97.6" fill="#7d452b"/><path d="M218.5,86.83c0,5.59,2.62,8.91,6.62,8.91,5.88,0,10.25-6.38,10.25-17.42V71.41C224,73,218.5,78.06,218.5,86.83m3.75,10.77c-7,0-11.63-4.25-11.63-10.5,0-9,8-14.23,24.75-16.89V64.62c0-7.71-2.37-11-8.5-11-5.62,0-9.62,2.79-9.62,4.52C217.25,59.17,222,60,222,64a4.25,4.25,0,0,1-4.38,4.26c-2.62,0-4.62-2.13-4.62-5.46,0-5.58,5.87-10.37,14.62-10.37,5.13,0,9.25,1.6,11.5,4.39,2.63,3.19,2.75,7.18,2.75,12.63v19c0,4.78.25,7,2.5,7,2.5,0,4.75-3.86,4.75-11v-.53H250V85.1c0,8.11-2.75,12.37-7.75,12.37-4.25,0-6.5-3.46-6.63-10.51C233.25,94,228.87,97.6,222.25,97.6" fill="#7d452b"/><path d="M.63,94.28H3c4.13,0,4.88-.8,4.88-5.06V62.63c0-5.58-1-7.05-6.63-7.05H0V54.12l14.5-.4v12.9l.38.13c2.25-8.77,7-13.43,12.5-13.43,6,0,9.75,4.66,11,13.3l.5.13c2.25-8.77,6.87-13.43,12.5-13.43,7.13,0,11.13,6.25,11.13,18.49V89.22c0,4.26.75,5.06,4.62,5.06h2.75v1.33H49.13V94.28h2.25c3.75,0,4.63-.8,4.63-5.06V63.83c0-5.85-1.88-8.65-5.76-8.65-6.37,0-11.87,8.78-11.87,23.94v10.1c0,4.26.87,5.06,4.75,5.06h2v1.33h-19V94.28h1.12c3.88,0,4.75-.8,4.75-5.06V63.83c0-5.85-1.87-8.65-5.75-8.65-6.5,0-11.75,8.78-11.75,23.94v10.1c0,4,.75,5.06,4.5,5.06h2.38v1.33H.63Z" fill="#7d452b"/><path d="M116.39,78.85h1.12c3.38,11.44,9.38,17.29,15.75,17.29,5,0,8-2.93,8-7.31,0-4-2-6.12-6.37-8.38-5.5-2.66-10-4.26-13.25-6.65-3.63-2.92-5.38-6-5.38-9.84,0-6.38,4.75-11.57,11-11.57,6.63,0,9.88,5,11.63,5,1.25,0,2.37-1.59,3.12-4.92h1.13V69H142c-2.87-9.84-8.5-15.29-14.12-15.29-4.75,0-7.38,2.53-7.38,6.92,0,3.85,2,6.38,6.25,8.37,5.25,2.4,9.63,4,12.88,6.12,4.25,3.06,6.5,6.52,6.5,10.5,0,6.92-4.75,11.84-12.25,11.84-3.25,0-6-1.2-9-3.46-1.5-1.19-2.63-2.39-3.75-2.39-1.63,0-2.75,2-3.63,5.85h-1.12Z" fill="#7d452b"/><path d="M170,96.27c6.62,0,10.25-7,10.25-20.87,0-14.1-3.25-21-10.13-21s-11.75,7.84-11.75,21.67c0,13,4.38,20.21,11.63,20.21M151.89,42.15c0-7.84-.87-10.24-7.5-10.63v-1.2h14V63.7h.5c2.38-6.92,6.5-10.64,12-10.64,9.38,0,16.88,9.17,16.88,22.6a24.24,24.24,0,0,1-7.13,17.42A15.21,15.21,0,0,1,170,97.47c-5.38,0-9.75-3.32-12.38-9.57H157l-3.63,9.17h-1.5Z" fill="#7d452b"/><path d="M201.52,44.15c0,2.92-1.87,4.92-4.5,4.92s-4.5-2.13-4.5-4.92a4.44,4.44,0,0,1,4.5-4.66,4.52,4.52,0,0,1,4.5,4.66M188.14,55.58H187V54.12l14.38-.4V89.23c0,4,.75,5,4.5,5h2.37v1.33H187.52V94.28h2.37c4.13,0,4.88-.8,4.88-5V62.63c0-5.58-1-7.05-6.63-7.05" fill="#7d452b"/><polygon points="37.63 0 37.25 0 36.13 0 43.01 41.22 37.63 0" fill="#5b6f33"/><polygon points="73.26 0 38.25 0 73.26 30.05 73.26 0" fill="#7d452b"/><polygon points="25.38 29.92 14.5 41.89 0.5 38.16 0.5 49.2 37.88 49.2 42.5 49.2 27.75 45.21 25.38 29.92" fill="#5b6f33"/><polygon points="0.5 36.3 35.75 0 30.88 0 0.5 0 0.5 36.3" fill="#5b6f33"/><polygon points="63.88 38.16 55.13 29.79 57.76 41.75 45.26 49.2 73.26 49.2 73.26 32.18 63.88 38.16" fill="#7d452b"/><path d="M197,39.49a4.52,4.52,0,0,1,4.5,4.66c0,2.92-1.87,4.92-4.5,4.92s-4.5-2.13-4.5-4.92a4.44,4.44,0,0,1,4.5-4.66" fill="#fff"/><path d="M80.13,7.58a.83.83,0,0,0-.87-.67.78.78,0,0,0-.88.8c0,1.07,2.38.93,2.38,2.79a1.91,1.91,0,0,1-2,1.87,2.05,2.05,0,0,1-1.25-.4c0-.27.12-.67.12-1.07h.25c.13.67.5.93,1,.93s1-.26,1-.79c0-1.33-2.37-.93-2.37-2.93a1.66,1.66,0,0,1,1.75-1.73,2,2,0,0,1,1.25.4c-.13.27-.13.53-.25.8Z" fill="#5b6f33"/><path d="M85.51,6.52v.79a6.41,6.41,0,0,0-1.75-.13V8.91h1.75v.66c-.25,0-.63-.13-1-.13h-.75v2.13a6.41,6.41,0,0,0,1.75-.13v.79H82.63V6.52Z" fill="#5b6f33"/><path d="M88.51,9.17c.87.14,1.25-.26,1.25-1.06V7.58c-.12-.66-.75-.53-1.25-.53ZM87.38,6.52H89c.37,0,1,0,1.25.26A1,1,0,0,1,91,7.85a1.55,1.55,0,0,1-1.25,1.59c.5.8.87,1.46,1.37,2.26l.38.53H90l-.88-1.73c-.12-.26-.37-.66-.5-.93h-.12v2.66H87.38Z" fill="#5b6f33"/><path d="M94.89,12.23h-.25c-.75-1.86-1.38-3.85-2.13-5.71a4.91,4.91,0,0,1,.62.13c.25,0,.5-.13.76-.13a38.25,38.25,0,0,0,1.37,4.12c.5-1.33,1-2.66,1.5-4.12.12,0,.25.13.38.13a.41.41,0,0,1,.25-.13c-.75,1.86-1.51,3.72-2.13,5.71Z" fill="#5b6f33"/><path d="M99.26,6.52c.13,0,.37.13.5.13s.38-.13.63-.13v5.71H99.26Z" fill="#5b6f33"/><path d="M102.64,6.52h.87c1,1.32,2.25,2.52,3.38,4v-4a.41.41,0,0,0,.25.13c.12,0,.25-.13.37-.13v5.71h-.75c-.87-1.06-1.75-2.12-2.62-3.06l-.88-.93v4h-.62Z" fill="#5b6f33"/><path d="M114.51,12a5.44,5.44,0,0,1-2,.4,2.83,2.83,0,0,1-3.12-2.8,3,3,0,0,1,3.25-3.19,3.42,3.42,0,0,1,1.87.53,2.12,2.12,0,0,0-.25.8h-.12a1.77,1.77,0,0,0-1.5-.8c-1.38,0-2,1.2-2,2.66s.75,2.26,1.87,2.26a1.76,1.76,0,0,0,.88-.26V9.71h1.12Z" fill="#5b6f33"/><path d="M77.76,23.14h.75c1.12,1.33,2.37,2.52,3.37,3.85V23.14h.63v5.71h-.63c-.87-1.06-1.75-2.12-2.62-3.05l-.88-.93v4h-.62Z" fill="#5b6f33"/><path d="M85.76,26.2c0,1.06.37,2.26,1.62,2.26s1.75-1.33,1.75-2.66c0-1.07-.5-2.26-1.75-2.26-1,0-1.62.79-1.62,2.66M87.26,29a2.78,2.78,0,0,1-2.88-3.06A2.89,2.89,0,0,1,87.51,23a2.67,2.67,0,0,1,2.88,2.93A3,3,0,0,1,87.26,29" fill="#5b6f33"/><path d="M92.26,23.14h1.12v2.39a7.25,7.25,0,0,0,.13,1.6,1.28,1.28,0,0,0,.37.93,1.17,1.17,0,0,0,.88.26,1.24,1.24,0,0,0,1.37-.93,7.76,7.76,0,0,0,.13-1.73V23.14h.63v2.92c0,.93,0,1.86-.76,2.4a2.35,2.35,0,0,1-1.49.53,2.17,2.17,0,0,1-2.25-1.46,2.69,2.69,0,0,1-.13-1.07Z" fill="#5b6f33"/><path d="M100.38,25.8c.76.13,1.13-.27,1.13-1.2v-.4c-.12-.66-.75-.66-1.13-.66Zm-1.24-2.66h1.62a5,5,0,0,1,1.38.13,1.44,1.44,0,0,1,.62,1.2,1.42,1.42,0,0,1-1.25,1.46,25.68,25.68,0,0,1,1.38,2.39l.37.54h-1.5l-.87-1.73c-.13-.27-.38-.67-.51-.93v2.66H99.14Z" fill="#5b6f33"/><polygon points="105.51 23.14 105.01 23.14 105.01 28.86 105.51 28.86 106.14 28.86 106.14 23.14 105.51 23.14" fill="#5b6f33"/><path d="M110.89,24.2a1.1,1.1,0,0,0-1-.66c-.63,0-.75.26-.75.79,0,1.07,2.37.93,2.37,2.8A1.93,1.93,0,0,1,109.39,29a2.33,2.33,0,0,1-1.25-.4c.12-.4.12-.67.25-1.06h.12a1.12,1.12,0,0,0,1.13.93.88.88,0,0,0,.87-.93c0-1.33-2.37-.8-2.37-2.8A1.69,1.69,0,0,1,110,23a2.87,2.87,0,0,1,1.25.4,2.12,2.12,0,0,0-.25.8Z" fill="#5b6f33"/><polygon points="113.26 23.14 113.89 23.14 114.51 23.14 114.51 25.4 115.64 25.4 116.89 25.4 116.89 23.14 117.39 23.14 118.01 23.14 118.01 28.86 117.39 28.86 116.89 28.86 116.89 26.06 115.64 26.06 114.51 26.06 114.51 28.86 113.89 28.86 113.26 28.86 113.26 23.14" fill="#5b6f33"/><polygon points="120.89 23.14 120.39 23.14 120.39 28.86 120.89 28.86 121.51 28.86 121.51 23.14 120.89 23.14" fill="#5b6f33"/><path d="M123.76,23.14h.88c1.12,1.33,2.25,2.52,3.37,3.85V23.14h.63v5.71h-.75c-.88-1.06-1.75-2.12-2.63-3.05l-.87-.93v4h-.63Z" fill="#5b6f33"/><path d="M135.64,28.59a11.07,11.07,0,0,1-2,.4,2.86,2.86,0,0,1-3.13-2.93,2.94,2.94,0,0,1,3.25-3,3.37,3.37,0,0,1,1.88.53,1.87,1.87,0,0,0-.25.79h-.13a1.73,1.73,0,0,0-1.5-.79c-1.37,0-2,1.19-2,2.65s.75,2.27,1.88,2.27a1.4,1.4,0,0,0,.87-.27V26.33h1.13Z" fill="#5b6f33"/><path d="M82.51,39.76h.62c.25,2.26.38,4,.63,5.72a.88.88,0,0,0-.63-.14,1,1,0,0,0-.62.14c0-1.33-.25-2.66-.38-4-.5,1.33-1.12,2.66-1.62,3.85h-.38c-.5-1.06-1.12-2.39-1.62-3.72a22.43,22.43,0,0,0-.38,3.86.42.42,0,0,0-.37-.14.44.44,0,0,0-.38.14c.25-1.73.5-3.59.88-5.72h.62c.5,1.33,1.13,2.53,1.75,3.85.63-1.19,1.25-2.52,1.88-3.85" fill="#5b6f33"/><path d="M88.63,39.76a.42.42,0,0,0-.12.26.51.51,0,0,0,.12.4c-.5,0-1-.13-1.87-.13v1.86h.87c.25,0,.63-.13.88-.13v.66H86.76v2.13c.87,0,1.37-.13,1.87-.13a.53.53,0,0,0-.12.4.42.42,0,0,0,.12.26h-3V39.76Z" fill="#5b6f33"/><path d="M92.88,43.22l-.75-2-.75,2Zm-1.62.53c-.25.53-.37,1.06-.63,1.59h-.75l2.25-5.71h.63l2.12,5.85c-.12-.14-.37-.14-.62-.14a1,1,0,0,0-.63.14c-.25-.67-.37-1.2-.62-1.73Z" fill="#5b6f33"/><path d="M97.76,44.81c.75,0,1.25-.13,1.75-.13v.66H96.63V39.76h1.13Z" fill="#5b6f33"/><path d="M103.89,40.82c-.25-.4-.5-.8-1-.8a.75.75,0,0,0-.75.8c0,1.2,2.37.93,2.37,2.93,0,1.06-.87,1.73-2.12,1.73a2.1,2.1,0,0,1-1.25-.27,9.37,9.37,0,0,1,.25-1.06h.12a1.11,1.11,0,0,0,1.12.93,1,1,0,0,0,.88-.93c0-1.33-2.37-.8-2.37-2.8A1.69,1.69,0,0,1,103,39.63a1.82,1.82,0,0,1,1.25.39,2.12,2.12,0,0,0-.25.8Z" fill="#5b6f33"/><path d="M111.51,45.48c-.12-.14-.37-.14-.62-.14a.68.68,0,0,0-.5.14V40.29c-.63,0-1.13.13-1.5.13v-.66h4v.66c-.38,0-.88-.13-1.38-.13Z" fill="#5b6f33"/><path d="M115.64,42.82c0,1.06.37,2.26,1.62,2.26S119,43.75,119,42.42c0-1.07-.5-2.39-1.75-2.39-1,0-1.62.93-1.62,2.79m1.5,2.66a2.74,2.74,0,0,1-2.88-2.93,2.88,2.88,0,0,1,3.13-2.92,2.66,2.66,0,0,1,2.87,2.92,2.88,2.88,0,0,1-3.12,2.93" fill="#5b6f33"/><path d="M127.51,43.22l-.62-2-.75,2Zm-1.62.53c-.13.53-.38,1.06-.5,1.59h-.75l2.25-5.71h.62l2.13,5.85a1.24,1.24,0,0,0-.63-.14,1.43,1.43,0,0,0-.75.14,6.62,6.62,0,0,0-.5-1.73Z" fill="#5b6f33"/><path d="M132.51,44.81c.63,0,1.25-.13,1.75-.13v.66h-3V39.76h1.25Z" fill="#5b6f33"/><path d="M137.26,44.81c.75,0,1.25-.13,1.88-.13a.49.49,0,0,0-.13.4.4.4,0,0,0,.13.26h-3V39.76h1.12Z" fill="#5b6f33"/><path d="M80.51,86.83c0,5.59,2.62,8.91,6.62,8.91,5.88,0,10.25-6.38,10.25-17.42V71.41C86,73,80.51,78.06,80.51,86.83M84.26,97.6c-7,0-11.63-4.25-11.63-10.5,0-9,8-14.23,24.75-16.89V64.62c0-7.71-2.37-11-8.49-11-5.63,0-9.63,2.79-9.63,4.52C79.26,59.17,84,60,84,64a4.25,4.25,0,0,1-4.38,4.26C77,68.22,75,66.09,75,62.76c0-5.58,5.87-10.37,14.62-10.37,5.13,0,9.26,1.6,11.51,4.39,2.62,3.19,2.75,7.18,2.75,12.63v19c0,4.78.25,7,2.5,7,2.5,0,4.75-3.86,4.75-11v-.53H112V85.1c0,8.11-2.75,12.37-7.75,12.37C100,97.47,97.76,94,97.64,87,95.26,94,90.88,97.6,84.26,97.6" fill="#7d452b"/><path d="M218.5,86.83c0,5.59,2.62,8.91,6.62,8.91,5.88,0,10.25-6.38,10.25-17.42V71.41C224,73,218.5,78.06,218.5,86.83m3.75,10.77c-7,0-11.63-4.25-11.63-10.5,0-9,8-14.23,24.75-16.89V64.62c0-7.71-2.37-11-8.5-11-5.62,0-9.62,2.79-9.62,4.52C217.25,59.17,222,60,222,64a4.25,4.25,0,0,1-4.38,4.26c-2.62,0-4.62-2.13-4.62-5.46,0-5.58,5.87-10.37,14.62-10.37,5.13,0,9.25,1.6,11.5,4.39,2.63,3.19,2.75,7.18,2.75,12.63v19c0,4.78.25,7,2.5,7,2.5,0,4.76-3.86,4.76-11v-.53H250V85.1c0,8.11-2.75,12.37-7.75,12.37-4.25,0-6.5-3.46-6.63-10.51C233.25,94,228.87,97.6,222.25,97.6" fill="#7d452b"/><path d="M.63,94.28H3c4.13,0,4.88-.8,4.88-5.06V62.63c0-5.58-1-7.05-6.63-7.05H0V54.12l14.5-.4v12.9l.38.13c2.25-8.77,7-13.43,12.5-13.43,6,0,9.75,4.66,11,13.3l.5.13c2.25-8.77,6.87-13.43,12.5-13.43,7.13,0,11.13,6.25,11.13,18.49V89.22c0,4.26.75,5.06,4.62,5.06h2.75v1.33H49.13V94.28h2.25c3.75,0,4.63-.8,4.63-5.06V63.83c0-5.85-1.88-8.65-5.76-8.65-6.37,0-11.87,8.78-11.87,23.94v10.1c0,4.26.87,5.06,4.75,5.06h2v1.33h-19V94.28h1.12c3.88,0,4.75-.8,4.75-5.06V63.83c0-5.85-1.87-8.65-5.75-8.65-6.5,0-11.75,8.78-11.75,23.94v10.1c0,4,.75,5.06,4.5,5.06h2.38v1.33H.63Z" fill="#7d452b"/><path d="M116.39,78.85h1.12c3.38,11.44,9.38,17.29,15.75,17.29,5,0,8-2.93,8-7.31,0-4-2-6.12-6.37-8.38-5.5-2.66-10-4.26-13.25-6.65-3.63-2.92-5.38-6-5.38-9.84,0-6.38,4.75-11.57,11-11.57,6.63,0,9.88,5,11.63,5,1.25,0,2.37-1.59,3.12-4.92h1.13V69H142c-2.87-9.84-8.5-15.29-14.12-15.29-4.75,0-7.38,2.53-7.38,6.92,0,3.85,2,6.38,6.25,8.37,5.25,2.4,9.63,4,12.88,6.12,4.25,3.06,6.5,6.52,6.5,10.5,0,6.92-4.75,11.84-12.25,11.84-3.25,0-6-1.2-9-3.46-1.5-1.19-2.63-2.39-3.75-2.39-1.63,0-2.75,2-3.63,5.85h-1.12Z" fill="#7d452b"/><path d="M170,96.27c6.62,0,10.25-7,10.25-20.87,0-14.1-3.25-21-10.13-21s-11.75,7.84-11.75,21.67c0,13,4.38,20.21,11.63,20.21M151.89,42.15c0-7.84-.87-10.24-7.5-10.63v-1.2h14V63.7h.5c2.38-6.92,6.5-10.64,12-10.64,9.38,0,16.88,9.17,16.88,22.6a24.24,24.24,0,0,1-7.13,17.42A15.21,15.21,0,0,1,170,97.47c-5.38,0-9.75-3.32-12.38-9.57H157l-3.63,9.17h-1.5Z" fill="#7d452b"/><path d="M201.52,44.15c0,2.92-1.87,4.92-4.5,4.92s-4.5-2.13-4.5-4.92a4.44,4.44,0,0,1,4.5-4.66,4.52,4.52,0,0,1,4.5,4.66M188.14,55.58H187V54.12l14.38-.4V89.23c0,4,.75,5,4.5,5h2.37v1.33H187.52V94.28h2.37c4.13,0,4.88-.8,4.88-5V62.63c0-5.58-1-7.05-6.63-7.05" fill="#7d452b"/><polygon points="37.63 0 37.25 0 36.13 0 43.01 41.22 37.63 0" fill="#5b6f33"/><polygon points="73.26 0 38.25 0 73.26 30.05 73.26 0" fill="#7d452b"/><polygon points="25.38 29.92 14.5 41.89 0.5 38.16 0.5 49.2 37.88 49.2 42.5 49.2 27.75 45.21 25.38 29.92" fill="#5b6f33"/><polygon points="0.5 36.3 35.75 0 30.88 0 0.5 0 0.5 36.3" fill="#5b6f33"/><polygon points="63.88 38.16 55.13 29.79 57.76 41.75 45.26 49.2 73.26 49.2 73.26 32.18 63.88 38.16" fill="#7d452b"/></svg>