<svg width="59" height="81" viewBox="0 0 59 81" fill="none" xmlns="http://www.w3.org/2000/svg">
<path d="M23.9925 26.0136C23.8827 25.997 23.7834 26.1169 23.768 26.2958C23.5009 29.3774 23.0611 32.2014 22.4487 34.767C22.0487 36.3101 21.62 37.7146 21.1619 38.9803C20.9167 39.6739 20.2982 41.1381 19.305 43.3707C19.3051 43.3707 19.3001 43.3835 19.3001 43.3835C19.1409 43.7613 19.0091 44.1263 18.9049 44.4785C18.7694 44.9331 18.6634 45.3813 18.5871 45.8253C18.3094 47.6566 18.1436 48.6939 18.0888 48.9457C18.0528 49.1101 18.1109 49.2873 18.2184 49.3427C18.2335 49.3513 18.2485 49.3556 18.2637 49.3577C18.3569 49.3726 18.4475 49.2873 18.4785 49.1442C18.5374 48.8732 18.7062 47.8209 18.9843 45.9853C19.0545 45.5777 19.1529 45.1615 19.2791 44.7389C19.3746 44.4144 19.4959 44.0793 19.643 43.7293C20.6436 41.4796 21.2695 39.9984 21.5209 39.2855C21.9885 37.9942 22.4256 36.5641 22.8324 34.9911C23.4579 32.3722 23.9049 29.4993 24.1758 26.3703L24.1766 26.3596C24.1877 26.1895 24.1096 26.0371 23.9994 26.0149C23.9971 26.0145 23.9948 26.014 23.9925 26.0136Z" stroke="#A6A6A6" stroke-width="2"/>
<path d="M25.1645 24.3569C24.7697 24.3012 24.4092 24.5774 24.0827 25.1847C24.0067 25.3267 24.0255 25.5296 24.1249 25.6385C24.1595 25.6764 24.1997 25.6979 24.2402 25.7036C24.3157 25.7144 24.3932 25.6707 24.4427 25.5786C24.6556 25.1821 24.8922 25.0022 25.1522 25.0388C25.321 25.0627 25.4999 25.1779 25.6887 25.3844C25.8961 25.6113 26.1162 25.9384 26.349 26.3653C26.9836 27.6331 27.3267 29.4862 27.3782 31.9216C27.4091 33.2227 27.2921 34.6334 27.0271 36.1605L27.0243 36.1803C26.9124 37.0425 26.418 38.7868 25.5413 41.4175L25.5327 41.4482C25.5322 41.4482 25.5288 41.4635 25.5288 41.4635C25.3065 42.5035 25.134 43.7607 25.0115 45.2329C24.899 46.5757 24.8656 48.1247 24.9113 49.8822L24.9121 49.8997C25.2555 55.42 25.4011 58.3732 25.3488 58.7615C25.3491 58.7615 25.3417 58.8317 25.3417 58.8317C25.3104 60.5694 25.1603 61.9539 24.8911 62.9851C24.6027 64.1018 24.1414 65.0585 23.5069 65.8549C23.2634 66.1533 22.9643 66.3793 22.6101 66.5285H22.5985C20.7551 66.8861 19.6547 67.3491 19.2975 67.9173L19.285 67.9151C18.6134 68.479 15.7947 72.1145 10.8286 78.824C10.7377 78.9468 10.7339 79.1509 10.8199 79.2803C10.859 79.3396 10.9097 79.3725 10.9621 79.3813C11.0253 79.39 11.0907 79.3615 11.1405 79.2935C16.3255 72.2901 19.1231 68.6765 19.533 68.457C19.5702 68.4373 19.6032 68.4044 19.6285 68.3605C19.8916 67.9041 20.9172 67.5048 22.7051 67.1604L22.7395 67.1494C23.1567 66.9717 23.5119 66.704 23.8047 66.342C24.4981 65.4709 25.0014 64.4288 25.3161 63.2111C25.6005 62.1228 25.7597 60.6835 25.7943 58.8932C25.8549 58.4565 25.7124 55.4441 25.3648 49.858C25.3197 48.1357 25.3522 46.6196 25.4618 45.3097C25.5806 43.8836 25.7467 42.6681 25.9594 41.6676C26.8421 39.0194 27.3445 37.2356 27.4675 36.3163C27.7424 34.7322 27.8637 33.26 27.8314 31.9018C27.7771 29.3282 27.4039 27.3531 26.7121 25.9779L26.7069 25.9678C26.4504 25.4974 26.2029 25.1316 25.9643 24.8708C25.6838 24.5638 25.4171 24.3925 25.1645 24.3569Z" stroke="#A6A6A6" stroke-width="2"/>
<path d="M28.3578 4.35186C27.9884 4.29949 27.5673 4.4083 27.0943 4.67874C27.0674 4.69438 27.0426 4.7166 27.0214 4.74517C26.7656 5.08928 26.5474 5.67482 26.3671 6.50201L26.3647 6.51357C25.2895 12.1445 24.6172 15.4064 24.3478 16.2991L24.3417 16.322C23.7587 18.7204 23.1031 20.9573 22.3747 23.0322C21.9313 24.34 21.5735 25.2556 21.3 25.7836L17.5495 32.7799C17.5301 32.8162 17.5162 32.857 17.5084 32.9023C15.6234 43.4887 13.9657 50.2214 12.5351 53.0981L12.5195 53.1344C11.1704 56.7297 7.38003 60.2615 1.1485 63.7276C1.02883 63.7956 0.969397 63.9883 1.01575 64.1606C1.04838 64.283 1.12516 64.3601 1.20982 64.3737C1.24498 64.3782 1.2814 64.3714 1.3164 64.351C7.63417 60.8373 11.5004 57.2148 12.9152 53.488C14.3727 50.5524 16.0485 43.7812 17.9402 33.1721L17.9273 33.1698L21.6707 26.1871C21.9634 25.6217 22.336 24.6721 22.79 23.3335C23.5247 21.2405 24.1864 18.9842 24.7749 16.5652C25.0524 15.6442 25.7311 12.3565 26.8109 6.70217C26.9564 6.03525 27.1191 5.56465 27.2995 5.29035L27.2867 5.28854C27.6532 5.0827 27.9796 4.99996 28.2656 5.04054C28.794 5.1158 29.185 5.61157 29.4387 6.5283C29.6462 7.27842 29.771 8.29649 29.8131 9.58182C29.8005 10.5715 29.7193 11.5821 29.5691 12.6131L29.5666 12.6335C29.5145 13.1479 29.1688 14.8068 28.5293 17.61L28.5199 17.6678C28.1278 21.6895 27.6536 24.8784 27.097 27.2344C27.0559 27.4094 27.1208 27.5994 27.2425 27.6585C27.2597 27.6671 27.2771 27.6724 27.2947 27.6748C27.3997 27.6896 27.502 27.5996 27.5374 27.4495C28.1005 25.0647 28.5796 21.8546 28.9747 17.8188C29.6112 15.0131 29.9621 13.3238 30.0244 12.7505C30.1816 11.6708 30.2659 10.611 30.2778 9.57161V9.55054C30.2331 8.19063 30.0975 7.1007 29.8708 6.28121C29.5418 5.09154 29.0375 4.44843 28.3578 4.35186Z" stroke="#A6A6A6" stroke-width="2"/>
<path d="M26.5041 1.012C26.0841 0.949874 25.7558 1.21099 25.5189 1.79535C25.4156 2.05303 25.3498 2.49502 25.3207 3.12157C25.3208 3.12157 25.32 3.14976 25.32 3.14976C25.337 6.38449 25.2609 9.00231 25.0918 11.0025C25.0236 12.0541 24.7215 14.1359 24.1849 17.2572C24.1539 17.438 24.2265 17.6224 24.3473 17.6691C24.3588 17.6733 24.3703 17.6765 24.3818 17.6781C24.4905 17.6941 24.5943 17.5894 24.6223 17.4259C25.1631 14.2806 25.4687 12.1678 25.5399 11.0873C25.7111 9.06398 25.7884 6.42415 25.7716 3.16833C25.7949 2.65092 25.8396 2.31002 25.9051 2.14587C26.0385 1.81713 26.2352 1.67224 26.4958 1.71076C26.701 1.74102 26.9458 1.88522 27.23 2.14336C27.288 2.19608 27.3479 2.25362 27.4094 2.31598L27.4176 2.32378C27.9224 2.78939 28.3215 3.77517 28.6148 5.28157C28.6414 5.41798 28.7204 5.51036 28.8094 5.52343C28.8372 5.52778 28.8662 5.52389 28.8946 5.51174C29.0144 5.45924 29.0833 5.27171 29.0482 5.09244C28.7241 3.42716 28.2623 2.31483 27.663 1.75615C27.5953 1.68806 27.5292 1.62456 27.4641 1.56542C27.1035 1.23782 26.7835 1.05327 26.5041 1.012Z" stroke="#A6A6A6" stroke-width="2"/>
<path d="M25.3695 24.3543C25.2572 24.3394 25.1491 24.4332 25.1146 24.5854C25.0754 24.7589 25.1473 24.9425 25.2751 24.9956C25.5873 25.1257 25.8413 25.6626 26.0371 26.6062C26.107 26.9995 26.139 27.4217 26.1328 27.8729C26.1365 28.5399 26.1016 29.1553 26.0277 29.7279C25.9662 30.1134 25.882 30.3228 25.7752 30.3607L25.7592 30.3696L25.7433 30.3674C25.7284 30.3674 25.71 30.3651 25.6875 30.3629C25.6711 30.3607 25.6527 30.3562 25.6322 30.354C25.4392 30.2871 25.0493 30.1958 24.4554 30.0755C24.4516 30.0733 24.4475 30.0733 24.4434 30.0733C24.3158 30.0554 24.1996 30.178 24.1804 30.3518C24.1608 30.53 24.2518 30.6971 24.384 30.7238C24.9745 30.8442 25.3511 30.9333 25.5136 30.9912L25.5221 30.9957C25.5224 30.9957 25.543 31.0001 25.543 31.0001C25.5735 31.0046 25.6022 31.0113 25.6291 31.0135C25.7115 31.0246 25.7778 31.0268 25.8278 31.0179C25.8534 31.0135 25.8771 31.0068 25.8991 30.9979C26.1976 30.8909 26.3996 30.51 26.5027 29.8549L26.5043 29.8415C26.5829 29.2311 26.6205 28.5798 26.6167 27.8855C26.6238 27.3727 26.5865 26.8905 26.505 26.4389L26.503 26.4282C26.2596 25.2542 25.8976 24.5673 25.4169 24.3675C25.4012 24.3608 25.3854 24.3566 25.3695 24.3543Z" stroke="#A6A6A6" stroke-width="2"/>
<path d="M28.1557 6.01008C28.0796 6.00257 27.9981 6.00313 27.912 6.01159C27.758 6.02699 27.6459 6.16283 27.6614 6.3152C27.6751 6.44859 27.7821 6.55042 27.9122 6.56319C27.9304 6.56507 27.9492 6.56507 27.968 6.56319C27.9978 6.56019 28.026 6.56 28.0534 6.56282C28.2606 6.58292 28.3922 6.76685 28.448 7.11424L28.4502 7.12607C28.5005 7.37126 28.511 7.81015 28.4812 8.44292C28.465 8.73995 28.3978 9.13318 28.2804 9.62279C28.1441 10.1002 28.0327 10.3752 27.9452 10.4478C27.9216 10.4526 27.901 10.4545 27.8772 10.453C27.5102 10.348 27.2091 10.2841 26.9736 10.261C26.9544 10.2591 26.936 10.2576 26.9178 10.2563C26.7637 10.245 26.6293 10.3596 26.6179 10.512C26.6069 10.6625 26.7191 10.7936 26.8696 10.8085C26.8911 10.81 26.9057 10.8111 26.9208 10.8128C27.1254 10.8325 27.4003 10.8925 27.7451 10.992L27.7878 11.0009C27.7966 11.002 27.8053 11.0029 27.8138 11.0039C27.9412 11.0163 28.0594 10.9994 28.1686 10.9533C28.216 10.9351 28.2621 10.9083 28.3052 10.8722C28.4815 10.7256 28.6539 10.3555 28.822 9.76163L28.8247 9.75111C28.9507 9.22787 29.0225 8.8012 29.0403 8.47035C29.0718 7.79962 29.0587 7.31922 29.001 7.02763C28.8995 6.39429 28.6178 6.05536 28.1557 6.01008Z" stroke="#A6A6A6" stroke-width="2"/>
<path d="M26.2049 1.0013C26.0024 0.982149 25.7967 1.02708 25.5882 1.13585L25.5715 1.15949L25.5518 1.1576C25.4035 1.25832 25.3537 1.45196 25.4426 1.60896C25.4835 1.68107 25.5473 1.73404 25.6353 1.74231C25.7412 1.75248 25.8822 1.69833 26.0605 1.53637L26.0805 1.53827L25.9465 1.73238L25.9652 1.73426C26.0236 1.70897 26.0812 1.69904 26.1384 1.70448C26.1953 1.70968 26.2517 1.73048 26.3076 1.76666L26.3288 1.77943C26.4813 1.86407 26.6203 2.06363 26.7459 2.37739C26.8753 2.67341 26.9839 3.21084 27.0761 3.99984L27.0776 4.01142C27.1305 4.35946 27.1224 4.8957 27.0529 5.61968C27.0344 5.81049 27.1805 5.97978 27.3789 5.99846C27.5814 6.01643 27.758 5.87528 27.7765 5.68352C27.8507 4.91178 27.8581 4.3247 27.7984 3.92228C27.6992 3.07464 27.5747 2.47669 27.4245 2.12747C27.2421 1.67185 27.0056 1.35904 26.7154 1.18857C26.5466 1.08005 26.3769 1.01785 26.2049 1.0013Z" stroke="#A6A6A6" stroke-width="2"/>
<path d="M26.1341 7.67188C26.0476 7.67188 25.9767 7.67188 25.9214 7.67188C25.7921 7.67188 25.6616 7.67188 25.5297 7.67188C25.4207 7.67188 25.3694 7.67188 25.4152 7.67188C25.4467 7.67188 25.5159 7.67188 25.5917 7.67188C25.6259 7.67188 25.6615 7.67188 25.6953 7.67188C25.7802 7.67188 25.8616 7.67188 25.9396 7.67188C25.9744 7.67188 26.0222 7.67188 26.0843 7.67188H26.096C26.1585 7.67188 26.2479 7.67188 26.3643 7.67188C26.3708 7.67188 26.3772 7.67188 26.3836 7.67188C26.4926 7.67188 26.5936 7.67188 26.6145 7.67188C26.6367 7.67188 26.5605 7.67188 26.4444 7.67188C26.3127 7.67188 26.2095 7.67188 26.1346 7.67188H26.1341Z" stroke="#A6A6A6" stroke-width="2"/>
<path d="M34.1158 26.0149C34.0055 26.0371 33.9275 26.1895 33.9385 26.3577C33.9385 26.3596 33.9394 26.3703 33.9394 26.3703C34.2103 29.4993 34.6574 32.3722 35.2808 34.9847C35.6896 36.5641 36.1266 37.9942 36.594 39.2855C36.8457 39.9984 37.4717 41.4796 38.4722 43.7293C38.6192 44.0793 38.7405 44.4144 38.8359 44.7389C38.9624 45.1615 39.0606 45.5777 39.1309 45.9853C39.409 47.8209 39.5777 48.8732 39.6368 49.1442C39.6677 49.2873 39.7584 49.3726 39.8515 49.3577C39.8667 49.3556 39.8816 49.3513 39.8967 49.3427C40.0043 49.2873 40.0624 49.1101 40.0263 48.9457C39.9715 48.6939 39.8057 47.6566 39.5297 45.8338C39.4517 45.3813 39.3458 44.9331 39.2101 44.4785C39.1061 44.1263 38.9743 43.7613 38.815 43.3835L38.8101 43.3707C37.8169 41.1381 37.1985 39.6739 36.9546 38.9845C36.4952 37.7146 36.0665 36.3101 35.6667 34.767C35.0542 32.2014 34.6143 29.3774 34.3473 26.2958C34.3319 26.1169 34.2324 25.997 34.1228 26.0136C34.1204 26.014 34.1182 26.0145 34.1158 26.0149Z" stroke="#A6A6A6" stroke-width="2"/>
<path d="M32.2832 24.8708C32.0277 25.1316 31.7626 25.4974 31.4877 25.9678L31.4821 25.9779C30.7409 27.3531 30.3409 29.3282 30.2828 31.9018C30.2482 33.26 30.3783 34.7322 30.673 36.3163C30.8046 37.2356 31.3427 39.0194 32.2872 41.6654C32.5166 42.6681 32.6943 43.8836 32.8218 45.3097C32.9393 46.6196 32.974 48.1357 32.9261 49.858C32.5533 55.4441 32.4007 58.4565 32.4672 58.8932C32.5024 60.6835 32.6731 62.1228 32.9778 63.2111C33.315 64.4288 33.8542 65.4709 34.5954 66.3398C34.9108 66.704 35.2913 66.9717 35.7384 67.1494L35.7753 67.1604C37.691 67.5048 38.7898 67.9041 39.0718 68.3605C39.0988 68.4044 39.1342 68.4373 39.1739 68.457C39.613 68.6765 42.6104 72.2901 48.166 79.2935C48.2192 79.3615 48.2894 79.39 48.3571 79.3813C48.4131 79.3725 48.4676 79.3396 48.5092 79.2803C48.6016 79.1509 48.5975 78.9468 48.5 78.824C43.1792 72.1145 40.1592 68.479 39.4397 67.9151L39.4262 67.9173C39.0436 67.3491 37.8646 66.8861 35.8894 66.5285H35.877C35.4976 66.3793 35.1772 66.1533 34.9163 65.8549C34.2365 65.0585 33.7422 64.1018 33.4336 62.9873C33.1448 61.9539 32.9839 60.5694 32.9503 58.8317L32.9425 58.7615C32.8867 58.3732 33.0429 55.42 33.4107 49.8997L33.4115 49.8822C33.4604 48.1247 33.4247 46.5757 33.3043 45.2329C33.173 43.7607 32.9882 42.5035 32.75 41.4635L32.7462 41.4482C32.7459 41.4482 32.7365 41.4175 32.7365 41.4175C31.7973 38.7868 31.2676 37.0425 31.1477 36.1803L31.1446 36.1605C30.8608 34.6334 30.7353 33.2227 30.7684 31.9238C30.8235 29.4862 31.1912 27.6331 31.8714 26.3653C32.1205 25.9384 32.3563 25.6113 32.5787 25.3844C32.781 25.1779 32.9725 25.0627 33.1534 25.0388C33.4321 25.0022 33.6854 25.1821 33.9135 25.5786C33.9666 25.6707 34.0496 25.7144 34.1304 25.7036C34.1739 25.6979 34.2169 25.6764 34.2541 25.6385C34.3607 25.5296 34.3808 25.3267 34.2993 25.1847C33.9494 24.5774 33.5632 24.3012 33.1402 24.3569C32.8696 24.3925 32.5838 24.5638 32.2832 24.8708Z" stroke="#A6A6A6" stroke-width="2"/>
<path d="M29.387 17.1268L29.3811 17.0658C29.3311 16.6932 29.2839 16.3402 29.2397 16.006C29.1813 16.3146 29.1225 16.6227 29.0586 16.9248C29.0749 17.0472 29.0895 17.1591 29.1066 17.2855C29.3498 21.5412 29.6474 24.926 29.9973 27.4404C30.0193 27.5987 30.0828 27.6936 30.1481 27.678C30.1588 27.6754 30.1697 27.6699 30.1804 27.6608C30.256 27.5982 30.2964 27.3981 30.2708 27.2136C29.9251 24.7297 29.6306 21.3672 29.387 17.1268Z" stroke="#A6A6A6" stroke-width="2"/>
<path d="M56.9661 63.7276C50.6598 60.2615 46.8238 56.7297 45.4585 53.1344L45.4429 53.0981C43.9951 50.2214 42.3174 43.4887 40.4097 32.9023C40.4019 32.857 40.3877 32.8162 40.3682 32.7799L36.5725 25.7836C36.296 25.2556 35.9338 24.34 35.4863 23.0365C34.7475 20.9573 34.0841 18.7204 33.4944 16.322L33.488 16.2991C33.2154 15.4064 32.535 12.1445 31.4469 6.51357L31.4445 6.50201C31.2618 5.67482 31.0413 5.08928 30.7824 4.74517C30.761 4.7166 30.736 4.69438 30.7085 4.67874C30.2302 4.4083 29.8039 4.29949 29.43 4.35186C29.299 4.37022 29.1765 4.41465 29.0586 4.47269C29.1173 4.67716 29.1668 4.88526 29.2086 5.0963C29.2145 5.11331 29.2205 5.13053 29.2266 5.14776C29.3214 5.09993 29.4174 5.0555 29.5232 5.04054C29.8128 4.99996 30.1432 5.0827 30.514 5.28854L30.5009 5.29035C30.6835 5.56465 30.8481 6.03525 30.9954 6.70217C32.0881 12.3565 32.7752 15.6442 33.0563 16.5652C33.6513 18.9842 34.3211 21.2405 35.0646 23.3335C35.5244 24.6721 35.9011 25.6217 36.1951 26.1828C36.1975 26.1873 39.9859 33.1698 39.9859 33.1698L39.9728 33.1721C41.8874 43.7812 43.583 50.5524 45.0599 53.4857C46.4898 57.2148 50.4027 60.8373 56.7963 64.351C56.8317 64.3714 56.8686 64.3782 56.9042 64.3737C56.9897 64.3601 57.0674 64.283 57.1006 64.1606C57.1473 63.9883 57.0872 63.7956 56.9661 63.7276Z" stroke="#A6A6A6" stroke-width="2"/>
<path d="M33.9307 17.2572C33.3692 14.1357 33.0529 12.0541 32.9822 11.0124C32.8045 9.00231 32.7249 6.38449 32.7426 3.14976L32.7418 3.12157C32.7116 2.49502 32.6428 2.05303 32.535 1.7965C32.2867 1.21099 31.9432 0.949872 31.5036 1.012C31.211 1.05326 30.8763 1.23781 30.4986 1.56541C30.4305 1.62456 30.3614 1.68806 30.2909 1.75592C29.7863 2.20548 29.3767 3.01886 29.0586 4.18345C29.1706 4.46864 29.2626 4.76667 29.3414 5.07066C29.6438 3.68598 30.0449 2.76668 30.5476 2.324L30.5559 2.31597C30.6203 2.25362 30.6832 2.19608 30.7437 2.14335C31.0415 1.88522 31.2974 1.74102 31.5121 1.71076C31.7849 1.67224 31.9909 1.81713 32.1303 2.14587C32.1992 2.31002 32.2459 2.65091 32.2706 3.16833C32.2526 6.42415 32.3334 9.06398 32.5127 11.0873C32.5872 12.1678 32.9069 14.2806 33.4729 17.4259C33.5024 17.5894 33.6109 17.6941 33.7248 17.6781C33.7366 17.6765 33.7488 17.6733 33.7607 17.6689C33.8871 17.6224 33.9632 17.438 33.9307 17.2572Z" stroke="#A6A6A6" stroke-width="2"/>
<path d="M33.3171 24.3675C33.0769 24.5673 32.8958 25.2542 32.7742 26.4282L32.7731 26.4389C32.7323 26.8905 32.7137 27.3727 32.7172 27.8855C32.7153 28.5798 32.7341 29.2311 32.7734 29.8415L32.7742 29.8549C32.8259 30.51 32.9269 30.8909 33.0773 30.9979C33.0871 31.0068 33.0989 31.0135 33.1117 31.0179C33.1367 31.0268 33.1698 31.0246 33.211 31.0135C33.2245 31.0113 33.2388 31.0046 33.2541 31.0001L33.2643 30.9957C33.2645 30.9957 33.2689 30.9912 33.2689 30.9912C33.3501 30.9333 33.5384 30.8442 33.8335 30.7238C33.8997 30.6971 33.9452 30.53 33.9354 30.3518C33.9258 30.178 33.8677 30.0554 33.8038 30.0733C33.8019 30.0733 33.7998 30.0733 33.7978 30.0755C33.5009 30.1958 33.306 30.2871 33.2133 30.3518C33.1993 30.3562 33.19 30.3607 33.1818 30.3629C33.1706 30.3651 33.1614 30.3674 33.154 30.3674L33.1459 30.3696L33.1381 30.3607C33.0846 30.3228 33.0426 30.1134 33.0119 29.7279C32.9749 29.1553 32.9574 28.5399 32.9593 27.8818C32.9562 27.4217 32.9721 26.9995 33.0073 26.6062C33.1049 25.6626 33.2319 25.1257 33.388 24.9956C33.4519 24.9425 33.4879 24.7589 33.4682 24.5854C33.4511 24.4332 33.397 24.3394 33.3408 24.3543C33.3329 24.3566 33.325 24.3608 33.3171 24.3675Z" stroke="#A6A6A6" stroke-width="2"/>
<path d="M31.1922 10.2563C31.1734 10.2576 31.1546 10.2591 31.1351 10.261C30.8949 10.2841 30.5882 10.348 30.2138 10.453C30.1897 10.4545 30.1686 10.4526 30.1507 10.4472C30.0553 10.3752 29.9415 10.1002 29.8031 9.62261C29.6828 9.13318 29.6143 8.73995 29.5978 8.44292C29.5674 7.81015 29.5783 7.37126 29.6295 7.12607L29.6317 7.11424C29.6888 6.76685 29.8225 6.58292 30.034 6.56282C30.0617 6.56 30.0907 6.56019 30.1211 6.56319C30.1407 6.56507 30.1593 6.56507 30.178 6.56319C30.3106 6.55042 30.4198 6.44859 30.4339 6.3152C30.4494 6.16283 30.3354 6.02699 30.1784 6.01159C30.0904 6.00313 30.0075 6.00257 29.9297 6.01008C29.4584 6.05536 29.1712 6.39429 29.0679 7.02763C29.064 7.04623 29.0619 7.07234 29.0586 7.09244C29.4975 8.21314 29.7253 9.43491 29.7581 10.5659C29.7606 10.6588 29.7505 10.7495 29.7505 10.8417C29.7592 10.8502 29.7681 10.8649 29.7774 10.8722C29.8211 10.9083 29.8684 10.9351 29.9177 10.9533C30.0278 10.9994 30.1484 11.0163 30.2783 11.0039C30.2872 11.0029 30.2961 11.002 30.3046 11.0009L30.3482 10.992C30.7002 10.8925 30.9803 10.8325 31.1889 10.8126C31.2044 10.8111 31.2195 10.81 31.234 10.8089C31.3948 10.7936 31.5092 10.6625 31.4976 10.512C31.4862 10.3596 31.349 10.245 31.1922 10.2563Z" stroke="#A6A6A6" stroke-width="2"/>
<path d="M31.4015 1.18856C31.1098 1.35903 30.8735 1.67183 30.6912 2.12743C30.5406 2.47663 30.4162 3.07456 30.3172 3.92216C30.2575 4.32456 30.2649 4.91163 30.3391 5.68333C30.3576 5.87508 30.5342 6.01623 30.734 5.9985C30.9351 5.97958 31.0809 5.81029 31.0627 5.61949C30.993 4.89554 30.9849 4.35932 31.0378 4.01129L31.0393 3.99971C31.1314 3.21075 31.2404 2.67334 31.3653 2.38773C31.4951 2.06358 31.6341 1.86404 31.7868 1.7794L31.8078 1.76663C31.8637 1.73045 31.9201 1.70965 31.9773 1.70445C32.0342 1.69901 32.0919 1.70894 32.1502 1.73423L32.169 1.73235L32.0349 1.53824L32.0551 1.53635C32.2335 1.69831 32.3745 1.75245 32.4802 1.74228C32.5681 1.73401 32.6319 1.68104 32.6731 1.60893C32.7618 1.45194 32.7123 1.25831 32.5637 1.15759L32.544 1.15948L32.5272 1.13584C32.3188 1.02708 32.1133 0.98215 31.9105 1.0013C31.7385 1.01785 31.569 1.08004 31.4015 1.18856Z" stroke="#A6A6A6" stroke-width="2"/>
<path d="M31.9798 7.67188C31.9049 7.67188 31.8018 7.67188 31.6702 7.67188C31.5539 7.67188 31.4777 7.67188 31.4999 7.67188C31.5208 7.67188 31.6219 7.67188 31.731 7.67188C31.7374 7.67188 31.7438 7.67188 31.7502 7.67188C31.8666 7.67188 31.956 7.67188 32.0184 7.67188H32.0303C32.0923 7.67188 32.14 7.67188 32.1731 7.67188C32.2528 7.67188 32.3342 7.67188 32.4191 7.67188C32.4531 7.67188 32.4885 7.67188 32.5229 7.67188C32.5985 7.67188 32.6679 7.67188 32.6993 7.67188C32.745 7.67188 32.6938 7.67188 32.5848 7.67188C32.4528 7.67188 32.3223 7.67188 32.193 7.67188C32.1377 7.67188 32.0669 7.67188 31.9805 7.67188H31.9798Z" stroke="#A6A6A6" stroke-width="2"/>
</svg>
